Jost-100-HairlineItalic.ufo
<glyph name="exclam" format="1">
  <advance width="246"/>
  <unicode hex="0021"/>
  <outline>
    <contour>
      <point x="302" y="699" type="line"/>
      <point x="316" y="699" type="line"/>
      <point x="140" y="201" type="line"/>
      <point x="134" y="201" type="line"/>
    </contour>
    <contour>
      <point x="57" y="1" type="curve" smooth="yes"/>
      <point x="57" y="8"/>
      <point x="62" y="12"/>
      <point x="68" y="12" type="curve" smooth="yes"/>
      <point x="74" y="12"/>
      <point x="79" y="8"/>
      <point x="79" y="1" type="curve" smooth="yes"/>
      <point x="79" y="-6"/>
      <point x="74" y="-10"/>
      <point x="68" y="-10" type="curve" smooth="yes"/>
      <point x="62" y="-10"/>
      <point x="57" y="-6"/>
    </contour>
  </outline>
</glyph>
<glyph name="quotedbl" format="1">
  <advance width="379"/>
  <unicode hex="0022"/>
  <outline>
    <contour>
      <point x="314" y="699" type="line"/>
      <point x="327" y="699" type="line"/>
      <point x="185" y="421" type="line"/>
      <point x="178" y="421" type="line"/>
    </contour>
    <contour>
      <point x="484" y="699" type="line"/>
      <point x="497" y="699" type="line"/>
      <point x="354" y="421" type="line"/>
      <point x="347" y="421" type="line"/>
    </contour>
  </outline>
</glyph>
<glyph name="numbersign" format="1">
  <advance width="571"/>
  <unicode hex="0023"/>
  <outline>
    <contour>
      <point x="155" y="454" type="line"/>
      <point x="157" y="465" type="line"/>
      <point x="618" y="465" type="line"/>
      <point x="616" y="454" type="line"/>
      <point x="500" y="454" type="line" smooth="yes"/>
      <point x="496" y="454" type="line" smooth="yes"/>
      <point x="288" y="454" type="line" smooth="yes"/>
      <point x="285" y="454" type="line" smooth="yes"/>
    </contour>
    <contour>
      <point x="77" y="240" type="line"/>
      <point x="79" y="251" type="line"/>
      <point x="199" y="251" type="line" smooth="yes"/>
      <point x="204" y="251" type="line" smooth="yes"/>
      <point x="407" y="251" type="line" smooth="yes"/>
      <point x="413" y="251" type="line" smooth="yes"/>
      <point x="540" y="251" type="line"/>
      <point x="538" y="240" type="line"/>
    </contour>
    <contour>
      <point x="593" y="700" type="line"/>
      <point x="604" y="700" type="line"/>
      <point x="311" y="0" type="line"/>
      <point x="300" y="0" type="line"/>
      <point x="402" y="244" type="line" smooth="yes"/>
      <point x="403" y="246" type="line" smooth="yes"/>
      <point x="492" y="458" type="line" smooth="yes"/>
      <point x="493" y="462" type="line" smooth="yes"/>
    </contour>
    <contour>
      <point x="383" y="700" type="line"/>
      <point x="394" y="700" type="line"/>
      <point x="294" y="462" type="line" smooth="yes"/>
      <point x="293" y="458" type="line" smooth="yes"/>
      <point x="203" y="244" type="line" smooth="yes"/>
      <point x="203" y="243" type="line" smooth="yes"/>
      <point x="101" y="0" type="line"/>
      <point x="90" y="0" type="line"/>
    </contour>
  </outline>
</glyph>
<glyph name="percent" format="1">
  <advance width="659"/>
  <unicode hex="0025"/>
  <outline>
    <contour>
      <point x="169" y="561" type="curve" smooth="yes"/>
      <point x="195" y="638"/>
      <point x="274" y="710"/>
      <point x="359" y="709" type="curve" smooth="yes"/>
      <point x="443" y="708"/>
      <point x="473" y="631"/>
      <point x="449" y="559" type="curve" smooth="yes"/>
      <point x="423" y="482"/>
      <point x="344" y="410"/>
      <point x="259" y="411" type="curve" smooth="yes"/>
      <point x="175" y="412"/>
      <point x="145" y="489"/>
    </contour>
    <contour>
      <point x="179" y="560" type="curve" smooth="yes"/>
      <point x="156" y="495"/>
      <point x="182" y="421"/>
      <point x="260" y="420" type="curve" smooth="yes"/>
      <point x="339" y="419"/>
      <point x="414" y="488"/>
      <point x="439" y="560" type="curve" smooth="yes"/>
      <point x="462" y="626"/>
      <point x="435" y="698"/>
      <point x="358" y="699" type="curve" smooth="yes"/>
      <point x="279" y="700"/>
      <point x="204" y="632"/>
    </contour>
    <contour>
      <point x="341" y="141" type="curve" smooth="yes"/>
      <point x="367" y="218"/>
      <point x="446" y="290"/>
      <point x="531" y="289" type="curve" smooth="yes"/>
      <point x="615" y="288"/>
      <point x="645" y="211"/>
      <point x="621" y="139" type="curve" smooth="yes"/>
      <point x="595" y="62"/>
      <point x="516" y="-10"/>
      <point x="431" y="-9" type="curve" smooth="yes"/>
      <point x="347" y="-8"/>
      <point x="317" y="69"/>
    </contour>
    <contour>
      <point x="351" y="140" type="curve" smooth="yes"/>
      <point x="328" y="75"/>
      <point x="353" y="1"/>
      <point x="431" y="0" type="curve" smooth="yes"/>
      <point x="510" y="-1"/>
      <point x="586" y="68"/>
      <point x="611" y="140" type="curve" smooth="yes"/>
      <point x="634" y="206"/>
      <point x="607" y="278"/>
      <point x="530" y="279" type="curve" smooth="yes"/>
      <point x="451" y="280"/>
      <point x="376" y="212"/>
    </contour>
    <contour>
      <point x="724" y="698" type="line"/>
      <point x="736" y="698" type="line"/>
      <point x="66" y="0" type="line"/>
      <point x="53" y="0" type="line"/>
    </contour>
  </outline>
</glyph>
<glyph name="parenleft" format="1">
  <advance width="225"/>
  <unicode hex="0028"/>
  <outline>
    <contour>
      <point x="400" y="779" type="curve"/>
      <point x="405" y="779" type="line"/>
      <point x="293" y="632"/>
      <point x="203" y="467"/>
      <point x="149" y="290" type="curve" smooth="yes"/>
      <point x="100" y="131"/>
      <point x="84" y="-34"/>
      <point x="102" y="-200" type="curve"/>
      <point x="97" y="-200" type="line"/>
      <point x="71" y="-35"/>
      <point x="90" y="131"/>
      <point x="139" y="290" type="curve" smooth="yes"/>
      <point x="193" y="468"/>
      <point x="282" y="635"/>
    </contour>
  </outline>
</glyph>
<glyph name="parenright" format="1">
  <advance width="225"/>
  <unicode hex="0029"/>
  <outline>
    <contour>
      <point x="-64" y="-199" type="curve"/>
      <point x="-69" y="-199" type="line"/>
      <point x="43" y="-52"/>
      <point x="132" y="113"/>
      <point x="186" y="290" type="curve" smooth="yes"/>
      <point x="235" y="449"/>
      <point x="252" y="614"/>
      <point x="234" y="780" type="curve"/>
      <point x="239" y="780" type="line"/>
      <point x="265" y="615"/>
      <point x="246" y="449"/>
      <point x="197" y="290" type="curve" smooth="yes"/>
      <point x="143" y="112"/>
      <point x="54" y="-55"/>
    </contour>
  </outline>
</glyph>
<glyph name="asterisk" format="1">
  <advance width="557"/>
  <unicode hex="002A"/>
  <outline>
    <contour>
      <point x="579" y="584" type="line"/>
      <point x="578" y="572" type="line"/>
      <point x="403" y="523" type="line"/>
      <point x="402" y="529" type="line"/>
    </contour>
    <contour>
      <point x="458" y="387" type="line"/>
      <point x="447" y="380" type="line"/>
      <point x="400" y="522" type="line"/>
      <point x="405" y="527" type="line"/>
    </contour>
    <contour>
      <point x="261" y="382" type="line"/>
      <point x="253" y="389" type="line"/>
      <point x="401" y="527" type="line"/>
      <point x="404" y="522" type="line"/>
    </contour>
    <contour>
      <point x="261" y="573" type="line"/>
      <point x="268" y="584" type="line"/>
      <point x="407" y="528" type="line"/>
      <point x="403" y="523" type="line"/>
    </contour>
    <contour>
      <point x="459" y="699" type="line"/>
      <point x="471" y="699" type="line"/>
      <point x="405" y="526" type="line"/>
      <point x="399" y="526" type="line"/>
    </contour>
  </outline>
</glyph>
<glyph name="plus" format="1">
  <advance width="517"/>
  <unicode hex="002B"/>
  <outline>
    <contour>
      <point x="92" y="250" type="line"/>
      <point x="95" y="260" type="line"/>
      <point x="482" y="260" type="line"/>
      <point x="478" y="250" type="line"/>
    </contour>
    <contour>
      <point x="360" y="479" type="line"/>
      <point x="370" y="479" type="line"/>
      <point x="214" y="31" type="line"/>
      <point x="204" y="31" type="line"/>
    </contour>
  </outline>
</glyph>
<glyph name="period" format="1">
  <advance width="244"/>
  <unicode hex="002E"/>
  <outline>
    <contour>
      <point x="57" y="1" type="curve" smooth="yes"/>
      <point x="57" y="7"/>
      <point x="62" y="12"/>
      <point x="68" y="12" type="curve" smooth="yes"/>
      <point x="74" y="12"/>
      <point x="79" y="7"/>
      <point x="79" y="1" type="curve" smooth="yes"/>
      <point x="79" y="-5"/>
      <point x="74" y="-10"/>
      <point x="68" y="-10" type="curve" smooth="yes"/>
      <point x="62" y="-10"/>
      <point x="57" y="-5"/>
    </contour>
  </outline>
</glyph>
<glyph name="slash" format="1">
  <advance width="446"/>
  <unicode hex="002F"/>
  <outline>
    <contour>
      <point x="607" y="699" type="line"/>
      <point x="619" y="698" type="line"/>
      <point x="-81" y="-149" type="line"/>
      <point x="-93" y="-148" type="line"/>
    </contour>
  </outline>
</glyph>
<glyph name="four" format="1">
  <advance width="520"/>
  <unicode hex="0034"/>
  <outline>
    <contour>
      <point x="17" y="141" type="line"/>
      <point x="569" y="699" type="line"/>
      <point x="571" y="699" type="line"/>
      <point x="329" y="0" type="line"/>
      <point x="319" y="0" type="line"/>
      <point x="369" y="142" type="line"/>
      <point x="370" y="147" type="line"/>
      <point x="548" y="663" type="line"/>
      <point x="39" y="151" type="line"/>
      <point x="374" y="150" type="line"/>
      <point x="377" y="150" type="line"/>
      <point x="484" y="150" type="line"/>
      <point x="481" y="140" type="line"/>
    </contour>
  </outline>
</glyph>
<glyph name="six" format="1">
  <advance width="504"/>
  <unicode hex="0036"/>
  <outline>
    <contour>
      <point x="90" y="220" type="curve" smooth="yes"/>
      <point x="58" y="119"/>
      <point x="96" y="2"/>
      <point x="217" y="1" type="curve" smooth="yes"/>
      <point x="340" y="0"/>
      <point x="448" y="107"/>
      <point x="482" y="220" type="curve" smooth="yes"/>
      <point x="510" y="313"/>
      <point x="471" y="423"/>
      <point x="361" y="426" type="curve" smooth="yes"/>
      <point x="240" y="429"/>
      <point x="126" y="331"/>
    </contour>
    <contour>
      <point x="492" y="698" type="line"/>
      <point x="505" y="698" type="line"/>
      <point x="169" y="354" type="line"/>
      <point x="167" y="356" type="line"/>
      <point x="223" y="400"/>
      <point x="287" y="439"/>
      <point x="361" y="437" type="curve" smooth="yes"/>
      <point x="477" y="434"/>
      <point x="520" y="320"/>
      <point x="491" y="220" type="curve" smooth="yes"/>
      <point x="457" y="101"/>
      <point x="346" y="-10"/>
      <point x="216" y="-9" type="curve" smooth="yes"/>
      <point x="87" y="-8"/>
      <point x="46" y="111"/>
      <point x="80" y="220" type="curve" smooth="yes"/>
      <point x="99" y="280"/>
      <point x="138" y="333"/>
      <point x="181" y="379" type="curve" smooth="yes"/>
    </contour>
  </outline>
</glyph>
<glyph name="seven" format="1">
  <advance width="484"/>
  <unicode hex="0037"/>
  <outline>
    <contour>
      <point x="211" y="690" type="line"/>
      <point x="214" y="700" type="line"/>
      <point x="658" y="699" type="line"/>
      <point x="92" y="0" type="line"/>
      <point x="81" y="0" type="line"/>
      <point x="638" y="689" type="line"/>
    </contour>
  </outline>
</glyph>
<glyph name="eight" format="1">
  <advance width="485"/>
  <unicode hex="0038"/>
  <outline>
    <contour>
      <point x="210" y="541" type="curve" smooth="yes"/>
      <point x="239" y="629"/>
      <point x="335" y="710"/>
      <point x="430" y="709" type="curve" smooth="yes"/>
      <point x="522" y="708"/>
      <point x="564" y="621"/>
      <point x="537" y="540" type="curve" smooth="yes"/>
      <point x="508" y="453"/>
      <point x="410" y="368"/>
      <point x="315" y="369" type="curve" smooth="yes"/>
      <point x="223" y="370"/>
      <point x="184" y="461"/>
    </contour>
    <contour>
      <point x="219" y="541" type="curve" smooth="yes"/>
      <point x="195" y="469"/>
      <point x="230" y="378"/>
      <point x="315" y="376" type="curve" smooth="yes"/>
      <point x="404" y="374"/>
      <point x="499" y="461"/>
      <point x="527" y="541" type="curve" smooth="yes"/>
      <point x="554" y="617"/>
      <point x="516" y="698"/>
      <point x="429" y="699" type="curve" smooth="yes"/>
      <point x="339" y="700"/>
      <point x="247" y="624"/>
    </contour>
    <contour>
      <point x="69" y="185" type="curve" smooth="yes"/>
      <point x="103" y="282"/>
      <point x="208" y="372"/>
      <point x="314" y="371" type="curve" smooth="yes"/>
      <point x="416" y="370"/>
      <point x="463" y="276"/>
      <point x="434" y="185" type="curve" smooth="yes"/>
      <point x="401" y="81"/>
      <point x="298" y="-10"/>
      <point x="186" y="-9" type="curve" smooth="yes"/>
      <point x="75" y="-8"/>
      <point x="36" y="90"/>
    </contour>
    <contour>
      <point x="79" y="185" type="curve" smooth="yes"/>
      <point x="47" y="96"/>
      <point x="82" y="2"/>
      <point x="187" y="1" type="curve" smooth="yes"/>
      <point x="293" y="0"/>
      <point x="392" y="87"/>
      <point x="424" y="185" type="curve" smooth="yes"/>
      <point x="452" y="269"/>
      <point x="411" y="363"/>
      <point x="314" y="364" type="curve" smooth="yes"/>
      <point x="213" y="365"/>
      <point x="112" y="277"/>
    </contour>
  </outline>
</glyph>
<glyph name="semicolon" format="1">
  <advance width="259"/>
  <unicode hex="003B"/>
  <outline>
    <contour>
      <point x="204" y="349" type="curve" smooth="yes"/>
      <point x="204" y="355"/>
      <point x="209" y="360"/>
      <point x="215" y="360" type="curve" smooth="yes"/>
      <point x="221" y="360"/>
      <point x="226" y="355"/>
      <point x="226" y="349" type="curve" smooth="yes"/>
      <point x="226" y="343"/>
      <point x="221" y="338"/>
      <point x="215" y="338" type="curve" smooth="yes"/>
      <point x="209" y="338"/>
      <point x="204" y="343"/>
    </contour>
    <contour>
      <point x="144" y="92" type="line"/>
      <point x="153" y="87" type="line"/>
      <point x="-39" y="-159" type="line"/>
      <point x="-45" y="-157" type="line"/>
    </contour>
  </outline>
</glyph>
<glyph name="greater" format="1">
  <advance width="602"/>
  <unicode hex="003E"/>
  <outline>
    <contour>
      <point x="559" y="258" type="line"/>
      <point x="163" y="460" type="line"/>
      <point x="167" y="469" type="line"/>
      <point x="576" y="261" type="line"/>
      <point x="574" y="255" type="line"/>
      <point x="22" y="46" type="line"/>
      <point x="25" y="56" type="line"/>
    </contour>
  </outline>
</glyph>
<glyph name="at" format="1">
  <advance width="770"/>
  <unicode hex="0040"/>
  <outline>
    <contour>
      <point x="272" y="320" type="curve" smooth="yes"/>
      <point x="257" y="234"/>
      <point x="299" y="174"/>
      <point x="369" y="174" type="curve" smooth="yes"/>
      <point x="454" y="174"/>
      <point x="536" y="264"/>
      <point x="555" y="370" type="curve" smooth="yes"/>
      <point x="568" y="446"/>
      <point x="539" y="517"/>
      <point x="469" y="517" type="curve" smooth="yes"/>
      <point x="389" y="517"/>
      <point x="295" y="451"/>
    </contour>
    <contour>
      <point x="261" y="320" type="curve" smooth="yes"/>
      <point x="286" y="459"/>
      <point x="386" y="528"/>
      <point x="471" y="528" type="curve" smooth="yes"/>
      <point x="546" y="528"/>
      <point x="581" y="456"/>
      <point x="565" y="367" type="curve" smooth="yes"/>
      <point x="546" y="258"/>
      <point x="454" y="163"/>
      <point x="369" y="163" type="curve" smooth="yes"/>
      <point x="294" y="163"/>
      <point x="244" y="221"/>
    </contour>
    <contour>
      <point x="91" y="320" type="curve" smooth="yes"/>
      <point x="130" y="539"/>
      <point x="316" y="708"/>
      <point x="540" y="708" type="curve" smooth="yes"/>
      <point x="744" y="708"/>
      <point x="832" y="549"/>
      <point x="804" y="390" type="curve" smooth="yes"/>
      <point x="776" y="229"/>
      <point x="658" y="152"/>
      <point x="583" y="152" type="curve" smooth="yes"/>
      <point x="522" y="152"/>
      <point x="504" y="204"/>
      <point x="533" y="290" type="curve"/>
      <point x="531" y="290" type="line"/>
      <point x="612" y="520" type="line"/>
      <point x="624" y="520" type="line"/>
      <point x="542" y="289" type="line" smooth="yes"/>
      <point x="540" y="282"/>
      <point x="535" y="262"/>
      <point x="534" y="254" type="curve" smooth="yes"/>
      <point x="528" y="220"/>
      <point x="526" y="163"/>
      <point x="585" y="163" type="curve" smooth="yes"/>
      <point x="658" y="163"/>
      <point x="767" y="244"/>
      <point x="793" y="390" type="curve" smooth="yes"/>
      <point x="820" y="543"/>
      <point x="736" y="697"/>
      <point x="538" y="697" type="curve" smooth="yes"/>
      <point x="319" y="697"/>
      <point x="140" y="536"/>
      <point x="102" y="320" type="curve" smooth="yes"/>
      <point x="68" y="127"/>
      <point x="160" y="3"/>
      <point x="356" y="3" type="curve" smooth="yes"/>
      <point x="465" y="3"/>
      <point x="548" y="32"/>
      <point x="608" y="61" type="curve"/>
      <point x="612" y="51" type="line"/>
      <point x="547" y="22"/>
      <point x="468" y="-8"/>
      <point x="354" y="-8" type="curve" smooth="yes"/>
      <point x="150" y="-8"/>
      <point x="56" y="121"/>
    </contour>
  </outline>
</glyph>
<glyph name="F" format="1">
  <advance width="450"/>
  <unicode hex="0046"/>
  <outline>
    <contour>
      <point x="214" y="689" type="line"/>
      <point x="216" y="700" type="line"/>
      <point x="513" y="700" type="line"/>
      <point x="511" y="689" type="line"/>
    </contour>
    <contour>
      <point x="159" y="373" type="line"/>
      <point x="161" y="383" type="line"/>
      <point x="448" y="383" type="line"/>
      <point x="446" y="373" type="line"/>
    </contour>
    <contour>
      <point x="213" y="700" type="line"/>
      <point x="224" y="700" type="line"/>
      <point x="101" y="0" type="line"/>
      <point x="90" y="0" type="line"/>
    </contour>
  </outline>
</glyph>
<glyph name="H" format="1">
  <advance width="647"/>
  <unicode hex="0048"/>
  <outline>
    <contour>
      <point x="159" y="377" type="line"/>
      <point x="161" y="387" type="line"/>
      <point x="621" y="387" type="line"/>
      <point x="619" y="377" type="line"/>
    </contour>
    <contour>
      <point x="669" y="700" type="line"/>
      <point x="680" y="700" type="line"/>
      <point x="557" y="0" type="line"/>
      <point x="546" y="0" type="line"/>
    </contour>
    <contour>
      <point x="213" y="700" type="line"/>
      <point x="224" y="700" type="line"/>
      <point x="101" y="0" type="line"/>
      <point x="90" y="0" type="line"/>
    </contour>
  </outline>
</glyph>
<glyph name="J" format="1">
  <advance width="185"/>
  <unicode hex="004A"/>
  <outline>
    <contour>
      <point x="-229" y="-159" type="line"/>
      <point x="-206" y="-186"/>
      <point x="-181" y="-207"/>
      <point x="-143" y="-208" type="curve" smooth="yes"/>
      <point x="-52" y="-211"/>
      <point x="-8" y="-124"/>
      <point x="19" y="-50" type="curve" smooth="yes"/>
      <point x="276" y="699" type="line"/>
      <point x="287" y="699" type="line"/>
      <point x="27" y="-60" type="line" smooth="yes"/>
      <point x="-1" y="-137"/>
      <point x="-50" y="-222"/>
      <point x="-143" y="-219" type="curve" smooth="yes"/>
      <point x="-185" y="-218"/>
      <point x="-213" y="-196"/>
      <point x="-237" y="-165" type="curve"/>
    </contour>
  </outline>
</glyph>
<glyph name="L" format="1">
  <advance width="430"/>
  <unicode hex="004C"/>
  <outline>
    <contour>
      <point x="97" y="0" type="line"/>
      <point x="99" y="10" type="line"/>
      <point x="412" y="10" type="line"/>
      <point x="410" y="0" type="line"/>
    </contour>
    <contour>
      <point x="213" y="700" type="line"/>
      <point x="223" y="700" type="line"/>
      <point x="100" y="0" type="line"/>
      <point x="90" y="0" type="line"/>
    </contour>
  </outline>
</glyph>
<glyph name="M" format="1">
  <advance width="780"/>
  <unicode hex="004D"/>
  <outline>
    <contour>
      <point x="311" y="674" type="line"/>
      <point x="11" y="0" type="line"/>
      <point x="1" y="0" type="line"/>
      <point x="318" y="715" type="line"/>
      <point x="380" y="132" type="line"/>
      <point x="846" y="716" type="line"/>
      <point x="669" y="0" type="line"/>
      <point x="659" y="0" type="line"/>
      <point x="825" y="672" type="line"/>
      <point x="372" y="104" type="line"/>
    </contour>
  </outline>
</glyph>
<glyph name="T" format="1">
  <advance width="431"/>
  <unicode hex="0054"/>
  <outline>
    <contour>
      <point x="141" y="689" type="line"/>
      <point x="143" y="700" type="line"/>
      <point x="534" y="700" type="line"/>
      <point x="532" y="689" type="line"/>
      <point x="342" y="689" type="line"/>
      <point x="221" y="0" type="line"/>
      <point x="210" y="0" type="line"/>
      <point x="331" y="689" type="line"/>
    </contour>
  </outline>
</glyph>
<glyph name="V" format="1">
  <advance width="600"/>
  <unicode hex="0056"/>
  <outline>
    <contour>
      <point x="303" y="15" type="line"/>
      <point x="695" y="700" type="line"/>
      <point x="708" y="700" type="line"/>
      <point x="297" y="-15" type="line"/>
      <point x="138" y="700" type="line"/>
      <point x="151" y="700" type="line"/>
    </contour>
  </outline>
</glyph>
<glyph name="bracketleft" format="1">
  <advance width="244"/>
  <unicode hex="005B"/>
  <outline>
    <contour>
      <point x="308" y="769" type="line"/>
      <point x="6" y="-209" type="line"/>
      <point x="127" y="-209" type="line"/>
      <point x="124" y="-220" type="line"/>
      <point x="-9" y="-220" type="line"/>
      <point x="300" y="780" type="line"/>
      <point x="432" y="780" type="line"/>
      <point x="429" y="769" type="line"/>
    </contour>
  </outline>
</glyph>
<glyph name="backslash" format="1">
  <advance width="409"/>
  <unicode hex="005C"/>
  <outline>
    <contour>
      <point x="199" y="700" type="line"/>
      <point x="211" y="700" type="line"/>
      <point x="341" y="0" type="line"/>
      <point x="329" y="0" type="line"/>
    </contour>
  </outline>
</glyph>
<glyph name="bracketright" format="1">
  <advance width="260"/>
  <unicode hex="005D"/>
  <outline>
    <contour>
      <point x="112" y="-209" type="line"/>
      <point x="285" y="769" type="line"/>
      <point x="156" y="769" type="line"/>
      <point x="158" y="780" type="line"/>
      <point x="298" y="780" type="line"/>
      <point x="121" y="-220" type="line"/>
      <point x="-19" y="-220" type="line"/>
      <point x="-17" y="-209" type="line"/>
    </contour>
  </outline>
</glyph>
<glyph name="grave" format="1">
  <advance width="332"/>
  <unicode hex="0060"/>
  <outline>
    <contour>
      <point x="272" y="692" type="line"/>
      <point x="281" y="699" type="line"/>
      <point x="394" y="540" type="line"/>
      <point x="389" y="536" type="line"/>
    </contour>
  </outline>
</glyph>
<glyph name="c" format="1">
  <advance width="459"/>
  <unicode hex="0063"/>
  <outline>
    <contour>
      <point x="83" y="230" type="curve" smooth="yes"/>
      <point x="50" y="123"/>
      <point x="96" y="2"/>
      <point x="222" y="1" type="curve" smooth="yes"/>
      <point x="283" y="1"/>
      <point x="338" y="27"/>
      <point x="388" y="59" type="curve"/>
      <point x="384" y="47" type="line"/>
      <point x="335" y="15"/>
      <point x="281" y="-9"/>
      <point x="221" y="-9" type="curve" smooth="yes"/>
      <point x="89" y="-9"/>
      <point x="40" y="117"/>
      <point x="74" y="230" type="curve" smooth="yes"/>
      <point x="111" y="354"/>
      <point x="231" y="470"/>
      <point x="366" y="469" type="curve" smooth="yes"/>
      <point x="418" y="469"/>
      <point x="461" y="449"/>
      <point x="496" y="412" type="curve"/>
      <point x="492" y="400" type="line"/>
      <point x="459" y="439"/>
      <point x="417" y="459"/>
      <point x="365" y="459" type="curve" smooth="yes"/>
      <point x="236" y="459"/>
      <point x="120" y="348"/>
    </contour>
  </outline>
</glyph>
<glyph name="e" format="1">
  <advance width="502"/>
  <unicode hex="0065"/>
  <outline>
    <contour>
      <point x="92" y="228" type="line"/>
      <point x="94" y="238" type="line"/>
      <point x="493" y="238" type="line"/>
      <point x="495" y="228" type="line"/>
    </contour>
    <contour>
      <point x="491" y="253" type="line" smooth="yes"/>
      <point x="512" y="372"/>
      <point x="436" y="460"/>
      <point x="336" y="460" type="curve" smooth="yes"/>
      <point x="233" y="460"/>
      <point x="121" y="375"/>
      <point x="96" y="232" type="curve"/>
      <point x="96" y="232" type="line"/>
      <point x="73" y="100"/>
      <point x="141" y="0"/>
      <point x="250" y="0" type="curve" smooth="yes"/>
      <point x="368" y="0"/>
      <point x="422" y="64"/>
      <point x="461" y="113" type="curve"/>
      <point x="468" y="107" type="line"/>
      <point x="430" y="59"/>
      <point x="373" y="-10"/>
      <point x="248" y="-10" type="curve" smooth="yes"/>
      <point x="133" y="-10"/>
      <point x="61" y="93"/>
      <point x="86" y="232" type="curve" smooth="yes"/>
      <point x="91" y="259"/>
      <point x="98" y="284"/>
      <point x="109" y="308" type="curve" smooth="yes"/>
      <point x="153" y="403"/>
      <point x="240" y="470"/>
      <point x="338" y="470" type="curve" smooth="yes"/>
      <point x="443" y="470"/>
      <point x="524" y="379"/>
      <point x="502" y="254" type="curve" smooth="yes"/>
      <point x="501" y="246"/>
      <point x="497" y="236"/>
      <point x="495" y="228" type="curve"/>
      <point x="487" y="230" type="line"/>
    </contour>
  </outline>
</glyph>
<glyph name="f" format="1">
  <advance width="278"/>
  <unicode hex="0066"/>
  <outline>
    <contour>
      <point x="131" y="460" type="line"/>
      <point x="326" y="460" type="line"/>
      <point x="324" y="450" type="line"/>
      <point x="129" y="450" type="line"/>
    </contour>
    <contour>
      <point x="410" y="733" type="line"/>
      <point x="398" y="753"/>
      <point x="377" y="778"/>
      <point x="340" y="778" type="curve" smooth="yes"/>
      <point x="260" y="778"/>
      <point x="230" y="706"/>
      <point x="220" y="650" type="curve" smooth="yes"/>
      <point x="105" y="0" type="line"/>
      <point x="95" y="0" type="line"/>
      <point x="210" y="650" type="line" smooth="yes"/>
      <point x="222" y="719"/>
      <point x="258" y="788"/>
      <point x="342" y="788" type="curve" smooth="yes"/>
      <point x="385" y="788"/>
      <point x="407" y="760"/>
      <point x="418" y="740" type="curve"/>
    </contour>
  </outline>
</glyph>
<glyph name="i" format="1">
  <advance width="178"/>
  <unicode hex="0069"/>
  <outline>
    <contour>
      <point x="263" y="695" type="curve" smooth="yes"/>
      <point x="263" y="701"/>
      <point x="267" y="705"/>
      <point x="273" y="705" type="curve" smooth="yes"/>
      <point x="279" y="705"/>
      <point x="283" y="701"/>
      <point x="283" y="695" type="curve" smooth="yes"/>
      <point x="283" y="689"/>
      <point x="279" y="685"/>
      <point x="273" y="685" type="curve" smooth="yes"/>
      <point x="267" y="685"/>
      <point x="263" y="689"/>
    </contour>
    <contour>
      <point x="189" y="459" type="line"/>
      <point x="199" y="459" type="line"/>
      <point x="39" y="0" type="line"/>
      <point x="29" y="0" type="line"/>
    </contour>
  </outline>
</glyph>
<glyph name="k" format="1">
  <advance width="350"/>
  <unicode hex="006B"/>
  <outline>
    <contour>
      <point x="288" y="779" type="line"/>
      <point x="298" y="779" type="line"/>
      <point x="29" y="0" type="line"/>
      <point x="20" y="0" type="line"/>
    </contour>
    <contour>
      <point x="411" y="458" type="line"/>
      <point x="427" y="458" type="line"/>
      <point x="132" y="269" type="line"/>
      <point x="286" y="0" type="line"/>
      <point x="275" y="0" type="line"/>
      <point x="121" y="271" type="line"/>
    </contour>
  </outline>
</glyph>
<glyph name="l" format="1">
  <advance width="169"/>
  <unicode hex="006C"/>
  <outline>
    <contour>
      <point x="293" y="779" type="line"/>
      <point x="303" y="779" type="line"/>
      <point x="34" y="0" type="line"/>
      <point x="24" y="0" type="line"/>
    </contour>
  </outline>
</glyph>
<glyph name="m" format="1">
  <advance width="649"/>
  <unicode hex="006D"/>
  <outline>
    <contour>
      <point x="375" y="320" type="line" smooth="yes"/>
      <point x="391" y="372"/>
      <point x="403" y="456"/>
      <point x="327" y="459" type="curve" smooth="yes"/>
      <point x="233" y="463"/>
      <point x="165" y="354"/>
      <point x="129" y="282" type="curve"/>
      <point x="124" y="282" type="line"/>
      <point x="160" y="359"/>
      <point x="228" y="473"/>
      <point x="328" y="469" type="curve" smooth="yes"/>
      <point x="411" y="466"/>
      <point x="403" y="378"/>
      <point x="385" y="320" type="curve" smooth="yes"/>
      <point x="274" y="0" type="line"/>
      <point x="264" y="0" type="line"/>
    </contour>
    <contour>
      <point x="194" y="459" type="line"/>
      <point x="34" y="0" type="line"/>
      <point x="24" y="0" type="line"/>
      <point x="184" y="459" type="line"/>
    </contour>
    <contour>
      <point x="625" y="320" type="curve" smooth="yes"/>
      <point x="514" y="0" type="line"/>
      <point x="504" y="0" type="line"/>
      <point x="615" y="320" type="line" smooth="yes"/>
      <point x="631" y="372"/>
      <point x="643" y="456"/>
      <point x="567" y="459" type="curve" smooth="yes"/>
      <point x="473" y="463"/>
      <point x="405" y="354"/>
      <point x="369" y="282" type="curve"/>
      <point x="362" y="282" type="line"/>
      <point x="399" y="360"/>
      <point x="468" y="473"/>
      <point x="568" y="469" type="curve" smooth="yes"/>
      <point x="651" y="466"/>
      <point x="643" y="378"/>
    </contour>
  </outline>
</glyph>
<glyph name="o" format="1">
  <advance width="523"/>
  <unicode hex="006F"/>
  <outline>
    <contour>
      <point x="78" y="230" type="curve" smooth="yes"/>
      <point x="115" y="354"/>
      <point x="236" y="470"/>
      <point x="371" y="469" type="curve" smooth="yes"/>
      <point x="503" y="468"/>
      <point x="552" y="343"/>
      <point x="518" y="230" type="curve" smooth="yes"/>
      <point x="481" y="106"/>
      <point x="360" y="-10"/>
      <point x="225" y="-9" type="curve" smooth="yes"/>
      <point x="93" y="-8"/>
      <point x="44" y="117"/>
    </contour>
    <contour>
      <point x="88" y="230" type="curve" smooth="yes"/>
      <point x="55" y="123"/>
      <point x="100" y="2"/>
      <point x="226" y="1" type="curve" smooth="yes"/>
      <point x="355" y="0"/>
      <point x="472" y="112"/>
      <point x="508" y="230" type="curve" smooth="yes"/>
      <point x="541" y="337"/>
      <point x="496" y="458"/>
      <point x="370" y="459" type="curve" smooth="yes"/>
      <point x="241" y="460"/>
      <point x="124" y="348"/>
    </contour>
  </outline>
</glyph>
<glyph name="p" format="1">
  <advance width="509"/>
  <unicode hex="0070"/>
  <outline>
    <contour>
      <point x="-46" y="-219" type="line"/>
      <point x="-56" y="-219" type="line"/>
      <point x="179" y="459" type="line"/>
      <point x="189" y="459" type="line"/>
    </contour>
    <contour>
      <point x="492" y="230" type="curve" smooth="yes"/>
      <point x="453" y="114"/>
      <point x="343" y="-12"/>
      <point x="210" y="-9" type="curve" smooth="yes"/>
      <point x="84" y="-6"/>
      <point x="73" y="136"/>
      <point x="104" y="230" type="curve" smooth="yes"/>
      <point x="141" y="340"/>
      <point x="244" y="468"/>
      <point x="371" y="469" type="curve" smooth="yes"/>
      <point x="504" y="470"/>
      <point x="526" y="332"/>
    </contour>
    <contour>
      <point x="482" y="230" type="curve" smooth="yes"/>
      <point x="515" y="327"/>
      <point x="495" y="461"/>
      <point x="367" y="459" type="curve" smooth="yes"/>
      <point x="247" y="457"/>
      <point x="145" y="335"/>
      <point x="109" y="230" type="curve" smooth="yes"/>
      <point x="79" y="142"/>
      <point x="90" y="5"/>
      <point x="208" y="1" type="curve" smooth="yes"/>
      <point x="335" y="-4"/>
      <point x="444" y="119"/>
    </contour>
  </outline>
</glyph>
<glyph name="r" format="1">
  <advance width="290"/>
  <unicode hex="0072"/>
  <outline>
    <contour>
      <point x="176" y="460" type="line"/>
      <point x="95" y="0" type="line"/>
      <point x="85" y="0" type="line"/>
      <point x="166" y="460" type="line"/>
    </contour>
    <contour>
      <point x="347" y="440" type="line"/>
      <point x="332" y="452"/>
      <point x="313" y="460"/>
      <point x="293" y="460" type="curve" smooth="yes"/>
      <point x="213" y="460"/>
      <point x="161" y="376"/>
      <point x="144" y="280" type="curve"/>
      <point x="139" y="280" type="line"/>
      <point x="158" y="389"/>
      <point x="210" y="470"/>
      <point x="295" y="470" type="curve" smooth="yes"/>
      <point x="318" y="470"/>
      <point x="339" y="460"/>
      <point x="354" y="448" type="curve"/>
    </contour>
  </outline>
</glyph>
<glyph name="w" format="1">
  <advance width="583"/>
  <unicode hex="0077"/>
  <outline>
    <contour>
      <point x="118" y="460" type="line"/>
      <point x="127" y="460" type="line"/>
      <point x="103" y="20" type="line"/>
      <point x="396" y="476" type="line"/>
      <point x="381" y="19" type="line"/>
      <point x="664" y="459" type="line"/>
      <point x="674" y="459" type="line"/>
      <point x="370" y="-16" type="line"/>
      <point x="385" y="440" type="line"/>
      <point x="91" y="-16" type="line"/>
    </contour>
  </outline>
</glyph>
<glyph name="z" format="1">
  <advance width="404"/>
  <unicode hex="007A"/>
  <outline>
    <contour>
      <point x="455" y="449" type="line"/>
      <point x="137" y="449" type="line"/>
      <point x="140" y="459" type="line"/>
      <point x="480" y="459" type="line"/>
      <point x="-12" y="11" type="line"/>
      <point x="335" y="11" type="line"/>
      <point x="332" y="0" type="line"/>
      <point x="-37" y="0" type="line"/>
    </contour>
  </outline>
</glyph>
<glyph name="braceleft" format="1">
  <advance width="281"/>
  <unicode hex="007B"/>
  <outline>
    <contour>
      <point x="261" y="640" type="curve" smooth="yes"/>
      <point x="224" y="430" type="line" smooth="yes"/>
      <point x="208" y="341"/>
      <point x="160" y="288"/>
      <point x="131" y="288" type="curve"/>
      <point x="131" y="292" type="line"/>
      <point x="160" y="292"/>
      <point x="190" y="239"/>
      <point x="174" y="150" type="curve" smooth="yes"/>
      <point x="137" y="-60" type="line" smooth="yes"/>
      <point x="120" y="-156"/>
      <point x="132" y="-190"/>
      <point x="197" y="-190" type="curve" smooth="yes"/>
      <point x="217" y="-190" type="line"/>
      <point x="216" y="-200" type="line"/>
      <point x="196" y="-200" type="line" smooth="yes"/>
      <point x="122" y="-200"/>
      <point x="110" y="-159"/>
      <point x="127" y="-60" type="curve" smooth="yes"/>
      <point x="164" y="150" type="line" smooth="yes"/>
      <point x="177" y="226"/>
      <point x="158" y="275"/>
      <point x="130" y="285" type="curve"/>
      <point x="132" y="295" type="line"/>
      <point x="164" y="305"/>
      <point x="201" y="354"/>
      <point x="214" y="430" type="curve" smooth="yes"/>
      <point x="251" y="640" type="line" smooth="yes"/>
      <point x="268" y="739"/>
      <point x="295" y="780"/>
      <point x="369" y="780" type="curve" smooth="yes"/>
      <point x="389" y="780" type="line"/>
      <point x="387" y="770" type="line"/>
      <point x="367" y="770" type="line" smooth="yes"/>
      <point x="302" y="770"/>
      <point x="278" y="736"/>
    </contour>
  </outline>
</glyph>
<glyph name="bar" format="1">
  <advance width="210"/>
  <unicode hex="007C"/>
  <outline>
    <contour>
      <point x="238" y="785" type="line"/>
      <point x="248" y="785" type="line"/>
      <point x="72" y="-215" type="line"/>
      <point x="62" y="-215" type="line"/>
    </contour>
  </outline>
</glyph>
<glyph name="braceright" format="1">
  <advance width="281"/>
  <unicode hex="007D"/>
  <outline>
    <contour>
      <point x="122" y="-60" type="curve" smooth="yes"/>
      <point x="159" y="150" type="line" smooth="yes"/>
      <point x="175" y="239"/>
      <point x="223" y="292"/>
      <point x="252" y="292" type="curve"/>
      <point x="252" y="288" type="line"/>
      <point x="223" y="288"/>
      <point x="193" y="341"/>
      <point x="209" y="430" type="curve" smooth="yes"/>
      <point x="246" y="640" type="line" smooth="yes"/>
      <point x="263" y="736"/>
      <point x="251" y="770"/>
      <point x="186" y="770" type="curve" smooth="yes"/>
      <point x="166" y="770" type="line"/>
      <point x="168" y="780" type="line"/>
      <point x="188" y="780" type="line" smooth="yes"/>
      <point x="262" y="780"/>
      <point x="273" y="739"/>
      <point x="256" y="640" type="curve" smooth="yes"/>
      <point x="219" y="430" type="line" smooth="yes"/>
      <point x="206" y="354"/>
      <point x="225" y="305"/>
      <point x="253" y="295" type="curve"/>
      <point x="251" y="285" type="line"/>
      <point x="219" y="275"/>
      <point x="182" y="226"/>
      <point x="169" y="150" type="curve" smooth="yes"/>
      <point x="132" y="-60" type="line" smooth="yes"/>
      <point x="115" y="-159"/>
      <point x="89" y="-200"/>
      <point x="15" y="-200" type="curve" smooth="yes"/>
      <point x="-5" y="-200" type="line"/>
      <point x="-4" y="-190" type="line"/>
      <point x="16" y="-190" type="line" smooth="yes"/>
      <point x="81" y="-190"/>
      <point x="105" y="-156"/>
    </contour>
  </outline>
</glyph>
<glyph name="asciitilde" format="1">
  <advance width="575"/>
  <unicode hex="007E"/>
  <outline>
    <contour>
      <point x="119" y="178" type="curve"/>
      <point x="110" y="181" type="line"/>
      <point x="109" y="188"/>
      <point x="109" y="196"/>
      <point x="111" y="205" type="curve" smooth="yes"/>
      <point x="117" y="238"/>
      <point x="130" y="268"/>
      <point x="152" y="290" type="curve" smooth="yes"/>
      <point x="175" y="313"/>
      <point x="206" y="327"/>
      <point x="242" y="327" type="curve" smooth="yes"/>
      <point x="301" y="327"/>
      <point x="325" y="282"/>
      <point x="346" y="250" type="curve" smooth="yes"/>
      <point x="365" y="221"/>
      <point x="388" y="182"/>
      <point x="436" y="182" type="curve" smooth="yes"/>
      <point x="495" y="182"/>
      <point x="531" y="228"/>
      <point x="542" y="290" type="curve" smooth="yes"/>
      <point x="543" y="298"/>
      <point x="545" y="311"/>
      <point x="543" y="321" type="curve"/>
      <point x="552" y="318" type="line"/>
      <point x="553" y="310"/>
      <point x="553" y="300"/>
      <point x="551" y="290" type="curve" smooth="yes"/>
      <point x="545" y="258"/>
      <point x="534" y="228"/>
      <point x="514" y="207" type="curve" smooth="yes"/>
      <point x="494" y="185"/>
      <point x="467" y="172"/>
      <point x="434" y="172" type="curve" smooth="yes"/>
      <point x="380" y="172"/>
      <point x="359" y="211"/>
      <point x="337" y="243" type="curve" smooth="yes"/>
      <point x="317" y="271"/>
      <point x="295" y="317"/>
      <point x="240" y="317" type="curve" smooth="yes"/>
      <point x="177" y="317"/>
      <point x="131" y="268"/>
      <point x="119" y="200" type="curve" smooth="yes"/>
      <point x="118" y="193"/>
      <point x="117" y="186"/>
    </contour>
  </outline>
</glyph>
<glyph name="exclamdown" format="1">
  <advance width="282"/>
  <unicode hex="00A1"/>
  <outline>
    <contour>
      <point x="27" y="-244" type="line"/>
      <point x="13" y="-244" type="line"/>
      <point x="190" y="254" type="line"/>
      <point x="196" y="254" type="line"/>
    </contour>
    <contour>
      <point x="270" y="454" type="curve" smooth="yes"/>
      <point x="269" y="450"/>
      <point x="261" y="443"/>
      <point x="256" y="443" type="curve" smooth="yes"/>
      <point x="251" y="443"/>
      <point x="248" y="449"/>
      <point x="249" y="454" type="curve" smooth="yes"/>
      <point x="250" y="458"/>
      <point x="258" y="465"/>
      <point x="263" y="465" type="curve" smooth="yes"/>
      <point x="268" y="465"/>
      <point x="271" y="459"/>
    </contour>
  </outline>
</glyph>
<glyph name="cent" format="1">
  <advance width="545"/>
  <unicode hex="00A2"/>
  <outline>
    <contour>
      <point x="243" y="-5" type="line"/>
      <point x="247" y="-5" type="line"/>
      <point x="212" y="-111" type="line"/>
      <point x="199" y="-111" type="line"/>
    </contour>
    <contour>
      <point x="114" y="230" type="curve" smooth="yes"/>
      <point x="78" y="125"/>
      <point x="119" y="2"/>
      <point x="245" y="1" type="curve" smooth="yes"/>
      <point x="307" y="1"/>
      <point x="362" y="27"/>
      <point x="413" y="59" type="curve"/>
      <point x="409" y="47" type="line"/>
      <point x="359" y="15"/>
      <point x="304" y="-9"/>
      <point x="244" y="-9" type="curve" smooth="yes"/>
      <point x="111" y="-9"/>
      <point x="68" y="119"/>
      <point x="105" y="230" type="curve" smooth="yes"/>
      <point x="147" y="354"/>
      <point x="269" y="469"/>
      <point x="405" y="469" type="curve" smooth="yes"/>
      <point x="456" y="469"/>
      <point x="499" y="450"/>
      <point x="533" y="412" type="curve"/>
      <point x="529" y="400" type="line"/>
      <point x="498" y="440"/>
      <point x="455" y="459"/>
      <point x="404" y="459" type="curve" smooth="yes"/>
      <point x="274" y="459"/>
      <point x="155" y="348"/>
    </contour>
    <contour>
      <point x="437" y="577" type="line"/>
      <point x="451" y="577" type="line"/>
      <point x="404" y="464" type="line"/>
      <point x="400" y="464" type="line"/>
    </contour>
  </outline>
</glyph>
<glyph name="sterling" format="1">
  <advance width="580"/>
  <unicode hex="00A3"/>
  <outline>
    <contour>
      <point x="141" y="305" type="line"/>
      <point x="451" y="305" type="line"/>
      <point x="449" y="295" type="line"/>
      <point x="139" y="295" type="line"/>
    </contour>
    <contour>
      <point x="569" y="498" type="line"/>
      <point x="580" y="577"/>
      <point x="555" y="700"/>
      <point x="434" y="700" type="curve" smooth="yes"/>
      <point x="331" y="700"/>
      <point x="255" y="619"/>
      <point x="241" y="538" type="curve" smooth="yes"/>
      <point x="219" y="415"/>
      <point x="334" y="371"/>
      <point x="315" y="264" type="curve" smooth="yes"/>
      <point x="296" y="158"/>
      <point x="140" y="47"/>
      <point x="108" y="0" type="curve"/>
      <point x="106" y="10" type="line"/>
      <point x="499" y="10" type="line"/>
      <point x="497" y="0" type="line"/>
      <point x="94" y="0" type="line"/>
      <point x="190" y="102"/>
      <point x="289" y="176"/>
      <point x="305" y="264" type="curve" smooth="yes"/>
      <point x="323" y="366"/>
      <point x="209" y="412"/>
      <point x="231" y="538" type="curve" smooth="yes"/>
      <point x="247" y="627"/>
      <point x="327" y="710"/>
      <point x="436" y="710" type="curve" smooth="yes"/>
      <point x="569" y="710"/>
      <point x="588" y="578"/>
      <point x="579" y="498" type="curve"/>
    </contour>
  </outline>
</glyph>
<glyph name="yen" format="1">
  <advance width="565"/>
  <unicode hex="00A5"/>
  <outline>
    <contour>
      <point x="306" y="275" type="line"/>
      <point x="317" y="275" type="line"/>
      <point x="269" y="0" type="line"/>
      <point x="258" y="0" type="line"/>
    </contour>
    <contour>
      <point x="617" y="700" type="line"/>
      <point x="630" y="700" type="line"/>
      <point x="309" y="256" type="line"/>
      <point x="153" y="700" type="line"/>
      <point x="166" y="700" type="line"/>
      <point x="314" y="281" type="line"/>
    </contour>
    <contour>
      <point x="56" y="145" type="line"/>
      <point x="57" y="155" type="line"/>
      <point x="534" y="155" type="line"/>
      <point x="533" y="145" type="line"/>
    </contour>
    <contour>
      <point x="78" y="270" type="line"/>
      <point x="79" y="280" type="line"/>
      <point x="556" y="280" type="line"/>
      <point x="555" y="270" type="line"/>
    </contour>
  </outline>
</glyph>
<glyph name="section" format="1">
  <advance width="374"/>
  <unicode hex="00A7"/>
  <outline>
    <contour>
      <point x="493" y="616" type="line"/>
      <point x="475" y="670"/>
      <point x="435" y="699"/>
      <point x="377" y="699" type="curve" smooth="yes"/>
      <point x="316" y="699"/>
      <point x="234" y="663"/>
      <point x="215" y="599" type="curve" smooth="yes"/>
      <point x="195" y="531"/>
      <point x="273" y="506"/>
      <point x="320" y="483" type="curve" smooth="yes"/>
      <point x="370" y="459"/>
      <point x="435" y="426"/>
      <point x="416" y="359" type="curve" smooth="yes"/>
      <point x="391" y="269"/>
      <point x="297" y="248"/>
      <point x="221" y="241" type="curve"/>
      <point x="220" y="241" type="line"/>
      <point x="289" y="266"/>
      <point x="385" y="282"/>
      <point x="406" y="361" type="curve" smooth="yes"/>
      <point x="422" y="422"/>
      <point x="357" y="454"/>
      <point x="312" y="475" type="curve" smooth="yes"/>
      <point x="260" y="499"/>
      <point x="182" y="526"/>
      <point x="205" y="599" type="curve" smooth="yes"/>
      <point x="227" y="669"/>
      <point x="309" y="709"/>
      <point x="378" y="709" type="curve" smooth="yes"/>
      <point x="440" y="709"/>
      <point x="483" y="679"/>
      <point x="500" y="620" type="curve"/>
    </contour>
    <contour>
      <point x="25" y="127" type="line"/>
      <point x="28" y="53"/>
      <point x="70" y="2"/>
      <point x="147" y="0" type="curve" smooth="yes"/>
      <point x="213" y="-2"/>
      <point x="293" y="33"/>
      <point x="317" y="100" type="curve" smooth="yes"/>
      <point x="342" y="171"/>
      <point x="276" y="206"/>
      <point x="223" y="233" type="curve" smooth="yes"/>
      <point x="174" y="259"/>
      <point x="103" y="292"/>
      <point x="123" y="360" type="curve" smooth="yes"/>
      <point x="149" y="449"/>
      <point x="244" y="470"/>
      <point x="319" y="479" type="curve"/>
      <point x="320" y="479" type="line"/>
      <point x="252" y="455"/>
      <point x="154" y="436"/>
      <point x="133" y="358" type="curve" smooth="yes"/>
      <point x="116" y="294"/>
      <point x="185" y="264"/>
      <point x="231" y="241" type="curve" smooth="yes"/>
      <point x="288" y="212"/>
      <point x="352" y="175"/>
      <point x="327" y="100" type="curve" smooth="yes"/>
      <point x="303" y="27"/>
      <point x="218" y="-10"/>
      <point x="146" y="-9" type="curve" smooth="yes"/>
      <point x="65" y="-8"/>
      <point x="18" y="45"/>
      <point x="16" y="123" type="curve"/>
    </contour>
  </outline>
</glyph>
<glyph name="ordfeminine" format="1">
  <advance width="223"/>
  <unicode hex="00AA"/>
  <outline>
    <contour>
      <point x="154" y="528" type="curve" smooth="yes"/>
      <point x="143" y="494"/>
      <point x="161" y="463"/>
      <point x="197" y="461" type="curve" smooth="yes"/>
      <point x="245" y="459"/>
      <point x="279" y="504"/>
      <point x="303" y="539" type="curve"/>
      <point x="307" y="538" type="line"/>
      <point x="283" y="500"/>
      <point x="248" y="454"/>
      <point x="197" y="456" type="curve" smooth="yes"/>
      <point x="157" y="458"/>
      <point x="137" y="492"/>
      <point x="150" y="529" type="curve" smooth="yes"/>
      <point x="164" y="571"/>
      <point x="218" y="600"/>
      <point x="260" y="599" type="curve" smooth="yes"/>
      <point x="282" y="598"/>
      <point x="298" y="589"/>
      <point x="317" y="578" type="curve"/>
      <point x="315" y="572" type="line"/>
      <point x="297" y="584"/>
      <point x="281" y="594"/>
      <point x="259" y="595" type="curve" smooth="yes"/>
      <point x="219" y="597"/>
      <point x="167" y="568"/>
    </contour>
    <contour>
      <point x="217" y="663" type="curve"/>
      <point x="214" y="667" type="line"/>
      <point x="238" y="681"/>
      <point x="269" y="702"/>
      <point x="299" y="699" type="curve" smooth="yes"/>
      <point x="340" y="694"/>
      <point x="345" y="659"/>
      <point x="337" y="625" type="curve"/>
      <point x="278" y="461" type="line"/>
      <point x="273" y="461" type="line"/>
      <point x="332" y="625" type="line"/>
      <point x="340" y="656"/>
      <point x="338" y="690"/>
      <point x="299" y="694" type="curve" smooth="yes"/>
      <point x="270" y="697"/>
      <point x="240" y="677"/>
    </contour>
  </outline>
</glyph>
<glyph name="guillemotleft" format="1">
  <advance width="485"/>
  <unicode hex="00AB"/>
  <outline>
    <contour>
      <point x="95" y="255" type="line"/>
      <point x="85" y="255" type="line"/>
      <point x="334" y="490" type="line"/>
      <point x="340" y="483" type="line"/>
    </contour>
    <contour>
      <point x="85" y="255" type="line"/>
      <point x="95" y="255" type="line"/>
      <point x="260" y="27" type="line"/>
      <point x="252" y="20" type="line"/>
    </contour>
    <contour>
      <point x="255" y="255" type="line"/>
      <point x="245" y="255" type="line"/>
      <point x="494" y="490" type="line"/>
      <point x="500" y="483" type="line"/>
    </contour>
    <contour>
      <point x="245" y="255" type="line"/>
      <point x="255" y="255" type="line"/>
      <point x="420" y="27" type="line"/>
      <point x="412" y="20" type="line"/>
    </contour>
  </outline>
</glyph>
<glyph name="macron" format="1">
  <advance width="479"/>
  <unicode hex="00AF"/>
  <outline>
    <contour>
      <point x="246" y="665" type="line"/>
      <point x="249" y="675" type="line"/>
      <point x="578" y="675" type="line"/>
      <point x="575" y="665" type="line"/>
    </contour>
  </outline>
</glyph>
<glyph name="degree" format="1">
  <advance width="278"/>
  <unicode hex="00B0"/>
  <outline>
    <contour>
      <point x="126" y="600" type="curve" smooth="yes"/>
      <point x="138" y="670"/>
      <point x="198" y="720"/>
      <point x="266" y="720" type="curve" smooth="yes"/>
      <point x="334" y="720"/>
      <point x="376" y="670"/>
      <point x="364" y="600" type="curve" smooth="yes"/>
      <point x="352" y="530"/>
      <point x="292" y="480"/>
      <point x="224" y="480" type="curve" smooth="yes"/>
      <point x="156" y="480"/>
      <point x="114" y="530"/>
    </contour>
    <contour>
      <point x="136" y="600" type="curve" smooth="yes"/>
      <point x="125" y="535"/>
      <point x="165" y="490"/>
      <point x="225" y="490" type="curve" smooth="yes"/>
      <point x="285" y="490"/>
      <point x="343" y="535"/>
      <point x="354" y="600" type="curve" smooth="yes"/>
      <point x="365" y="665"/>
      <point x="324" y="710"/>
      <point x="264" y="710" type="curve" smooth="yes"/>
      <point x="204" y="710"/>
      <point x="147" y="665"/>
    </contour>
  </outline>
</glyph>
<glyph name="plusminus" format="1">
  <advance width="610"/>
  <unicode hex="00B1"/>
  <outline>
    <contour>
      <point x="65" y="0" type="line"/>
      <point x="67" y="10" type="line"/>
      <point x="547" y="10" type="line"/>
      <point x="545" y="0" type="line"/>
    </contour>
    <contour>
      <point x="132" y="380" type="line"/>
      <point x="134" y="390" type="line"/>
      <point x="614" y="390" type="line"/>
      <point x="612" y="380" type="line"/>
    </contour>
    <contour>
      <point x="409" y="620" type="line"/>
      <point x="419" y="620" type="line"/>
      <point x="336" y="150" type="line"/>
      <point x="326" y="150" type="line"/>
    </contour>
  </outline>
</glyph>
<glyph name="uni00B2" format="1">
  <advance width="332"/>
  <unicode hex="00B2"/>
  <outline>
    <contour>
      <point x="80" y="282" type="line"/>
      <point x="307" y="483" type="line" smooth="yes"/>
      <point x="341" y="514"/>
      <point x="375" y="544"/>
      <point x="384" y="594" type="curve" smooth="yes"/>
      <point x="392" y="641"/>
      <point x="374" y="703"/>
      <point x="296" y="703" type="curve" smooth="yes"/>
      <point x="224" y="703"/>
      <point x="167" y="643"/>
      <point x="152" y="558" type="curve"/>
      <point x="146" y="558" type="line"/>
      <point x="162" y="647"/>
      <point x="222" y="709"/>
      <point x="297" y="709" type="curve" smooth="yes"/>
      <point x="377" y="709"/>
      <point x="399" y="644"/>
      <point x="390" y="594" type="curve" smooth="yes"/>
      <point x="381" y="545"/>
      <point x="346" y="510"/>
      <point x="311" y="479" type="curve" smooth="yes"/>
      <point x="96" y="288" type="line"/>
      <point x="353" y="288" type="line"/>
      <point x="352" y="282" type="line"/>
    </contour>
  </outline>
</glyph>
<glyph name="uni00B3" format="1">
  <advance width="289"/>
  <unicode hex="00B3"/>
  <outline>
    <contour>
      <point x="246" y="498" type="curve"/>
      <point x="248" y="503" type="line"/>
      <point x="308" y="513"/>
      <point x="377" y="537"/>
      <point x="400" y="600" type="curve" smooth="yes"/>
      <point x="418" y="649"/>
      <point x="391" y="697"/>
      <point x="338" y="699" type="curve" smooth="yes"/>
      <point x="273" y="701"/>
      <point x="229" y="649"/>
      <point x="199" y="598" type="curve"/>
      <point x="193" y="598" type="line"/>
      <point x="224" y="653"/>
      <point x="269" y="707"/>
      <point x="338" y="705" type="curve" smooth="yes"/>
      <point x="396" y="703"/>
      <point x="425" y="652"/>
      <point x="406" y="599" type="curve" smooth="yes"/>
      <point x="382" y="532"/>
      <point x="310" y="507"/>
    </contour>
    <contour>
      <point x="189" y="275" type="curve" smooth="yes"/>
      <point x="116" y="276"/>
      <point x="98" y="328"/>
      <point x="108" y="391" type="curve"/>
      <point x="114" y="391" type="line"/>
      <point x="105" y="331"/>
      <point x="118" y="282"/>
      <point x="189" y="281" type="curve" smooth="yes"/>
      <point x="251" y="280"/>
      <point x="319" y="325"/>
      <point x="338" y="385" type="curve" smooth="yes"/>
      <point x="360" y="454"/>
      <point x="305" y="484"/>
      <point x="247" y="495" type="curve"/>
      <point x="248" y="500" type="line"/>
      <point x="310" y="489"/>
      <point x="367" y="457"/>
      <point x="344" y="384" type="curve" smooth="yes"/>
      <point x="324" y="321"/>
      <point x="254" y="274"/>
    </contour>
  </outline>
</glyph>
<glyph name="mu" format="1">
  <advance width="475"/>
  <unicode hex="00B5"/>
  <outline>
    <contour>
      <point x="380" y="0" type="line"/>
      <point x="461" y="460" type="line"/>
      <point x="471" y="460" type="line"/>
      <point x="390" y="0" type="line"/>
    </contour>
    <contour>
      <point x="121" y="150" type="line" smooth="yes"/>
      <point x="105" y="59"/>
      <point x="128" y="0"/>
      <point x="218" y="0" type="curve" smooth="yes"/>
      <point x="309" y="0"/>
      <point x="395" y="85"/>
      <point x="412" y="180" type="curve"/>
      <point x="417" y="180" type="line"/>
      <point x="398" y="71"/>
      <point x="311" y="-10"/>
      <point x="216" y="-10" type="curve" smooth="yes"/>
      <point x="121" y="-10"/>
      <point x="94" y="51"/>
      <point x="111" y="150" type="curve" smooth="yes"/>
      <point x="166" y="460" type="line"/>
      <point x="176" y="460" type="line"/>
    </contour>
    <contour>
      <point x="166" y="460" type="line"/>
      <point x="176" y="460" type="line"/>
      <point x="39" y="-320" type="line"/>
      <point x="29" y="-320" type="line"/>
    </contour>
  </outline>
</glyph>
<glyph name="paragraph" format="1">
  <advance width="421"/>
  <unicode hex="00B6"/>
  <outline>
    <contour>
      <point x="452" y="690" type="line"/>
      <point x="455" y="700" type="line"/>
      <point x="550" y="700" type="line"/>
      <point x="547" y="690" type="line"/>
    </contour>
    <contour>
      <point x="541" y="699" type="line"/>
      <point x="551" y="699" type="line"/>
      <point x="235" y="-219" type="line"/>
      <point x="225" y="-219" type="line"/>
    </contour>
    <contour>
      <point x="455" y="700" type="line"/>
      <point x="467" y="699" type="line"/>
      <point x="150" y="-219" type="line"/>
      <point x="140" y="-219" type="line"/>
    </contour>
    <contour>
      <point x="309" y="270" type="line"/>
      <point x="189" y="284"/>
      <point x="127.021" y="365.993"/>
      <point x="167" y="485" type="curve" smooth="yes"/>
      <point x="210" y="613"/>
      <point x="325" y="701"/>
      <point x="455" y="700" type="curve"/>
    </contour>
  </outline>
</glyph>
<glyph name="periodcentered" format="1">
  <advance width="227"/>
  <unicode hex="00B7"/>
  <outline>
    <contour>
      <point x="124" y="221" type="curve" smooth="yes"/>
      <point x="125" y="225"/>
      <point x="133" y="232"/>
      <point x="138" y="232" type="curve" smooth="yes"/>
      <point x="143" y="232"/>
      <point x="147" y="226"/>
      <point x="146" y="221" type="curve" smooth="yes"/>
      <point x="145" y="217"/>
      <point x="137" y="210"/>
      <point x="132" y="210" type="curve" smooth="yes"/>
      <point x="127" y="210"/>
      <point x="123" y="216"/>
    </contour>
  </outline>
</glyph>
<glyph name="cedilla" format="1">
  <advance width="329"/>
  <unicode hex="00B8"/>
  <outline>
    <contour>
      <point x="112" y="0" type="line"/>
      <point x="124" y="0" type="line"/>
      <point x="43" y="-75" type="line"/>
      <point x="65" y="-65"/>
      <point x="92" y="-50"/>
      <point x="117" y="-53" type="curve" smooth="yes"/>
      <point x="156" y="-57"/>
      <point x="172" y="-91"/>
      <point x="162" y="-127" type="curve" smooth="yes"/>
      <point x="148" y="-180"/>
      <point x="82" y="-220"/>
      <point x="29" y="-219" type="curve" smooth="yes"/>
      <point x="-3" y="-219"/>
      <point x="-22" y="-203"/>
      <point x="-43" y="-182" type="curve"/>
      <point x="-35" y="-176" type="line"/>
      <point x="-16" y="-194"/>
      <point x="3" y="-209"/>
      <point x="31" y="-209" type="curve" smooth="yes"/>
      <point x="79" y="-209"/>
      <point x="139" y="-174"/>
      <point x="153" y="-126" type="curve" smooth="yes"/>
      <point x="162" y="-96"/>
      <point x="148" y="-67"/>
      <point x="115" y="-63" type="curve" smooth="yes"/>
      <point x="86" y="-59"/>
      <point x="55" y="-76"/>
      <point x="29" y="-87" type="curve"/>
    </contour>
  </outline>
</glyph>
<glyph name="ordmasculine" format="1">
  <advance width="278"/>
  <unicode hex="00BA"/>
  <outline>
    <contour>
      <point x="122" y="580" type="curve" smooth="yes"/>
      <point x="134" y="650"/>
      <point x="194" y="700"/>
      <point x="262" y="700" type="curve" smooth="yes"/>
      <point x="330" y="700"/>
      <point x="372" y="650"/>
      <point x="360" y="580" type="curve" smooth="yes"/>
      <point x="348" y="510"/>
      <point x="288" y="460"/>
      <point x="220" y="460" type="curve" smooth="yes"/>
      <point x="152" y="460"/>
      <point x="110" y="510"/>
    </contour>
    <contour>
      <point x="132" y="580" type="curve" smooth="yes"/>
      <point x="121" y="515"/>
      <point x="162" y="470"/>
      <point x="222" y="470" type="curve" smooth="yes"/>
      <point x="282" y="470"/>
      <point x="339" y="515"/>
      <point x="350" y="580" type="curve" smooth="yes"/>
      <point x="361" y="645"/>
      <point x="321" y="690"/>
      <point x="261" y="690" type="curve" smooth="yes"/>
      <point x="201" y="690"/>
      <point x="143" y="645"/>
    </contour>
  </outline>
</glyph>
<glyph name="onequarter" format="1">
  <advance width="709"/>
  <unicode hex="00BC"/>
  <outline>
    <contour>
      <point x="816" y="698" type="line"/>
      <point x="828" y="698" type="line"/>
      <point x="49" y="0" type="line"/>
      <point x="37" y="0" type="line"/>
    </contour>
    <contour>
      <point x="193" y="667" type="line"/>
      <point x="195" y="674" type="line"/>
      <point x="307" y="697" type="line"/>
      <point x="159" y="275" type="line"/>
      <point x="153" y="275" type="line"/>
      <point x="296" y="688" type="line"/>
    </contour>
    <contour>
      <point x="352" y="84" type="line"/>
      <point x="359" y="90" type="line"/>
      <point x="566" y="90" type="line"/>
      <point x="568" y="90" type="line"/>
      <point x="632" y="90" type="line"/>
      <point x="631" y="84" type="line"/>
    </contour>
    <contour>
      <point x="357" y="86" type="line"/>
      <point x="350" y="86" type="line"/>
      <point x="683" y="417" type="line"/>
      <point x="682" y="419" type="line"/>
      <point x="539" y="0" type="line"/>
      <point x="533" y="0" type="line"/>
      <point x="563" y="85" type="line"/>
      <point x="563" y="88" type="line"/>
      <point x="671" y="397" type="line"/>
    </contour>
  </outline>
</glyph>
<glyph name="onehalf" format="1">
  <advance width="819"/>
  <unicode hex="00BD"/>
  <outline>
    <contour>
      <point x="794" y="700" type="line"/>
      <point x="806" y="700" type="line"/>
      <point x="110" y="0" type="line"/>
      <point x="98" y="0" type="line"/>
    </contour>
    <contour>
      <point x="138" y="666" type="line"/>
      <point x="140" y="673" type="line"/>
      <point x="252" y="697" type="line"/>
      <point x="177" y="274" type="line"/>
      <point x="171" y="274" type="line"/>
      <point x="244" y="689" type="line"/>
    </contour>
    <contour>
      <point x="496" y="2" type="line"/>
      <point x="724" y="202" type="line" smooth="yes"/>
      <point x="758" y="233"/>
      <point x="791" y="263"/>
      <point x="800" y="313" type="curve" smooth="yes"/>
      <point x="808" y="360"/>
      <point x="791" y="423"/>
      <point x="713" y="423" type="curve" smooth="yes"/>
      <point x="641" y="423"/>
      <point x="584" y="363"/>
      <point x="569" y="278" type="curve"/>
      <point x="563" y="278" type="line"/>
      <point x="579" y="367"/>
      <point x="639" y="429"/>
      <point x="714" y="429" type="curve" smooth="yes"/>
      <point x="794" y="429"/>
      <point x="816" y="363"/>
      <point x="807" y="313" type="curve" smooth="yes"/>
      <point x="798" y="264"/>
      <point x="763" y="230"/>
      <point x="728" y="199" type="curve" smooth="yes"/>
      <point x="512" y="8" type="line"/>
      <point x="769" y="8" type="line"/>
      <point x="768" y="2" type="line"/>
    </contour>
  </outline>
</glyph>
<glyph name="threequarters" format="1">
  <advance width="771"/>
  <unicode hex="00BE"/>
  <outline>
    <contour>
      <point x="879" y="698" type="line"/>
      <point x="892" y="698" type="line"/>
      <point x="112" y="0" type="line"/>
      <point x="100" y="0" type="line"/>
    </contour>
    <contour>
      <point x="251" y="498" type="curve"/>
      <point x="253" y="503" type="line"/>
      <point x="313" y="513"/>
      <point x="382" y="537"/>
      <point x="405" y="600" type="curve" smooth="yes"/>
      <point x="423" y="649"/>
      <point x="395" y="697"/>
      <point x="342" y="699" type="curve" smooth="yes"/>
      <point x="277" y="701"/>
      <point x="233" y="649"/>
      <point x="203" y="598" type="curve"/>
      <point x="197" y="598" type="line"/>
      <point x="228" y="653"/>
      <point x="274" y="707"/>
      <point x="343" y="705" type="curve" smooth="yes"/>
      <point x="401" y="703"/>
      <point x="430" y="652"/>
      <point x="411" y="599" type="curve" smooth="yes"/>
      <point x="387" y="532"/>
      <point x="315" y="507"/>
    </contour>
    <contour>
      <point x="193" y="275" type="curve" smooth="yes"/>
      <point x="120" y="276"/>
      <point x="102" y="328"/>
      <point x="112" y="391" type="curve"/>
      <point x="118" y="391" type="line"/>
      <point x="109" y="331"/>
      <point x="122" y="282"/>
      <point x="193" y="281" type="curve" smooth="yes"/>
      <point x="255" y="280"/>
      <point x="324" y="325"/>
      <point x="343" y="385" type="curve" smooth="yes"/>
      <point x="365" y="454"/>
      <point x="309" y="484"/>
      <point x="251" y="495" type="curve"/>
      <point x="253" y="500" type="line"/>
      <point x="315" y="489"/>
      <point x="372" y="457"/>
      <point x="349" y="384" type="curve" smooth="yes"/>
      <point x="329" y="321"/>
      <point x="258" y="274"/>
    </contour>
    <contour>
      <point x="415" y="84" type="line"/>
      <point x="422" y="90" type="line"/>
      <point x="629" y="90" type="line"/>
      <point x="631" y="90" type="line"/>
      <point x="695" y="90" type="line"/>
      <point x="694" y="84" type="line"/>
    </contour>
    <contour>
      <point x="421" y="86" type="line"/>
      <point x="413" y="86" type="line"/>
      <point x="746" y="417" type="line"/>
      <point x="745" y="419" type="line"/>
      <point x="602" y="0" type="line"/>
      <point x="596" y="0" type="line"/>
      <point x="626" y="85" type="line"/>
      <point x="627" y="88" type="line"/>
      <point x="734" y="397" type="line"/>
    </contour>
  </outline>
</glyph>
<glyph name="questiondown" format="1">
  <advance width="509"/>
  <unicode hex="00BF"/>
  <outline>
    <contour>
      <point x="92" y="179" type="curve" smooth="yes"/>
      <point x="54" y="88"/>
      <point x="108" y="2"/>
      <point x="206" y="1" type="curve" smooth="yes"/>
      <point x="293" y="0"/>
      <point x="364" y="55"/>
      <point x="425" y="111" type="curve"/>
      <point x="433" y="105" type="line"/>
      <point x="370" y="47"/>
      <point x="295" y="-10"/>
      <point x="205" y="-9" type="curve" smooth="yes"/>
      <point x="97" y="-7"/>
      <point x="48" y="82"/>
      <point x="82" y="180" type="curve" smooth="yes"/>
      <point x="122" y="295"/>
      <point x="245" y="349"/>
      <point x="357" y="363" type="curve"/>
      <point x="416" y="530" type="line"/>
      <point x="423" y="530" type="line"/>
      <point x="370" y="355" type="line"/>
      <point x="370" y="356" type="line"/>
      <point x="185" y="334"/>
      <point x="118" y="241"/>
    </contour>
    <contour>
      <point x="493" y="699" type="curve" smooth="yes"/>
      <point x="492" y="695"/>
      <point x="484" y="688"/>
      <point x="479" y="688" type="curve" smooth="yes"/>
      <point x="474" y="688"/>
      <point x="471" y="694"/>
      <point x="472" y="699" type="curve" smooth="yes"/>
      <point x="473" y="703"/>
      <point x="481" y="710"/>
      <point x="486" y="710" type="curve" smooth="yes"/>
      <point x="491" y="710"/>
      <point x="494" y="704"/>
    </contour>
  </outline>
</glyph>
<glyph name="Acircumflex" format="1">
  <advance width="600"/>
  <unicode hex="00C2"/>
  <outline>
    <contour>
      <point x="175" y="272" type="line"/>
      <point x="177" y="282" type="line"/>
      <point x="522" y="282" type="line"/>
      <point x="520" y="272" type="line"/>
    </contour>
    <contour>
      <point x="421" y="688" type="line"/>
      <point x="185" y="277" type="line"/>
      <point x="183" y="273" type="line"/>
      <point x="27" y="0" type="line"/>
      <point x="15" y="0" type="line"/>
      <point x="426" y="715" type="line"/>
      <point x="585" y="0" type="line"/>
      <point x="573" y="0" type="line"/>
      <point x="514" y="273" type="line"/>
      <point x="514" y="276" type="line"/>
    </contour>
    <contour>
      <point x="460" y="910" type="line"/>
      <point x="284" y="775" type="line"/>
      <point x="278" y="782" type="line"/>
      <point x="463" y="922" type="line"/>
      <point x="598" y="782" type="line"/>
      <point x="590" y="775" type="line"/>
    </contour>
  </outline>
</glyph>
<glyph name="Atilde" format="1">
  <advance width="600"/>
  <unicode hex="00C3"/>
  <outline>
    <contour>
      <point x="175" y="272" type="line"/>
      <point x="177" y="282" type="line"/>
      <point x="522" y="282" type="line"/>
      <point x="520" y="272" type="line"/>
    </contour>
    <contour>
      <point x="421" y="688" type="line"/>
      <point x="185" y="277" type="line"/>
      <point x="183" y="273" type="line"/>
      <point x="27" y="0" type="line"/>
      <point x="15" y="0" type="line"/>
      <point x="426" y="715" type="line"/>
      <point x="585" y="0" type="line"/>
      <point x="573" y="0" type="line"/>
      <point x="514" y="273" type="line"/>
      <point x="514" y="276" type="line"/>
    </contour>
    <contour>
      <point x="314" y="796" type="line"/>
      <point x="319" y="825"/>
      <point x="342" y="854"/>
      <point x="387" y="854" type="curve" smooth="yes"/>
      <point x="442" y="854"/>
      <point x="448" y="807"/>
      <point x="502" y="807" type="curve" smooth="yes"/>
      <point x="531" y="807"/>
      <point x="546" y="823"/>
      <point x="567" y="855" type="curve"/>
      <point x="576" y="852" type="line"/>
      <point x="553" y="815"/>
      <point x="531" y="799"/>
      <point x="501" y="799" type="curve" smooth="yes"/>
      <point x="446" y="799"/>
      <point x="432" y="846"/>
      <point x="387" y="846" type="curve" smooth="yes"/>
      <point x="346" y="846"/>
      <point x="328" y="820"/>
      <point x="324" y="795" type="curve"/>
    </contour>
  </outline>
</glyph>
<glyph name="AE" format="1">
  <advance width="843"/>
  <unicode hex="00C6"/>
  <outline>
    <contour>
      <point x="236" y="280" type="line"/>
      <point x="239" y="290" type="line"/>
      <point x="513" y="290" type="line"/>
      <point x="509" y="280" type="line"/>
    </contour>
    <contour>
      <point x="641" y="700" type="line"/>
      <point x="655" y="698" type="line"/>
      <point x="-38" y="0" type="line"/>
      <point x="-51" y="0" type="line"/>
    </contour>
    <contour>
      <point x="413" y="0" type="line"/>
      <point x="417" y="10" type="line"/>
      <point x="717" y="10" type="line"/>
      <point x="714" y="0" type="line"/>
    </contour>
    <contour>
      <point x="653" y="690" type="line"/>
      <point x="641" y="700" type="line"/>
      <point x="953" y="700" type="line"/>
      <point x="949" y="690" type="line"/>
    </contour>
    <contour>
      <point x="544" y="384" type="line"/>
      <point x="548" y="394" type="line"/>
      <point x="829" y="394" type="line"/>
      <point x="826" y="384" type="line"/>
    </contour>
    <contour>
      <point x="647" y="699" type="line"/>
      <point x="658" y="699" type="line"/>
      <point x="416" y="0" type="line"/>
      <point x="405" y="0" type="line"/>
    </contour>
  </outline>
</glyph>
<glyph name="Egrave" format="1">
  <advance width="510"/>
  <unicode hex="00C8"/>
  <outline>
    <contour>
      <point x="92" y="0" type="line"/>
      <point x="94" y="10" type="line"/>
      <point x="432" y="10" type="line"/>
      <point x="430" y="0" type="line"/>
    </contour>
    <contour>
      <point x="214" y="690" type="line"/>
      <point x="215" y="700" type="line"/>
      <point x="553" y="700" type="line"/>
      <point x="552" y="690" type="line"/>
    </contour>
    <contour>
      <point x="160" y="384" type="line"/>
      <point x="161" y="394" type="line"/>
      <point x="479" y="394" type="line"/>
      <point x="478" y="384" type="line"/>
    </contour>
    <contour>
      <point x="213" y="700" type="line"/>
      <point x="224" y="700" type="line"/>
      <point x="101" y="0" type="line"/>
      <point x="90" y="0" type="line"/>
    </contour>
    <contour>
      <point x="267" y="925" type="line"/>
      <point x="277" y="933" type="line"/>
      <point x="418" y="773" type="line"/>
      <point x="413" y="768" type="line"/>
    </contour>
  </outline>
</glyph>
<glyph name="Idieresis" format="1">
  <advance width="169"/>
  <unicode hex="00CF"/>
  <outline>
    <contour>
      <point x="266" y="699" type="line"/>
      <point x="276" y="699" type="line"/>
      <point x="34" y="0" type="line"/>
      <point x="24" y="0" type="line"/>
    </contour>
    <contour>
      <point x="358" y="799" type="curve" smooth="yes"/>
      <point x="359" y="803"/>
      <point x="367" y="810"/>
      <point x="372" y="810" type="curve" smooth="yes"/>
      <point x="377" y="810"/>
      <point x="381" y="804"/>
      <point x="380" y="799" type="curve" smooth="yes"/>
      <point x="379" y="795"/>
      <point x="371" y="788"/>
      <point x="366" y="788" type="curve" smooth="yes"/>
      <point x="361" y="788"/>
      <point x="357" y="794"/>
    </contour>
    <contour>
      <point x="227" y="799" type="curve" smooth="yes"/>
      <point x="228" y="803"/>
      <point x="236" y="810"/>
      <point x="241" y="810" type="curve" smooth="yes"/>
      <point x="246" y="810"/>
      <point x="249" y="804"/>
      <point x="248" y="799" type="curve" smooth="yes"/>
      <point x="247" y="795"/>
      <point x="239" y="788"/>
      <point x="234" y="788" type="curve" smooth="yes"/>
      <point x="229" y="788"/>
      <point x="226" y="794"/>
    </contour>
  </outline>
</glyph>
<glyph name="Ntilde" format="1">
  <advance width="625"/>
  <unicode hex="00D1"/>
  <outline>
    <contour>
      <point x="735" y="699" type="line"/>
      <point x="746" y="699" type="line"/>
      <point x="500" y="-15" type="line"/>
      <point x="236" y="678" type="line"/>
      <point x="2" y="0" type="line"/>
      <point x="-9" y="0" type="line"/>
      <point x="237" y="715" type="line"/>
      <point x="500" y="17" type="line"/>
    </contour>
    <contour>
      <point x="395" y="757" type="line"/>
      <point x="414" y="784"/>
      <point x="436" y="813"/>
      <point x="473" y="813" type="curve" smooth="yes"/>
      <point x="513" y="813"/>
      <point x="534" y="766"/>
      <point x="574" y="768" type="curve" smooth="yes"/>
      <point x="603" y="769"/>
      <point x="625" y="795"/>
      <point x="644" y="814" type="curve"/>
      <point x="653" y="811" type="line"/>
      <point x="632" y="789"/>
      <point x="606" y="760"/>
      <point x="572" y="760" type="curve" smooth="yes"/>
      <point x="533" y="760"/>
      <point x="513" y="804"/>
      <point x="474" y="805" type="curve" smooth="yes"/>
      <point x="441" y="806"/>
      <point x="421" y="780"/>
      <point x="404" y="756" type="curve"/>
    </contour>
  </outline>
</glyph>
<glyph name="Ocircumflex" format="1">
  <advance width="728"/>
  <unicode hex="00D4"/>
  <outline>
    <contour>
      <point x="123" y="350" type="curve" smooth="yes"/>
      <point x="70" y="194"/>
      <point x="117" y="4"/>
      <point x="310" y="3" type="curve" smooth="yes"/>
      <point x="507" y="2"/>
      <point x="676" y="174"/>
      <point x="736" y="350" type="curve" smooth="yes"/>
      <point x="789" y="506"/>
      <point x="742" y="696"/>
      <point x="549" y="697" type="curve" smooth="yes"/>
      <point x="352" y="698"/>
      <point x="183" y="526"/>
    </contour>
    <contour>
      <point x="112" y="350" type="curve" smooth="yes"/>
      <point x="173" y="532"/>
      <point x="348" y="709"/>
      <point x="550" y="708" type="curve" smooth="yes"/>
      <point x="748" y="707"/>
      <point x="801" y="512"/>
      <point x="747" y="350" type="curve" smooth="yes"/>
      <point x="686" y="168"/>
      <point x="511" y="-9"/>
      <point x="309" y="-8" type="curve" smooth="yes"/>
      <point x="111" y="-7"/>
      <point x="58" y="188"/>
    </contour>
    <contour>
      <point x="619" y="902" type="line"/>
      <point x="428" y="770" type="line"/>
      <point x="423" y="777" type="line"/>
      <point x="622" y="914" type="line"/>
      <point x="726" y="775" type="line"/>
      <point x="717" y="768" type="line"/>
    </contour>
  </outline>
</glyph>
<glyph name="Odieresis" format="1">
  <advance width="728"/>
  <unicode hex="00D6"/>
  <outline>
    <contour>
      <point x="123" y="350" type="curve" smooth="yes"/>
      <point x="70" y="194"/>
      <point x="117" y="4"/>
      <point x="310" y="3" type="curve" smooth="yes"/>
      <point x="507" y="2"/>
      <point x="676" y="174"/>
      <point x="736" y="350" type="curve" smooth="yes"/>
      <point x="789" y="506"/>
      <point x="742" y="696"/>
      <point x="549" y="697" type="curve" smooth="yes"/>
      <point x="352" y="698"/>
      <point x="183" y="526"/>
    </contour>
    <contour>
      <point x="112" y="350" type="curve" smooth="yes"/>
      <point x="173" y="532"/>
      <point x="348" y="709"/>
      <point x="550" y="708" type="curve" smooth="yes"/>
      <point x="748" y="707"/>
      <point x="801" y="512"/>
      <point x="747" y="350" type="curve" smooth="yes"/>
      <point x="686" y="168"/>
      <point x="511" y="-9"/>
      <point x="309" y="-8" type="curve" smooth="yes"/>
      <point x="111" y="-7"/>
      <point x="58" y="188"/>
    </contour>
    <contour>
      <point x="679" y="809" type="curve" smooth="yes"/>
      <point x="680" y="813"/>
      <point x="688" y="820"/>
      <point x="693" y="820" type="curve" smooth="yes"/>
      <point x="698" y="820"/>
      <point x="701" y="814"/>
      <point x="700" y="809" type="curve" smooth="yes"/>
      <point x="699" y="805"/>
      <point x="691" y="798"/>
      <point x="686" y="798" type="curve" smooth="yes"/>
      <point x="681" y="798"/>
      <point x="678" y="804"/>
    </contour>
    <contour>
      <point x="472" y="809" type="curve" smooth="yes"/>
      <point x="473" y="813"/>
      <point x="481" y="820"/>
      <point x="486" y="820" type="curve" smooth="yes"/>
      <point x="491" y="820"/>
      <point x="494" y="814"/>
      <point x="493" y="809" type="curve" smooth="yes"/>
      <point x="492" y="805"/>
      <point x="484" y="798"/>
      <point x="479" y="798" type="curve" smooth="yes"/>
      <point x="474" y="798"/>
      <point x="471" y="804"/>
    </contour>
  </outline>
</glyph>
<glyph name="multiply" format="1">
  <advance width="543"/>
  <unicode hex="00D7"/>
  <outline>
    <contour>
      <point x="44" y="48" type="line"/>
      <point x="39" y="55" type="line"/>
      <point x="300" y="254" type="line"/>
      <point x="176" y="456" type="line"/>
      <point x="184" y="463" type="line"/>
      <point x="305" y="261" type="line"/>
      <point x="566" y="461" type="line"/>
      <point x="571" y="454" type="line"/>
      <point x="309" y="254" type="line"/>
      <point x="432" y="53" type="line"/>
      <point x="424" y="46" type="line"/>
      <point x="303" y="247" type="line"/>
    </contour>
  </outline>
</glyph>
<glyph name="Ucircumflex" format="1">
  <advance width="541"/>
  <unicode hex="00DB"/>
  <outline>
    <contour>
      <point x="266" y="699" type="line"/>
      <point x="276" y="699" type="line"/>
      <point x="111" y="220" type="line" smooth="yes"/>
      <point x="81" y="124"/>
      <point x="90" y="3"/>
      <point x="216" y="2" type="curve" smooth="yes"/>
      <point x="342" y="1"/>
      <point x="432" y="112"/>
      <point x="472" y="220" type="curve" smooth="yes"/>
      <point x="637" y="699" type="line"/>
      <point x="648" y="699" type="line"/>
      <point x="484" y="220" type="line" smooth="yes"/>
      <point x="442" y="104"/>
      <point x="349" y="-10"/>
      <point x="215" y="-9" type="curve" smooth="yes"/>
      <point x="81" y="-8"/>
      <point x="69" y="116"/>
      <point x="101" y="220" type="curve" smooth="yes"/>
    </contour>
    <contour>
      <point x="526" y="902" type="line"/>
      <point x="334" y="770" type="line"/>
      <point x="330" y="777" type="line"/>
      <point x="529" y="914" type="line"/>
      <point x="633" y="775" type="line"/>
      <point x="624" y="768" type="line"/>
    </contour>
  </outline>
</glyph>
<glyph name="Udieresis" format="1">
  <advance width="541"/>
  <unicode hex="00DC"/>
  <outline>
    <contour>
      <point x="266" y="699" type="line"/>
      <point x="276" y="699" type="line"/>
      <point x="111" y="220" type="line" smooth="yes"/>
      <point x="81" y="124"/>
      <point x="90" y="3"/>
      <point x="216" y="2" type="curve" smooth="yes"/>
      <point x="342" y="1"/>
      <point x="432" y="112"/>
      <point x="472" y="220" type="curve" smooth="yes"/>
      <point x="637" y="699" type="line"/>
      <point x="648" y="699" type="line"/>
      <point x="484" y="220" type="line" smooth="yes"/>
      <point x="442" y="104"/>
      <point x="349" y="-10"/>
      <point x="215" y="-9" type="curve" smooth="yes"/>
      <point x="81" y="-8"/>
      <point x="69" y="116"/>
      <point x="101" y="220" type="curve" smooth="yes"/>
    </contour>
    <contour>
      <point x="557" y="779" type="curve" smooth="yes"/>
      <point x="558" y="783"/>
      <point x="566" y="790"/>
      <point x="571" y="790" type="curve" smooth="yes"/>
      <point x="576" y="790"/>
      <point x="579" y="784"/>
      <point x="578" y="779" type="curve" smooth="yes"/>
      <point x="577" y="775"/>
      <point x="569" y="768"/>
      <point x="564" y="768" type="curve" smooth="yes"/>
      <point x="559" y="768"/>
      <point x="556" y="774"/>
    </contour>
    <contour>
      <point x="387" y="779" type="curve" smooth="yes"/>
      <point x="388" y="783"/>
      <point x="396" y="790"/>
      <point x="401" y="790" type="curve" smooth="yes"/>
      <point x="406" y="790"/>
      <point x="410" y="784"/>
      <point x="409" y="779" type="curve" smooth="yes"/>
      <point x="408" y="775"/>
      <point x="400" y="768"/>
      <point x="395" y="768" type="curve" smooth="yes"/>
      <point x="390" y="768"/>
      <point x="386" y="774"/>
    </contour>
  </outline>
</glyph>
<glyph name="germandbls" format="1">
  <advance width="498"/>
  <unicode hex="00DF"/>
  <outline>
    <contour>
      <point x="182" y="0" type="line"/>
      <point x="312" y="16"/>
      <point x="427" y="97"/>
      <point x="470" y="225" type="curve" smooth="yes"/>
      <point x="512" y="350"/>
      <point x="436" y="430"/>
      <point x="315" y="443" type="curve"/>
      <point x="317" y="449" type="line"/>
      <point x="443" y="437"/>
      <point x="523" y="355"/>
      <point x="480" y="225" type="curve" smooth="yes"/>
      <point x="436" y="92"/>
      <point x="316" y="5"/>
      <point x="179" y="-9" type="curve"/>
    </contour>
    <contour>
      <point x="316" y="446" type="curve"/>
      <point x="318" y="453" type="line"/>
      <point x="423" y="461"/>
      <point x="523" y="500"/>
      <point x="562" y="606" type="curve" smooth="yes"/>
      <point x="595" y="696"/>
      <point x="558" y="779"/>
      <point x="455" y="779" type="curve" smooth="yes"/>
      <point x="354" y="779"/>
      <point x="271" y="694"/>
      <point x="237" y="606" type="curve" smooth="yes"/>
      <point x="29" y="0" type="line"/>
      <point x="20" y="0" type="line"/>
      <point x="227" y="606" type="line" smooth="yes"/>
      <point x="264" y="701"/>
      <point x="348" y="788"/>
      <point x="456" y="789" type="curve" smooth="yes"/>
      <point x="567" y="790"/>
      <point x="606" y="702"/>
      <point x="572" y="605" type="curve" smooth="yes"/>
      <point x="532" y="491"/>
      <point x="427" y="454"/>
    </contour>
  </outline>
</glyph>
<glyph name="agrave" format="1">
  <advance width="409"/>
  <unicode hex="00E0"/>
  <outline>
    <contour>
      <point x="39" y="135" type="curve" smooth="yes"/>
      <point x="14" y="65"/>
      <point x="49" y="1"/>
      <point x="126" y="1" type="curve" smooth="yes"/>
      <point x="223" y="1"/>
      <point x="294" y="79"/>
      <point x="336" y="158" type="curve"/>
      <point x="341" y="158" type="line"/>
      <point x="300" y="74"/>
      <point x="227" y="-9"/>
      <point x="125" y="-9" type="curve" smooth="yes"/>
      <point x="42" y="-9"/>
      <point x="3" y="60"/>
      <point x="29" y="136" type="curve" smooth="yes"/>
      <point x="60" y="225"/>
      <point x="158" y="280"/>
      <point x="249" y="280" type="curve" smooth="yes"/>
      <point x="295" y="280"/>
      <point x="331" y="265"/>
      <point x="364" y="235" type="curve"/>
      <point x="360" y="226" type="line"/>
      <point x="328" y="256"/>
      <point x="292" y="270"/>
      <point x="247" y="270" type="curve" smooth="yes"/>
      <point x="162" y="270"/>
      <point x="69" y="218"/>
    </contour>
    <contour>
      <point x="159" y="396" type="curve"/>
      <point x="155" y="405" type="line"/>
      <point x="205" y="437"/>
      <point x="262" y="471"/>
      <point x="324" y="469" type="curve" smooth="yes"/>
      <point x="411" y="466"/>
      <point x="419" y="389"/>
      <point x="399" y="320" type="curve" smooth="yes"/>
      <point x="288" y="0" type="line"/>
      <point x="278" y="0" type="line"/>
      <point x="390" y="320" type="line" smooth="yes"/>
      <point x="409" y="384"/>
      <point x="404" y="456"/>
      <point x="323" y="459" type="curve" smooth="yes"/>
      <point x="263" y="462"/>
      <point x="207" y="427"/>
    </contour>
    <contour>
      <point x="278" y="707" type="line"/>
      <point x="288" y="714" type="line"/>
      <point x="396" y="555" type="line"/>
      <point x="389" y="551" type="line"/>
    </contour>
  </outline>
</glyph>
<glyph name="atilde" format="1">
  <advance width="435"/>
  <unicode hex="00E3"/>
  <outline>
    <contour>
      <point x="74" y="135" type="curve" smooth="yes"/>
      <point x="57" y="37"/>
      <point x="123" y="0"/>
      <point x="193" y="0" type="curve" smooth="yes"/>
      <point x="283" y="0"/>
      <point x="368" y="74"/>
      <point x="383" y="160" type="curve"/>
      <point x="388" y="160" type="line"/>
      <point x="372" y="71"/>
      <point x="293" y="-10"/>
      <point x="191" y="-10" type="curve" smooth="yes"/>
      <point x="116" y="-10"/>
      <point x="46" y="31"/>
      <point x="64" y="135" type="curve" smooth="yes"/>
      <point x="81" y="232"/>
      <point x="180" y="281"/>
      <point x="271" y="281" type="curve" smooth="yes"/>
      <point x="349" y="281"/>
      <point x="381" y="253"/>
      <point x="399" y="235" type="curve"/>
      <point x="398" y="225" type="line"/>
      <point x="378" y="247"/>
      <point x="337" y="271"/>
      <point x="269" y="271" type="curve" smooth="yes"/>
      <point x="186" y="271"/>
      <point x="90" y="227"/>
    </contour>
    <contour>
      <point x="154" y="395" type="curve"/>
      <point x="148" y="403" type="line"/>
      <point x="186" y="434"/>
      <point x="243" y="470"/>
      <point x="316" y="470" type="curve" smooth="yes"/>
      <point x="406" y="470"/>
      <point x="437" y="409"/>
      <point x="421" y="320" type="curve" smooth="yes"/>
      <point x="365" y="0" type="line"/>
      <point x="355" y="0" type="line"/>
      <point x="411" y="320" type="line" smooth="yes"/>
      <point x="426" y="406"/>
      <point x="397" y="460"/>
      <point x="314" y="460" type="curve" smooth="yes"/>
      <point x="248" y="460"/>
      <point x="197" y="430"/>
    </contour>
    <contour>
      <point x="200" y="581" type="line"/>
      <point x="205" y="610"/>
      <point x="228" y="639"/>
      <point x="273" y="639" type="curve" smooth="yes"/>
      <point x="328" y="639"/>
      <point x="334" y="592"/>
      <point x="388" y="592" type="curve" smooth="yes"/>
      <point x="417" y="592"/>
      <point x="432" y="608"/>
      <point x="453" y="640" type="curve"/>
      <point x="460" y="637" type="line"/>
      <point x="437" y="600"/>
      <point x="415" y="584"/>
      <point x="385" y="584" type="curve" smooth="yes"/>
      <point x="330" y="584"/>
      <point x="318" y="631"/>
      <point x="273" y="631" type="curve" smooth="yes"/>
      <point x="232" y="631"/>
      <point x="212" y="605"/>
      <point x="208" y="580" type="curve"/>
    </contour>
  </outline>
</glyph>
<glyph name="adieresis" format="1">
  <advance width="409"/>
  <unicode hex="00E4"/>
  <outline>
    <contour>
      <point x="39" y="135" type="curve" smooth="yes"/>
      <point x="14" y="65"/>
      <point x="49" y="1"/>
      <point x="126" y="1" type="curve" smooth="yes"/>
      <point x="223" y="1"/>
      <point x="294" y="79"/>
      <point x="336" y="158" type="curve"/>
      <point x="341" y="158" type="line"/>
      <point x="300" y="74"/>
      <point x="227" y="-9"/>
      <point x="125" y="-9" type="curve" smooth="yes"/>
      <point x="42" y="-9"/>
      <point x="3" y="60"/>
      <point x="29" y="136" type="curve" smooth="yes"/>
      <point x="60" y="225"/>
      <point x="158" y="280"/>
      <point x="249" y="280" type="curve" smooth="yes"/>
      <point x="295" y="280"/>
      <point x="331" y="265"/>
      <point x="364" y="235" type="curve"/>
      <point x="360" y="226" type="line"/>
      <point x="328" y="256"/>
      <point x="292" y="270"/>
      <point x="247" y="270" type="curve" smooth="yes"/>
      <point x="162" y="270"/>
      <point x="69" y="218"/>
    </contour>
    <contour>
      <point x="159" y="396" type="curve"/>
      <point x="155" y="405" type="line"/>
      <point x="205" y="437"/>
      <point x="262" y="471"/>
      <point x="324" y="469" type="curve" smooth="yes"/>
      <point x="411" y="466"/>
      <point x="419" y="389"/>
      <point x="399" y="320" type="curve" smooth="yes"/>
      <point x="288" y="0" type="line"/>
      <point x="278" y="0" type="line"/>
      <point x="390" y="320" type="line" smooth="yes"/>
      <point x="409" y="384"/>
      <point x="404" y="456"/>
      <point x="323" y="459" type="curve" smooth="yes"/>
      <point x="263" y="462"/>
      <point x="207" y="427"/>
    </contour>
    <contour>
      <point x="412" y="561" type="curve" smooth="yes"/>
      <point x="413" y="565"/>
      <point x="421" y="572"/>
      <point x="426" y="572" type="curve" smooth="yes"/>
      <point x="431" y="572"/>
      <point x="434" y="566"/>
      <point x="433" y="561" type="curve" smooth="yes"/>
      <point x="432" y="557"/>
      <point x="424" y="550"/>
      <point x="419" y="550" type="curve" smooth="yes"/>
      <point x="414" y="550"/>
      <point x="411" y="556"/>
    </contour>
    <contour>
      <point x="261" y="561" type="curve" smooth="yes"/>
      <point x="262" y="565"/>
      <point x="270" y="572"/>
      <point x="275" y="572" type="curve" smooth="yes"/>
      <point x="280" y="572"/>
      <point x="283" y="566"/>
      <point x="282" y="561" type="curve" smooth="yes"/>
      <point x="281" y="557"/>
      <point x="273" y="550"/>
      <point x="268" y="550" type="curve" smooth="yes"/>
      <point x="263" y="550"/>
      <point x="260" y="556"/>
    </contour>
  </outline>
</glyph>
<glyph name="ae" format="1">
  <advance width="776"/>
  <unicode hex="00E6"/>
  <outline>
    <contour>
      <point x="37" y="132" type="curve" smooth="yes"/>
      <point x="12" y="62"/>
      <point x="51" y="1"/>
      <point x="127" y="1" type="curve" smooth="yes"/>
      <point x="225" y="1"/>
      <point x="311" y="86"/>
      <point x="338" y="165" type="curve"/>
      <point x="346" y="164" type="line"/>
      <point x="319" y="80"/>
      <point x="229" y="-9"/>
      <point x="126" y="-9" type="curve" smooth="yes"/>
      <point x="44" y="-9"/>
      <point x="3" y="57"/>
      <point x="28" y="133" type="curve" smooth="yes"/>
      <point x="59" y="225"/>
      <point x="159" y="281"/>
      <point x="252" y="280" type="curve" smooth="yes"/>
      <point x="296" y="280"/>
      <point x="332" y="265"/>
      <point x="364" y="235" type="curve"/>
      <point x="360" y="226" type="line"/>
      <point x="329" y="256"/>
      <point x="295" y="270"/>
      <point x="251" y="270" type="curve" smooth="yes"/>
      <point x="163" y="270"/>
      <point x="67" y="218"/>
    </contour>
    <contour>
      <point x="160" y="396" type="curve"/>
      <point x="155" y="405" type="line"/>
      <point x="206" y="438"/>
      <point x="266" y="473"/>
      <point x="329" y="469" type="curve" smooth="yes"/>
      <point x="408" y="464"/>
      <point x="419" y="394"/>
      <point x="400" y="330" type="curve"/>
      <point x="346" y="164" type="line"/>
      <point x="338" y="165" type="line"/>
      <point x="390" y="320" type="line" smooth="yes"/>
      <point x="410.601" y="381.406"/>
      <point x="406" y="455"/>
      <point x="325" y="459" type="curve" smooth="yes"/>
      <point x="265" y="462"/>
      <point x="209" y="427"/>
    </contour>
    <contour>
      <point x="364" y="228" type="line"/>
      <point x="367" y="238" type="line"/>
      <point x="760" y="238" type="line"/>
      <point x="762" y="228" type="line"/>
    </contour>
    <contour>
      <point x="760" y="250" type="line" smooth="yes"/>
      <point x="794" y="342"/>
      <point x="763" y="458"/>
      <point x="649" y="460" type="curve" smooth="yes"/>
      <point x="516" y="462"/>
      <point x="419" y="345"/>
      <point x="370" y="235" type="curve"/>
      <point x="370" y="235" type="line"/>
      <point x="345" y="140"/>
      <point x="345" y="5"/>
      <point x="474" y="1" type="curve" smooth="yes"/>
      <point x="567" y="-2"/>
      <point x="644" y="52"/>
      <point x="710" y="111" type="curve"/>
      <point x="717" y="105" type="line"/>
      <point x="649" y="43"/>
      <point x="569" y="-12"/>
      <point x="473" y="-9" type="curve" smooth="yes"/>
      <point x="346" y="-5"/>
      <point x="323" y="130"/>
      <point x="358" y="230" type="curve" smooth="yes"/>
      <point x="364" y="247"/>
      <point x="372" y="263"/>
      <point x="380" y="279" type="curve" smooth="yes"/>
      <point x="433" y="378"/>
      <point x="534" y="472"/>
      <point x="654" y="469" type="curve" smooth="yes"/>
      <point x="769" y="466"/>
      <point x="804" y="348"/>
      <point x="772" y="253" type="curve" smooth="yes"/>
      <point x="769" y="245"/>
      <point x="766" y="236"/>
      <point x="762" y="228" type="curve"/>
      <point x="753" y="231" type="line"/>
    </contour>
  </outline>
</glyph>
<glyph name="ccedilla" format="1">
  <advance width="459"/>
  <unicode hex="00E7"/>
  <outline>
    <contour>
      <point x="71" y="230" type="curve" smooth="yes"/>
      <point x="35" y="125"/>
      <point x="75" y="2"/>
      <point x="202" y="1" type="curve" smooth="yes"/>
      <point x="263" y="1"/>
      <point x="319" y="27"/>
      <point x="370" y="59" type="curve"/>
      <point x="366" y="47" type="line"/>
      <point x="316" y="15"/>
      <point x="260" y="-9"/>
      <point x="200" y="-9" type="curve" smooth="yes"/>
      <point x="67" y="-9"/>
      <point x="24" y="119"/>
      <point x="61" y="230" type="curve" smooth="yes"/>
      <point x="102" y="354"/>
      <point x="226" y="470"/>
      <point x="362" y="469" type="curve" smooth="yes"/>
      <point x="413" y="469"/>
      <point x="456" y="450"/>
      <point x="490" y="412" type="curve"/>
      <point x="486" y="400" type="line"/>
      <point x="454" y="439"/>
      <point x="412" y="459"/>
      <point x="361" y="459" type="curve" smooth="yes"/>
      <point x="231" y="459"/>
      <point x="112" y="348"/>
    </contour>
    <contour>
      <point x="196" y="-4" type="line"/>
      <point x="209" y="-4" type="line"/>
      <point x="128" y="-78" type="line"/>
      <point x="150" y="-68"/>
      <point x="177" y="-53"/>
      <point x="202" y="-56" type="curve" smooth="yes"/>
      <point x="241" y="-60"/>
      <point x="257" y="-94"/>
      <point x="247" y="-130" type="curve" smooth="yes"/>
      <point x="233" y="-183"/>
      <point x="167" y="-223"/>
      <point x="114" y="-222" type="curve" smooth="yes"/>
      <point x="82" y="-222"/>
      <point x="63" y="-206"/>
      <point x="42" y="-185" type="curve"/>
      <point x="50" y="-179" type="line"/>
      <point x="69" y="-197"/>
      <point x="88" y="-212"/>
      <point x="116" y="-212" type="curve" smooth="yes"/>
      <point x="164" y="-212"/>
      <point x="223" y="-177"/>
      <point x="237" y="-129" type="curve" smooth="yes"/>
      <point x="246" y="-99"/>
      <point x="233" y="-70"/>
      <point x="200" y="-66" type="curve" smooth="yes"/>
      <point x="171" y="-62"/>
      <point x="140" y="-79"/>
      <point x="114" y="-90" type="curve"/>
    </contour>
  </outline>
</glyph>
<glyph name="igrave" format="1">
  <advance width="178"/>
  <unicode hex="00EC"/>
  <outline>
    <contour>
      <point x="189" y="459" type="line"/>
      <point x="198" y="459" type="line"/>
      <point x="39" y="0" type="line"/>
      <point x="29" y="0" type="line"/>
    </contour>
    <contour>
      <point x="123" y="687" type="line"/>
      <point x="133" y="694" type="line"/>
      <point x="240" y="535" type="line"/>
      <point x="233" y="531" type="line"/>
    </contour>
  </outline>
</glyph>
<glyph name="idieresis" format="1">
  <advance width="178"/>
  <unicode hex="00EF"/>
  <outline>
    <contour>
      <point x="189" y="459" type="line"/>
      <point x="198" y="459" type="line"/>
      <point x="39" y="0" type="line"/>
      <point x="29" y="0" type="line"/>
    </contour>
    <contour>
      <point x="285" y="541" type="curve" smooth="yes"/>
      <point x="286" y="545"/>
      <point x="293" y="552"/>
      <point x="298" y="552" type="curve" smooth="yes"/>
      <point x="303" y="552"/>
      <point x="307" y="546"/>
      <point x="306" y="541" type="curve" smooth="yes"/>
      <point x="305" y="537"/>
      <point x="297" y="530"/>
      <point x="292" y="530" type="curve" smooth="yes"/>
      <point x="287" y="530"/>
      <point x="284" y="536"/>
    </contour>
    <contour>
      <point x="134" y="541" type="curve" smooth="yes"/>
      <point x="135" y="545"/>
      <point x="143" y="552"/>
      <point x="148" y="552" type="curve" smooth="yes"/>
      <point x="153" y="552"/>
      <point x="156" y="546"/>
      <point x="155" y="541" type="curve" smooth="yes"/>
      <point x="154" y="537"/>
      <point x="146" y="530"/>
      <point x="141" y="530" type="curve" smooth="yes"/>
      <point x="136" y="530"/>
      <point x="133" y="536"/>
    </contour>
  </outline>
</glyph>
<glyph name="eth" format="1">
  <advance width="504"/>
  <unicode hex="00F0"/>
  <outline>
    <contour>
      <point x="469" y="220" type="curve" smooth="yes"/>
      <point x="503" y="324"/>
      <point x="452" y="427"/>
      <point x="335" y="426" type="curve" smooth="yes"/>
      <point x="221" y="425"/>
      <point x="113" y="323"/>
      <point x="77" y="220" type="curve" smooth="yes"/>
      <point x="42" y="120"/>
      <point x="75" y="2"/>
      <point x="197" y="1" type="curve" smooth="yes"/>
      <point x="321" y="0"/>
      <point x="432" y="108"/>
    </contour>
    <contour>
      <point x="378" y="700" type="line"/>
      <point x="480" y="379" type="line" smooth="yes"/>
      <point x="495" y="327"/>
      <point x="496" y="272"/>
      <point x="479" y="220" type="curve" smooth="yes"/>
      <point x="441" y="101"/>
      <point x="327" y="-10"/>
      <point x="196" y="-9" type="curve" smooth="yes"/>
      <point x="66" y="-8"/>
      <point x="30" y="114"/>
      <point x="67" y="221" type="curve" smooth="yes"/>
      <point x="105" y="330"/>
      <point x="215" y="436"/>
      <point x="336" y="436" type="curve" smooth="yes"/>
      <point x="398" y="436"/>
      <point x="443" y="405"/>
      <point x="476" y="354" type="curve"/>
      <point x="476" y="355" type="line"/>
      <point x="367" y="700" type="line"/>
    </contour>
    <contour>
      <point x="278" y="575" type="line"/>
      <point x="282" y="585" type="line"/>
      <point x="536" y="585" type="line"/>
      <point x="533" y="575" type="line"/>
    </contour>
  </outline>
</glyph>
<glyph name="ograve" format="1">
  <advance width="523"/>
  <unicode hex="00F2"/>
  <outline>
    <contour>
      <point x="66" y="230" type="curve" smooth="yes"/>
      <point x="107" y="353"/>
      <point x="230" y="470"/>
      <point x="366" y="469" type="curve" smooth="yes"/>
      <point x="499" y="468"/>
      <point x="543" y="341"/>
      <point x="506" y="230" type="curve" smooth="yes"/>
      <point x="465" y="107"/>
      <point x="341" y="-10"/>
      <point x="205" y="-9" type="curve" smooth="yes"/>
      <point x="72" y="-8"/>
      <point x="29" y="119"/>
    </contour>
    <contour>
      <point x="76" y="230" type="curve" smooth="yes"/>
      <point x="40" y="124"/>
      <point x="79" y="2"/>
      <point x="206" y="1" type="curve" smooth="yes"/>
      <point x="336" y="0"/>
      <point x="456" y="112"/>
      <point x="496" y="230" type="curve" smooth="yes"/>
      <point x="532" y="336"/>
      <point x="493" y="458"/>
      <point x="366" y="459" type="curve" smooth="yes"/>
      <point x="236" y="460"/>
      <point x="116" y="348"/>
    </contour>
    <contour>
      <point x="313" y="687" type="line"/>
      <point x="323" y="694" type="line"/>
      <point x="430" y="535" type="line"/>
      <point x="425" y="531" type="line"/>
    </contour>
  </outline>
</glyph>
<glyph name="otilde" format="1">
  <advance width="523"/>
  <unicode hex="00F5"/>
  <outline>
    <contour>
      <point x="66" y="230" type="curve" smooth="yes"/>
      <point x="107" y="353"/>
      <point x="230" y="470"/>
      <point x="366" y="469" type="curve" smooth="yes"/>
      <point x="499" y="468"/>
      <point x="543" y="341"/>
      <point x="506" y="230" type="curve" smooth="yes"/>
      <point x="465" y="107"/>
      <point x="341" y="-10"/>
      <point x="205" y="-9" type="curve" smooth="yes"/>
      <point x="72" y="-8"/>
      <point x="29" y="119"/>
    </contour>
    <contour>
      <point x="76" y="230" type="curve" smooth="yes"/>
      <point x="40" y="124"/>
      <point x="79" y="2"/>
      <point x="206" y="1" type="curve" smooth="yes"/>
      <point x="336" y="0"/>
      <point x="456" y="112"/>
      <point x="496" y="230" type="curve" smooth="yes"/>
      <point x="532" y="336"/>
      <point x="493" y="458"/>
      <point x="366" y="459" type="curve" smooth="yes"/>
      <point x="236" y="460"/>
      <point x="116" y="348"/>
    </contour>
    <contour>
      <point x="275" y="552" type="line"/>
      <point x="261" y="576"/>
      <point x="338" y="608"/>
      <point x="354" y="608" type="curve" smooth="yes"/>
      <point x="394" y="609"/>
      <point x="415" y="561"/>
      <point x="455" y="563" type="curve" smooth="yes"/>
      <point x="484" y="564"/>
      <point x="506" y="590"/>
      <point x="525" y="609" type="curve"/>
      <point x="534" y="606" type="line"/>
      <point x="513" y="584"/>
      <point x="487" y="555"/>
      <point x="454" y="555" type="curve" smooth="yes"/>
      <point x="415" y="555"/>
      <point x="394" y="601"/>
      <point x="355" y="600" type="curve" smooth="yes"/>
      <point x="323" y="599"/>
      <point x="303" y="574"/>
      <point x="285" y="551" type="curve"/>
    </contour>
  </outline>
</glyph>
<glyph name="odieresis" format="1">
  <advance width="556"/>
  <unicode hex="00F6"/>
  <outline>
    <contour>
      <point x="86" y="230" type="curve" smooth="yes"/>
      <point x="111" y="369"/>
      <point x="229" y="470"/>
      <point x="361" y="470" type="curve" smooth="yes"/>
      <point x="493" y="470"/>
      <point x="577" y="369"/>
      <point x="552" y="230" type="curve" smooth="yes"/>
      <point x="527" y="91"/>
      <point x="408" y="-10"/>
      <point x="276" y="-10" type="curve" smooth="yes"/>
      <point x="144" y="-10"/>
      <point x="61" y="91"/>
    </contour>
    <contour>
      <point x="96" y="230" type="curve" smooth="yes"/>
      <point x="72" y="96"/>
      <point x="153" y="0"/>
      <point x="278" y="0" type="curve" smooth="yes"/>
      <point x="403" y="0"/>
      <point x="518" y="96"/>
      <point x="542" y="230" type="curve" smooth="yes"/>
      <point x="566" y="364"/>
      <point x="484" y="460"/>
      <point x="359" y="460" type="curve" smooth="yes"/>
      <point x="234" y="460"/>
      <point x="120" y="364"/>
    </contour>
    <contour>
      <point x="466" y="561" type="curve" smooth="yes"/>
      <point x="467" y="568"/>
      <point x="473" y="572"/>
      <point x="479" y="572" type="curve" smooth="yes"/>
      <point x="485" y="572"/>
      <point x="489" y="568"/>
      <point x="488" y="561" type="curve" smooth="yes"/>
      <point x="487" y="554"/>
      <point x="481" y="550"/>
      <point x="475" y="550" type="curve" smooth="yes"/>
      <point x="469" y="550"/>
      <point x="465" y="554"/>
    </contour>
    <contour>
      <point x="266" y="561" type="curve" smooth="yes"/>
      <point x="267" y="568"/>
      <point x="273" y="572"/>
      <point x="279" y="572" type="curve" smooth="yes"/>
      <point x="285" y="572"/>
      <point x="289" y="568"/>
      <point x="288" y="561" type="curve" smooth="yes"/>
      <point x="287" y="554"/>
      <point x="281" y="550"/>
      <point x="275" y="550" type="curve" smooth="yes"/>
      <point x="269" y="550"/>
      <point x="265" y="554"/>
    </contour>
  </outline>
</glyph>
<glyph name="udieresis" format="1">
  <advance width="446"/>
  <unicode hex="00FC"/>
  <outline>
    <contour>
      <point x="302" y="0" type="line"/>
      <point x="461" y="459" type="line"/>
      <point x="471" y="459" type="line"/>
      <point x="312" y="0" type="line"/>
    </contour>
    <contour>
      <point x="86" y="150" type="line" smooth="yes"/>
      <point x="66" y="86"/>
      <point x="62" y="2"/>
      <point x="150" y="1" type="curve" smooth="yes"/>
      <point x="252" y="-1"/>
      <point x="325" y="96"/>
      <point x="366" y="178" type="curve"/>
      <point x="372" y="178" type="line"/>
      <point x="331" y="91"/>
      <point x="256" y="-11"/>
      <point x="148" y="-9" type="curve" smooth="yes"/>
      <point x="53" y="-8"/>
      <point x="54" y="80"/>
      <point x="76" y="150" type="curve" smooth="yes"/>
      <point x="184" y="459" type="line"/>
      <point x="194" y="459" type="line"/>
    </contour>
    <contour>
      <point x="425" y="562" type="curve" smooth="yes"/>
      <point x="426" y="566"/>
      <point x="435" y="572"/>
      <point x="440" y="572" type="curve" smooth="yes"/>
      <point x="445" y="571"/>
      <point x="447" y="566"/>
      <point x="446" y="561" type="curve" smooth="yes"/>
      <point x="445" y="557"/>
      <point x="438" y="550"/>
      <point x="433" y="550" type="curve" smooth="yes"/>
      <point x="428" y="550"/>
      <point x="424" y="557"/>
    </contour>
    <contour>
      <point x="274" y="562" type="curve" smooth="yes"/>
      <point x="275" y="566"/>
      <point x="284" y="572"/>
      <point x="289" y="572" type="curve" smooth="yes"/>
      <point x="294" y="571"/>
      <point x="297" y="566"/>
      <point x="296" y="561" type="curve" smooth="yes"/>
      <point x="295" y="557"/>
      <point x="288" y="550"/>
      <point x="283" y="550" type="curve" smooth="yes"/>
      <point x="278" y="550"/>
      <point x="273" y="557"/>
    </contour>
  </outline>
</glyph>
<glyph name="thorn" format="1">
  <advance width="541"/>
  <unicode hex="00FE"/>
  <outline>
    <contour>
      <point x="228" y="780" type="line"/>
      <point x="51" y="-220" type="line"/>
      <point x="41" y="-220" type="line"/>
      <point x="218" y="780" type="line"/>
    </contour>
    <contour>
      <point x="537" y="230" type="curve" smooth="yes"/>
      <point x="511" y="83"/>
      <point x="401" y="-10"/>
      <point x="281" y="-10" type="curve" smooth="yes"/>
      <point x="158" y="-10"/>
      <point x="105" y="111"/>
      <point x="126" y="230" type="curve" smooth="yes"/>
      <point x="147" y="349"/>
      <point x="243" y="470"/>
      <point x="366" y="470" type="curve" smooth="yes"/>
      <point x="486" y="470"/>
      <point x="563" y="377"/>
    </contour>
    <contour>
      <point x="527" y="230" type="curve" smooth="yes"/>
      <point x="552" y="371"/>
      <point x="477" y="460"/>
      <point x="361" y="460" type="curve" smooth="yes"/>
      <point x="252" y="460"/>
      <point x="151" y="346"/>
      <point x="131" y="230" type="curve" smooth="yes"/>
      <point x="111" y="114"/>
      <point x="171" y="0"/>
      <point x="280" y="0" type="curve" smooth="yes"/>
      <point x="396" y="0"/>
      <point x="502" y="89"/>
    </contour>
  </outline>
</glyph>
<glyph name="ydieresis" format="1">
  <advance width="399"/>
  <unicode hex="00FF"/>
  <outline>
    <contour>
      <point x="495" y="459" type="line"/>
      <point x="-22" y="-219" type="line"/>
      <point x="-33" y="-218" type="line"/>
      <point x="151" y="21" type="line"/>
      <point x="112" y="460" type="line"/>
      <point x="124" y="460" type="line"/>
      <point x="160" y="20" type="line"/>
      <point x="149" y="21" type="line"/>
      <point x="484" y="459" type="line"/>
    </contour>
    <contour>
      <point x="402" y="561" type="curve" smooth="yes"/>
      <point x="403" y="565"/>
      <point x="410" y="572"/>
      <point x="415" y="572" type="curve" smooth="yes"/>
      <point x="420" y="572"/>
      <point x="424" y="565"/>
      <point x="423" y="560" type="curve" smooth="yes"/>
      <point x="422" y="556"/>
      <point x="414" y="550"/>
      <point x="409" y="550" type="curve" smooth="yes"/>
      <point x="404" y="551"/>
      <point x="401" y="556"/>
    </contour>
    <contour>
      <point x="252" y="561" type="curve" smooth="yes"/>
      <point x="253" y="565"/>
      <point x="260" y="572"/>
      <point x="265" y="572" type="curve" smooth="yes"/>
      <point x="270" y="572"/>
      <point x="274" y="565"/>
      <point x="273" y="560" type="curve" smooth="yes"/>
      <point x="272" y="556"/>
      <point x="263" y="550"/>
      <point x="258" y="550" type="curve" smooth="yes"/>
      <point x="253" y="551"/>
      <point x="251" y="556"/>
    </contour>
  </outline>
</glyph>
<glyph name="Abreve" format="1">
  <advance width="564"/>
  <unicode hex="0102"/>
  <outline>
    <contour>
      <point x="158" y="272" type="line"/>
      <point x="161" y="282" type="line"/>
      <point x="486" y="282" type="line"/>
      <point x="483" y="272" type="line"/>
    </contour>
    <contour>
      <point x="465" y="688" type="line"/>
      <point x="169" y="277" type="line"/>
      <point x="167" y="273" type="line"/>
      <point x="-30" y="0" type="line"/>
      <point x="-42" y="0" type="line"/>
      <point x="473" y="715" type="line"/>
      <point x="496" y="0" type="line"/>
      <point x="484" y="0" type="line"/>
      <point x="478" y="273" type="line"/>
      <point x="478" y="276" type="line"/>
    </contour>
    <contour>
      <point x="395" y="925" type="curve"/>
      <point x="405" y="925" type="line"/>
      <point x="393" y="855"/>
      <point x="419" y="797"/>
      <point x="498" y="796" type="curve" smooth="yes"/>
      <point x="582" y="795"/>
      <point x="645" y="855"/>
      <point x="684" y="923" type="curve"/>
      <point x="694" y="923" type="line"/>
      <point x="654" y="848"/>
      <point x="587" y="785"/>
      <point x="497" y="786" type="curve" smooth="yes"/>
      <point x="411" y="787"/>
      <point x="381" y="848"/>
    </contour>
  </outline>
</glyph>
<glyph name="abreve" format="1">
  <advance width="409"/>
  <unicode hex="0103"/>
  <outline>
    <contour>
      <point x="39" y="135" type="curve" smooth="yes"/>
      <point x="14" y="65"/>
      <point x="49" y="1"/>
      <point x="126" y="1" type="curve" smooth="yes"/>
      <point x="223" y="1"/>
      <point x="294" y="79"/>
      <point x="336" y="158" type="curve"/>
      <point x="341" y="158" type="line"/>
      <point x="300" y="74"/>
      <point x="227" y="-9"/>
      <point x="125" y="-9" type="curve" smooth="yes"/>
      <point x="42" y="-9"/>
      <point x="3" y="60"/>
      <point x="29" y="136" type="curve" smooth="yes"/>
      <point x="60" y="225"/>
      <point x="158" y="280"/>
      <point x="249" y="280" type="curve" smooth="yes"/>
      <point x="295" y="280"/>
      <point x="331" y="265"/>
      <point x="364" y="235" type="curve"/>
      <point x="360" y="226" type="line"/>
      <point x="328" y="256"/>
      <point x="292" y="270"/>
      <point x="247" y="270" type="curve" smooth="yes"/>
      <point x="162" y="270"/>
      <point x="69" y="218"/>
    </contour>
    <contour>
      <point x="159" y="396" type="curve"/>
      <point x="155" y="405" type="line"/>
      <point x="205" y="437"/>
      <point x="262" y="471"/>
      <point x="324" y="469" type="curve" smooth="yes"/>
      <point x="411" y="466"/>
      <point x="419" y="389"/>
      <point x="399" y="320" type="curve" smooth="yes"/>
      <point x="288" y="0" type="line"/>
      <point x="278" y="0" type="line"/>
      <point x="390" y="320" type="line" smooth="yes"/>
      <point x="409" y="384"/>
      <point x="404" y="456"/>
      <point x="323" y="459" type="curve" smooth="yes"/>
      <point x="263" y="462"/>
      <point x="207" y="427"/>
    </contour>
    <contour>
      <point x="239" y="680" type="curve"/>
      <point x="249" y="680" type="line"/>
      <point x="237" y="610"/>
      <point x="263" y="552"/>
      <point x="342" y="551" type="curve" smooth="yes"/>
      <point x="426" y="550"/>
      <point x="489" y="610"/>
      <point x="528" y="678" type="curve"/>
      <point x="538" y="678" type="line"/>
      <point x="498" y="603"/>
      <point x="431" y="540"/>
      <point x="341" y="541" type="curve" smooth="yes"/>
      <point x="255" y="542"/>
      <point x="225" y="603"/>
    </contour>
  </outline>
</glyph>
<glyph name="Aogonek" format="1">
  <advance width="564"/>
  <unicode hex="0104"/>
  <outline>
    <contour>
      <point x="160" y="272" type="line"/>
      <point x="163" y="282" type="line"/>
      <point x="486" y="282" type="line"/>
      <point x="483" y="272" type="line"/>
    </contour>
    <contour>
      <point x="465" y="688" type="line"/>
      <point x="169" y="277" type="line"/>
      <point x="167" y="273" type="line"/>
      <point x="-30" y="0" type="line"/>
      <point x="-42" y="0" type="line"/>
      <point x="473" y="715" type="line"/>
      <point x="496" y="0" type="line"/>
      <point x="484" y="0" type="line"/>
      <point x="478" y="273" type="line"/>
      <point x="478" y="276" type="line"/>
    </contour>
    <contour>
      <point x="469" y="-174" type="curve"/>
      <point x="474" y="-182" type="line"/>
      <point x="442" y="-202"/>
      <point x="407" y="-220"/>
      <point x="368" y="-219" type="curve" smooth="yes"/>
      <point x="321" y="-218"/>
      <point x="283" y="-190"/>
      <point x="297" y="-139" type="curve" smooth="yes"/>
      <point x="319" y="-59"/>
      <point x="426" y="-20"/>
      <point x="493" y="9" type="curve"/>
      <point x="497" y="0" type="line"/>
      <point x="435" y="-30"/>
      <point x="327" y="-64"/>
      <point x="307" y="-140" type="curve" smooth="yes"/>
      <point x="295" y="-184"/>
      <point x="330" y="-208"/>
      <point x="370" y="-209" type="curve" smooth="yes"/>
      <point x="406" y="-210"/>
      <point x="439" y="-191"/>
    </contour>
  </outline>
</glyph>
<glyph name="Ccircumflex" format="1">
  <advance width="644"/>
  <unicode hex="0108"/>
  <outline>
    <contour>
      <point x="124" y="350" type="curve" smooth="yes"/>
      <point x="72" y="197"/>
      <point x="113" y="8"/>
      <point x="304" y="5" type="curve" smooth="yes"/>
      <point x="393" y="4"/>
      <point x="473" y="39"/>
      <point x="546" y="86" type="curve"/>
      <point x="540" y="71" type="line"/>
      <point x="467" y="26"/>
      <point x="389" y="-8"/>
      <point x="302" y="-7" type="curve" smooth="yes"/>
      <point x="104" y="-4"/>
      <point x="58" y="190"/>
      <point x="112" y="350" type="curve" smooth="yes"/>
      <point x="173" y="532"/>
      <point x="342" y="706"/>
      <point x="544" y="708" type="curve" smooth="yes"/>
      <point x="619" y="709"/>
      <point x="679" y="683"/>
      <point x="730" y="629" type="curve"/>
      <point x="725" y="614" type="line"/>
      <point x="678" y="672"/>
      <point x="616" y="697"/>
      <point x="542" y="696" type="curve" smooth="yes"/>
      <point x="346" y="694"/>
      <point x="184" y="525"/>
    </contour>
    <contour>
      <point x="613" y="902" type="line"/>
      <point x="421" y="770" type="line"/>
      <point x="416" y="777" type="line"/>
      <point x="615" y="914" type="line"/>
      <point x="719" y="775" type="line"/>
      <point x="711" y="768" type="line"/>
    </contour>
  </outline>
</glyph>
<glyph name="ccircumflex" format="1">
  <advance width="488"/>
  <unicode hex="0109"/>
  <outline>
    <contour>
      <point x="91" y="230" type="curve" smooth="yes"/>
      <point x="67" y="96"/>
      <point x="148" y="0"/>
      <point x="273" y="0" type="curve" smooth="yes"/>
      <point x="347" y="0"/>
      <point x="414" y="37"/>
      <point x="439" y="61" type="curve"/>
      <point x="436" y="48" type="line"/>
      <point x="410" y="23"/>
      <point x="344" y="-10"/>
      <point x="271" y="-10" type="curve" smooth="yes"/>
      <point x="139" y="-10"/>
      <point x="56" y="91"/>
      <point x="81" y="230" type="curve" smooth="yes"/>
      <point x="106" y="369"/>
      <point x="224" y="470"/>
      <point x="356" y="470" type="curve" smooth="yes"/>
      <point x="429" y="470"/>
      <point x="483" y="436"/>
      <point x="501" y="412" type="curve"/>
      <point x="498" y="399" type="line"/>
      <point x="481" y="423"/>
      <point x="428" y="460"/>
      <point x="354" y="460" type="curve" smooth="yes"/>
      <point x="229" y="460"/>
      <point x="115" y="364"/>
    </contour>
    <contour>
      <point x="390" y="665" type="line"/>
      <point x="213" y="530" type="line"/>
      <point x="208" y="537" type="line"/>
      <point x="392" y="677" type="line"/>
      <point x="528" y="537" type="line"/>
      <point x="519" y="530" type="line"/>
    </contour>
  </outline>
</glyph>
<glyph name="ccaron" format="1">
  <advance width="488"/>
  <unicode hex="010D"/>
  <outline>
    <contour>
      <point x="91" y="230" type="curve" smooth="yes"/>
      <point x="67" y="96"/>
      <point x="148" y="0"/>
      <point x="273" y="0" type="curve" smooth="yes"/>
      <point x="347" y="0"/>
      <point x="414" y="37"/>
      <point x="439" y="61" type="curve"/>
      <point x="436" y="48" type="line"/>
      <point x="410" y="23"/>
      <point x="344" y="-10"/>
      <point x="271" y="-10" type="curve" smooth="yes"/>
      <point x="139" y="-10"/>
      <point x="56" y="91"/>
      <point x="81" y="230" type="curve" smooth="yes"/>
      <point x="106" y="369"/>
      <point x="224" y="470"/>
      <point x="356" y="470" type="curve" smooth="yes"/>
      <point x="429" y="470"/>
      <point x="483" y="436"/>
      <point x="501" y="412" type="curve"/>
      <point x="498" y="399" type="line"/>
      <point x="481" y="423"/>
      <point x="428" y="460"/>
      <point x="354" y="460" type="curve" smooth="yes"/>
      <point x="229" y="460"/>
      <point x="115" y="364"/>
    </contour>
    <contour>
      <point x="372" y="562" type="line"/>
      <point x="548" y="698" type="line"/>
      <point x="555" y="690" type="line"/>
      <point x="370" y="550" type="line"/>
      <point x="235" y="690" type="line"/>
      <point x="244" y="698" type="line"/>
    </contour>
  </outline>
</glyph>
<glyph name="Dcaron" format="1">
  <advance width="635"/>
  <unicode hex="010E"/>
  <outline>
    <contour>
      <point x="216" y="689" type="line"/>
      <point x="218" y="700" type="line"/>
      <point x="373" y="700" type="line" smooth="yes"/>
      <point x="577" y="700"/>
      <point x="684" y="559"/>
      <point x="647" y="350" type="curve"/>
      <point x="636" y="350" type="line"/>
      <point x="672" y="553"/>
      <point x="571" y="689"/>
      <point x="371" y="689" type="curve" smooth="yes"/>
    </contour>
    <contour>
      <point x="250" y="0" type="curve" smooth="yes"/>
      <point x="95" y="0" type="line"/>
      <point x="97" y="11" type="line"/>
      <point x="252" y="11" type="line" smooth="yes"/>
      <point x="452" y="11"/>
      <point x="600" y="146"/>
      <point x="636" y="350" type="curve"/>
      <point x="647" y="350" type="line"/>
      <point x="610" y="141"/>
      <point x="454" y="0"/>
    </contour>
    <contour>
      <point x="213" y="700" type="line"/>
      <point x="224" y="700" type="line"/>
      <point x="101" y="0" type="line"/>
      <point x="90" y="0" type="line"/>
    </contour>
    <contour>
      <point x="387" y="790" type="line"/>
      <point x="563" y="926" type="line"/>
      <point x="570" y="918" type="line"/>
      <point x="385" y="778" type="line"/>
      <point x="250" y="918" type="line"/>
      <point x="259" y="926" type="line"/>
    </contour>
  </outline>
</glyph>
<glyph name="dcroat" format="1">
  <advance width="541"/>
  <unicode hex="0111"/>
  <outline>
    <contour>
      <point x="410" y="655" type="line"/>
      <point x="412" y="665" type="line"/>
      <point x="712" y="665" type="line"/>
      <point x="710" y="655" type="line"/>
    </contour>
    <contour>
      <point x="589" y="780" type="line"/>
      <point x="599" y="780" type="line"/>
      <point x="461" y="0" type="line"/>
      <point x="451" y="0" type="line"/>
    </contour>
    <contour>
      <point x="86" y="230" type="curve" smooth="yes"/>
      <point x="112" y="379"/>
      <point x="221" y="470"/>
      <point x="341" y="470" type="curve" smooth="yes"/>
      <point x="456" y="470"/>
      <point x="520" y="359"/>
      <point x="497" y="230" type="curve" smooth="yes"/>
      <point x="474" y="101"/>
      <point x="371" y="-10"/>
      <point x="256" y="-10" type="curve" smooth="yes"/>
      <point x="136" y="-10"/>
      <point x="60" y="81"/>
    </contour>
    <contour>
      <point x="96" y="230" type="curve" smooth="yes"/>
      <point x="71" y="89"/>
      <point x="146" y="0"/>
      <point x="261" y="0" type="curve" smooth="yes"/>
      <point x="376" y="0"/>
      <point x="473" y="124"/>
      <point x="492" y="230" type="curve" smooth="yes"/>
      <point x="511" y="336"/>
      <point x="457" y="460"/>
      <point x="342" y="460" type="curve" smooth="yes"/>
      <point x="227" y="460"/>
      <point x="121" y="371"/>
    </contour>
  </outline>
</glyph>
<glyph name="emacron" format="1">
  <advance width="472"/>
  <unicode hex="0113"/>
  <outline>
    <contour>
      <point x="85" y="228" type="line"/>
      <point x="88" y="238" type="line"/>
      <point x="457" y="238" type="line"/>
      <point x="493" y="321"/>
      <point x="473" y="456"/>
      <point x="349" y="458" type="curve" smooth="yes"/>
      <point x="221" y="460"/>
      <point x="125" y="338"/>
      <point x="88" y="234" type="curve"/>
      <point x="89" y="233" type="line"/>
      <point x="66" y="137"/>
      <point x="76" y="3"/>
      <point x="200" y="1" type="curve" smooth="yes"/>
      <point x="283" y="0"/>
      <point x="357" y="54"/>
      <point x="416" y="112" type="curve"/>
      <point x="423" y="105" type="line"/>
      <point x="362" y="44"/>
      <point x="289" y="-10"/>
      <point x="199" y="-9" type="curve" smooth="yes"/>
      <point x="71" y="-8"/>
      <point x="50" y="132"/>
      <point x="79" y="232" type="curve" smooth="yes"/>
      <point x="87" y="258"/>
      <point x="98" y="284"/>
      <point x="112" y="308" type="curve" smooth="yes"/>
      <point x="160" y="390"/>
      <point x="248" y="470"/>
      <point x="349" y="469" type="curve" smooth="yes"/>
      <point x="464" y="467"/>
      <point x="502" y="350"/>
      <point x="474" y="254" type="curve" smooth="yes"/>
      <point x="471" y="245"/>
      <point x="467" y="236"/>
      <point x="464" y="228" type="curve"/>
    </contour>
    <contour>
      <point x="194" y="529" type="line"/>
      <point x="197" y="539" type="line"/>
      <point x="526" y="539" type="line"/>
      <point x="523" y="529" type="line"/>
    </contour>
  </outline>
</glyph>
<glyph name="Ebreve" format="1">
  <advance width="510"/>
  <unicode hex="0114"/>
  <outline>
    <contour>
      <point x="92" y="0" type="line"/>
      <point x="94" y="10" type="line"/>
      <point x="432" y="10" type="line"/>
      <point x="430" y="0" type="line"/>
    </contour>
    <contour>
      <point x="214" y="690" type="line"/>
      <point x="215" y="700" type="line"/>
      <point x="553" y="700" type="line"/>
      <point x="552" y="690" type="line"/>
    </contour>
    <contour>
      <point x="160" y="384" type="line"/>
      <point x="161" y="394" type="line"/>
      <point x="479" y="394" type="line"/>
      <point x="478" y="384" type="line"/>
    </contour>
    <contour>
      <point x="213" y="700" type="line"/>
      <point x="224" y="700" type="line"/>
      <point x="101" y="0" type="line"/>
      <point x="90" y="0" type="line"/>
    </contour>
    <contour>
      <point x="272" y="908" type="curve"/>
      <point x="282" y="908" type="line"/>
      <point x="270" y="842"/>
      <point x="315" y="778"/>
      <point x="407" y="778" type="curve" smooth="yes"/>
      <point x="499" y="778"/>
      <point x="566" y="842"/>
      <point x="578" y="908" type="curve"/>
      <point x="588" y="908" type="line"/>
      <point x="576" y="839"/>
      <point x="510" y="768"/>
      <point x="405" y="768" type="curve" smooth="yes"/>
      <point x="300" y="768"/>
      <point x="260" y="839"/>
    </contour>
  </outline>
</glyph>
<glyph name="Eogonek" format="1">
  <advance width="479"/>
  <unicode hex="0118"/>
  <outline>
    <contour>
      <point x="32" y="0" type="line"/>
      <point x="35" y="10" type="line"/>
      <point x="354" y="10" type="line"/>
      <point x="351" y="0" type="line"/>
    </contour>
    <contour>
      <point x="268" y="690" type="line"/>
      <point x="271" y="700" type="line"/>
      <point x="589" y="700" type="line"/>
      <point x="586" y="690" type="line"/>
    </contour>
    <contour>
      <point x="163" y="384" type="line"/>
      <point x="167" y="394" type="line"/>
      <point x="466" y="394" type="line"/>
      <point x="463" y="384" type="line"/>
    </contour>
    <contour>
      <point x="270" y="699" type="line"/>
      <point x="281" y="699" type="line"/>
      <point x="40" y="0" type="line"/>
      <point x="29" y="0" type="line"/>
    </contour>
    <contour>
      <point x="323" y="-174" type="curve"/>
      <point x="328" y="-182" type="line"/>
      <point x="296" y="-202"/>
      <point x="261" y="-220"/>
      <point x="222" y="-219" type="curve" smooth="yes"/>
      <point x="175" y="-218"/>
      <point x="137" y="-190"/>
      <point x="151" y="-139" type="curve" smooth="yes"/>
      <point x="173" y="-59"/>
      <point x="280" y="-21"/>
      <point x="347" y="9" type="curve"/>
      <point x="351" y="0" type="line"/>
      <point x="289" y="-30"/>
      <point x="181" y="-64"/>
      <point x="161" y="-140" type="curve" smooth="yes"/>
      <point x="149" y="-184"/>
      <point x="184" y="-208"/>
      <point x="224" y="-209" type="curve" smooth="yes"/>
      <point x="260" y="-210"/>
      <point x="293" y="-191"/>
    </contour>
  </outline>
</glyph>
<glyph name="eogonek" format="1">
  <advance width="522"/>
  <unicode hex="0119"/>
  <outline>
    <contour>
      <point x="92" y="228" type="line"/>
      <point x="94" y="238" type="line"/>
      <point x="513" y="238" type="line"/>
      <point x="515" y="228" type="line"/>
    </contour>
    <contour>
      <point x="511" y="253" type="line" smooth="yes"/>
      <point x="532" y="372"/>
      <point x="451" y="460"/>
      <point x="346" y="460" type="curve" smooth="yes"/>
      <point x="238" y="460"/>
      <point x="121" y="375"/>
      <point x="96" y="232" type="curve"/>
      <point x="96" y="232" type="line"/>
      <point x="73" y="100"/>
      <point x="141" y="0"/>
      <point x="260" y="0" type="curve" smooth="yes"/>
      <point x="378" y="0"/>
      <point x="442" y="64"/>
      <point x="481" y="113" type="curve"/>
      <point x="488" y="107" type="line"/>
      <point x="450" y="59"/>
      <point x="383" y="-10"/>
      <point x="258" y="-10" type="curve" smooth="yes"/>
      <point x="133" y="-10"/>
      <point x="61" y="93"/>
      <point x="86" y="232" type="curve" smooth="yes"/>
      <point x="91" y="259"/>
      <point x="98" y="284"/>
      <point x="109" y="308" type="curve" smooth="yes"/>
      <point x="153" y="403"/>
      <point x="245" y="470"/>
      <point x="348" y="470" type="curve" smooth="yes"/>
      <point x="458" y="470"/>
      <point x="544" y="379"/>
      <point x="522" y="254" type="curve" smooth="yes"/>
      <point x="521" y="246"/>
      <point x="517" y="236"/>
      <point x="515" y="228" type="curve"/>
      <point x="507" y="230" type="line"/>
    </contour>
    <contour>
      <point x="266" y="-182" type="curve"/>
      <point x="271" y="-189" type="line"/>
      <point x="252" y="-209"/>
      <point x="209" y="-229"/>
      <point x="166" y="-229" type="curve" smooth="yes"/>
      <point x="102" y="-229"/>
      <point x="69" y="-198"/>
      <point x="78" y="-149" type="curve"/>
      <point x="88" y="-149" type="line"/>
      <point x="80" y="-195"/>
      <point x="117" y="-219"/>
      <point x="167" y="-219" type="curve" smooth="yes"/>
      <point x="207" y="-219"/>
      <point x="248" y="-200"/>
    </contour>
    <contour>
      <point x="88" y="-149" type="curve"/>
      <point x="78" y="-149" type="line"/>
      <point x="90" y="-80"/>
      <point x="180" y="-36"/>
      <point x="256" y="0" type="curve"/>
      <point x="262" y="-10" type="line"/>
      <point x="188" y="-42"/>
      <point x="98" y="-92"/>
    </contour>
  </outline>
</glyph>
<glyph name="Hcircumflex" format="1">
  <advance width="647"/>
  <unicode hex="0124"/>
  <outline>
    <contour>
      <point x="159" y="377" type="line"/>
      <point x="161" y="387" type="line"/>
      <point x="621" y="387" type="line"/>
      <point x="619" y="377" type="line"/>
    </contour>
    <contour>
      <point x="669" y="700" type="line"/>
      <point x="680" y="700" type="line"/>
      <point x="557" y="0" type="line"/>
      <point x="546" y="0" type="line"/>
    </contour>
    <contour>
      <point x="213" y="700" type="line"/>
      <point x="224" y="700" type="line"/>
      <point x="101" y="0" type="line"/>
      <point x="90" y="0" type="line"/>
    </contour>
    <contour>
      <point x="483" y="903" type="line"/>
      <point x="305" y="768" type="line"/>
      <point x="301" y="775" type="line"/>
      <point x="485" y="915" type="line"/>
      <point x="621" y="775" type="line"/>
      <point x="611" y="768" type="line"/>
    </contour>
  </outline>
</glyph>
<glyph name="Imacron" format="1">
  <advance width="169"/>
  <unicode hex="012A"/>
  <outline>
    <contour>
      <point x="266" y="699" type="line"/>
      <point x="276" y="699" type="line"/>
      <point x="34" y="0" type="line"/>
      <point x="24" y="0" type="line"/>
    </contour>
    <contour>
      <point x="182" y="835" type="line"/>
      <point x="185" y="845" type="line"/>
      <point x="515" y="845" type="line"/>
      <point x="511" y="835" type="line"/>
    </contour>
  </outline>
</glyph>
<glyph name="imacron" format="1">
  <advance width="178"/>
  <unicode hex="012B"/>
  <outline>
    <contour>
      <point x="189" y="459" type="line"/>
      <point x="198" y="459" type="line"/>
      <point x="39" y="0" type="line"/>
      <point x="29" y="0" type="line"/>
    </contour>
    <contour>
      <point x="106" y="595" type="line"/>
      <point x="110" y="605" type="line"/>
      <point x="439" y="605" type="line"/>
      <point x="436" y="595" type="line"/>
    </contour>
  </outline>
</glyph>
<glyph name="ibreve" format="1">
  <advance width="178"/>
  <unicode hex="012D"/>
  <outline>
    <contour>
      <point x="189" y="459" type="line"/>
      <point x="198" y="459" type="line"/>
      <point x="39" y="0" type="line"/>
      <point x="29" y="0" type="line"/>
    </contour>
    <contour>
      <point x="115" y="670" type="curve"/>
      <point x="125" y="670" type="line"/>
      <point x="113" y="600"/>
      <point x="139" y="542"/>
      <point x="218" y="541" type="curve" smooth="yes"/>
      <point x="302" y="540"/>
      <point x="365" y="600"/>
      <point x="404" y="668" type="curve"/>
      <point x="414" y="668" type="line"/>
      <point x="374" y="593"/>
      <point x="307" y="530"/>
      <point x="217" y="531" type="curve" smooth="yes"/>
      <point x="131" y="532"/>
      <point x="101" y="593"/>
    </contour>
  </outline>
</glyph>
<glyph name="Iogonek" format="1">
  <advance width="169"/>
  <unicode hex="012E"/>
  <outline>
    <contour>
      <point x="266" y="699" type="line"/>
      <point x="276" y="699" type="line"/>
      <point x="34" y="0" type="line"/>
      <point x="24" y="0" type="line"/>
    </contour>
    <contour>
      <point x="8" y="-174" type="curve"/>
      <point x="13" y="-182" type="line"/>
      <point x="-19" y="-202"/>
      <point x="-54" y="-220"/>
      <point x="-93" y="-219" type="curve" smooth="yes"/>
      <point x="-140" y="-218"/>
      <point x="-178" y="-190"/>
      <point x="-164" y="-139" type="curve" smooth="yes"/>
      <point x="-142" y="-59"/>
      <point x="-35" y="-21"/>
      <point x="32" y="9" type="curve"/>
      <point x="36" y="0" type="line"/>
      <point x="-26" y="-30"/>
      <point x="-135" y="-64"/>
      <point x="-155" y="-140" type="curve" smooth="yes"/>
      <point x="-167" y="-184"/>
      <point x="-131" y="-208"/>
      <point x="-91" y="-209" type="curve" smooth="yes"/>
      <point x="-55" y="-210"/>
      <point x="-22" y="-191"/>
    </contour>
  </outline>
</glyph>
<glyph name="ij" format="1">
  <advance width="510"/>
  <unicode hex="0133"/>
  <outline>
    <contour>
      <point x="458" y="695" type="curve" smooth="yes"/>
      <point x="459" y="701"/>
      <point x="462" y="705"/>
      <point x="469" y="705" type="curve" smooth="yes"/>
      <point x="476" y="705"/>
      <point x="479" y="701"/>
      <point x="478" y="695" type="curve" smooth="yes"/>
      <point x="477" y="689"/>
      <point x="473" y="685"/>
      <point x="466" y="685" type="curve" smooth="yes"/>
      <point x="459" y="685"/>
      <point x="457" y="689"/>
    </contour>
    <contour>
      <point x="135" y="-165" type="line"/>
      <point x="147" y="-185"/>
      <point x="168" y="-210"/>
      <point x="205" y="-210" type="curve" smooth="yes"/>
      <point x="285" y="-210"/>
      <point x="316" y="-138"/>
      <point x="326" y="-82" type="curve" smooth="yes"/>
      <point x="421" y="460" type="line"/>
      <point x="431" y="460" type="line"/>
      <point x="336" y="-82" type="line" smooth="yes"/>
      <point x="324" y="-151"/>
      <point x="287" y="-220"/>
      <point x="203" y="-220" type="curve" smooth="yes"/>
      <point x="160" y="-220"/>
      <point x="138" y="-192"/>
      <point x="127" y="-172" type="curve"/>
    </contour>
    <contour>
      <point x="208" y="695" type="curve" smooth="yes"/>
      <point x="209" y="701"/>
      <point x="212" y="705"/>
      <point x="219" y="705" type="curve" smooth="yes"/>
      <point x="226" y="705"/>
      <point x="229" y="701"/>
      <point x="228" y="695" type="curve" smooth="yes"/>
      <point x="227" y="689"/>
      <point x="223" y="685"/>
      <point x="216" y="685" type="curve" smooth="yes"/>
      <point x="209" y="685"/>
      <point x="207" y="689"/>
    </contour>
    <contour>
      <point x="171" y="460" type="line"/>
      <point x="181" y="460" type="line"/>
      <point x="100" y="0" type="line"/>
      <point x="90" y="0" type="line"/>
    </contour>
  </outline>
</glyph>
<glyph name="Jcircumflex" format="1">
  <advance width="185"/>
  <unicode hex="0134"/>
  <outline>
    <contour>
      <point x="-229" y="-159" type="line"/>
      <point x="-206" y="-186"/>
      <point x="-181" y="-207"/>
      <point x="-143" y="-208" type="curve" smooth="yes"/>
      <point x="-52" y="-211"/>
      <point x="-8" y="-124"/>
      <point x="19" y="-50" type="curve" smooth="yes"/>
      <point x="276" y="699" type="line"/>
      <point x="287" y="699" type="line"/>
      <point x="27" y="-60" type="line" smooth="yes"/>
      <point x="-1" y="-137"/>
      <point x="-50" y="-222"/>
      <point x="-143" y="-219" type="curve" smooth="yes"/>
      <point x="-185" y="-218"/>
      <point x="-213" y="-196"/>
      <point x="-237" y="-165" type="curve"/>
    </contour>
    <contour>
      <point x="351" y="902" type="line"/>
      <point x="158" y="770" type="line"/>
      <point x="155" y="777" type="line"/>
      <point x="354" y="914" type="line"/>
      <point x="458" y="775" type="line"/>
      <point x="448" y="768" type="line"/>
    </contour>
  </outline>
</glyph>
<glyph name="kgreenlandic" format="1">
  <advance width="372"/>
  <unicode hex="0138"/>
  <outline>
    <contour>
      <point x="161" y="460" type="line"/>
      <point x="171" y="460" type="line"/>
      <point x="90" y="0" type="line"/>
      <point x="80" y="0" type="line"/>
    </contour>
    <contour>
      <point x="409" y="460" type="line"/>
      <point x="425" y="460" type="line"/>
      <point x="150" y="270" type="line"/>
      <point x="362" y="0" type="line"/>
      <point x="348" y="0" type="line"/>
      <point x="136" y="270" type="line"/>
    </contour>
  </outline>
</glyph>
<glyph name="uni013B" format="1">
  <advance width="430"/>
  <unicode hex="013B"/>
  <outline>
    <contour>
      <point x="97" y="0" type="line"/>
      <point x="99" y="10" type="line"/>
      <point x="412" y="10" type="line"/>
      <point x="410" y="0" type="line"/>
    </contour>
    <contour>
      <point x="213" y="700" type="line"/>
      <point x="223" y="700" type="line"/>
      <point x="100" y="0" type="line"/>
      <point x="90" y="0" type="line"/>
    </contour>
    <contour>
      <point x="266" y="-60" type="line"/>
      <point x="277" y="-65" type="line"/>
      <point x="122" y="-315" type="line"/>
      <point x="117" y="-313" type="line"/>
    </contour>
  </outline>
</glyph>
<glyph name="lslash" format="1">
  <advance width="160"/>
  <unicode hex="0142"/>
  <outline>
    <contour>
      <point x="60" y="387" type="line"/>
      <point x="55" y="395" type="line"/>
      <point x="261" y="545" type="line"/>
      <point x="267" y="537" type="line"/>
    </contour>
    <contour>
      <point x="213" y="780" type="line"/>
      <point x="223" y="780" type="line"/>
      <point x="85" y="0" type="line"/>
      <point x="75" y="0" type="line"/>
    </contour>
  </outline>
</glyph>
<glyph name="Nacute" format="1">
  <advance width="625"/>
  <unicode hex="0143"/>
  <outline>
    <contour>
      <point x="735" y="699" type="line"/>
      <point x="746" y="699" type="line"/>
      <point x="500" y="-15" type="line"/>
      <point x="236" y="678" type="line"/>
      <point x="2" y="0" type="line"/>
      <point x="-9" y="0" type="line"/>
      <point x="237" y="715" type="line"/>
      <point x="500" y="17" type="line"/>
    </contour>
    <contour>
      <point x="706" y="910" type="line"/>
      <point x="487" y="757" type="line"/>
      <point x="484" y="762" type="line"/>
      <point x="701" y="918" type="line"/>
    </contour>
  </outline>
</glyph>
<glyph name="uni0145" format="1">
  <advance width="625"/>
  <unicode hex="0145"/>
  <outline>
    <contour>
      <point x="254" y="-47" type="line"/>
      <point x="263" y="-52" type="line"/>
      <point x="71" y="-298" type="line"/>
      <point x="65" y="-296" type="line"/>
    </contour>
    <contour>
      <point x="735" y="699" type="line"/>
      <point x="746" y="699" type="line"/>
      <point x="500" y="-15" type="line"/>
      <point x="236" y="678" type="line"/>
      <point x="2" y="0" type="line"/>
      <point x="-9" y="0" type="line"/>
      <point x="237" y="715" type="line"/>
      <point x="500" y="17" type="line"/>
    </contour>
  </outline>
</glyph>
<glyph name="Ncaron" format="1">
  <advance width="625"/>
  <unicode hex="0147"/>
  <outline>
    <contour>
      <point x="530" y="778" type="line"/>
      <point x="721" y="911" type="line"/>
      <point x="726" y="903" type="line"/>
      <point x="527" y="766" type="line"/>
      <point x="423" y="905" type="line"/>
      <point x="433" y="913" type="line"/>
    </contour>
    <contour>
      <point x="735" y="699" type="line"/>
      <point x="746" y="699" type="line"/>
      <point x="500" y="-15" type="line"/>
      <point x="236" y="678" type="line"/>
      <point x="2" y="0" type="line"/>
      <point x="-9" y="0" type="line"/>
      <point x="237" y="715" type="line"/>
      <point x="500" y="17" type="line"/>
    </contour>
  </outline>
</glyph>
<glyph name="ncaron" format="1">
  <advance width="446"/>
  <unicode hex="0148"/>
  <outline>
    <contour>
      <point x="194" y="459" type="line"/>
      <point x="34" y="0" type="line"/>
      <point x="24" y="0" type="line"/>
      <point x="184" y="459" type="line"/>
    </contour>
    <contour>
      <point x="413" y="320" type="line" smooth="yes"/>
      <point x="432" y="384"/>
      <point x="429" y="457"/>
      <point x="346" y="459" type="curve" smooth="yes"/>
      <point x="244" y="461"/>
      <point x="170" y="363"/>
      <point x="129" y="282" type="curve"/>
      <point x="124" y="282" type="line"/>
      <point x="165" y="369"/>
      <point x="239" y="470"/>
      <point x="347" y="469" type="curve" smooth="yes"/>
      <point x="436" y="468"/>
      <point x="444" y="389"/>
      <point x="423" y="320" type="curve" smooth="yes"/>
      <point x="311" y="0" type="line"/>
      <point x="302" y="0" type="line"/>
    </contour>
    <contour>
      <point x="354" y="543" type="line"/>
      <point x="545" y="676" type="line"/>
      <point x="550" y="668" type="line"/>
      <point x="351" y="531" type="line"/>
      <point x="247" y="670" type="line"/>
      <point x="257" y="678" type="line"/>
    </contour>
  </outline>
</glyph>
<glyph name="napostrophe" format="1">
  <advance width="578"/>
  <unicode hex="0149"/>
  <outline>
    <contour>
      <point x="278" y="459" type="line"/>
      <point x="119" y="0" type="line"/>
      <point x="109" y="0" type="line"/>
      <point x="269" y="459" type="line"/>
    </contour>
    <contour>
      <point x="498" y="320" type="line" smooth="yes"/>
      <point x="517" y="384"/>
      <point x="514" y="457"/>
      <point x="431" y="459" type="curve" smooth="yes"/>
      <point x="329" y="461"/>
      <point x="255" y="363"/>
      <point x="214" y="282" type="curve"/>
      <point x="209" y="282" type="line"/>
      <point x="250" y="369"/>
      <point x="324" y="470"/>
      <point x="432" y="469" type="curve" smooth="yes"/>
      <point x="521" y="468"/>
      <point x="528" y="389"/>
      <point x="507" y="320" type="curve" smooth="yes"/>
      <point x="396" y="0" type="line"/>
      <point x="386" y="0" type="line"/>
    </contour>
    <contour>
      <point x="349" y="698" type="line"/>
      <point x="361" y="698" type="line"/>
      <point x="189" y="472" type="line"/>
      <point x="179" y="472" type="line"/>
    </contour>
  </outline>
</glyph>
<glyph name="Omacron" format="1">
  <advance width="728"/>
  <unicode hex="014C"/>
  <outline>
    <contour>
      <point x="123" y="350" type="curve" smooth="yes"/>
      <point x="70" y="194"/>
      <point x="117" y="4"/>
      <point x="310" y="3" type="curve" smooth="yes"/>
      <point x="507" y="2"/>
      <point x="676" y="174"/>
      <point x="736" y="350" type="curve" smooth="yes"/>
      <point x="789" y="506"/>
      <point x="742" y="696"/>
      <point x="549" y="697" type="curve" smooth="yes"/>
      <point x="352" y="698"/>
      <point x="183" y="526"/>
    </contour>
    <contour>
      <point x="112" y="350" type="curve" smooth="yes"/>
      <point x="173" y="532"/>
      <point x="348" y="709"/>
      <point x="550" y="708" type="curve" smooth="yes"/>
      <point x="748" y="707"/>
      <point x="801" y="512"/>
      <point x="747" y="350" type="curve" smooth="yes"/>
      <point x="686" y="168"/>
      <point x="511" y="-9"/>
      <point x="309" y="-8" type="curve" smooth="yes"/>
      <point x="111" y="-7"/>
      <point x="58" y="188"/>
    </contour>
    <contour>
      <point x="414" y="788" type="line"/>
      <point x="417" y="798" type="line"/>
      <point x="747" y="798" type="line"/>
      <point x="744" y="788" type="line"/>
    </contour>
  </outline>
</glyph>
<glyph name="Obreve" format="1">
  <advance width="728"/>
  <unicode hex="014E"/>
  <outline>
    <contour>
      <point x="123" y="350" type="curve" smooth="yes"/>
      <point x="70" y="194"/>
      <point x="117" y="4"/>
      <point x="310" y="3" type="curve" smooth="yes"/>
      <point x="507" y="2"/>
      <point x="676" y="174"/>
      <point x="736" y="350" type="curve" smooth="yes"/>
      <point x="789" y="506"/>
      <point x="742" y="696"/>
      <point x="549" y="697" type="curve" smooth="yes"/>
      <point x="352" y="698"/>
      <point x="183" y="526"/>
    </contour>
    <contour>
      <point x="112" y="350" type="curve" smooth="yes"/>
      <point x="173" y="532"/>
      <point x="348" y="709"/>
      <point x="550" y="708" type="curve" smooth="yes"/>
      <point x="748" y="707"/>
      <point x="801" y="512"/>
      <point x="747" y="350" type="curve" smooth="yes"/>
      <point x="686" y="168"/>
      <point x="511" y="-9"/>
      <point x="309" y="-8" type="curve" smooth="yes"/>
      <point x="111" y="-7"/>
      <point x="58" y="188"/>
    </contour>
    <contour>
      <point x="471" y="908" type="curve"/>
      <point x="481" y="908" type="line"/>
      <point x="469" y="838"/>
      <point x="495" y="780"/>
      <point x="574" y="779" type="curve" smooth="yes"/>
      <point x="658" y="778"/>
      <point x="721" y="838"/>
      <point x="760" y="906" type="curve"/>
      <point x="770" y="906" type="line"/>
      <point x="730" y="831"/>
      <point x="663" y="768"/>
      <point x="573" y="769" type="curve" smooth="yes"/>
      <point x="487" y="770"/>
      <point x="457" y="831"/>
    </contour>
  </outline>
</glyph>
<glyph name="OE" format="1">
  <advance width="951"/>
  <unicode hex="0152"/>
  <outline>
    <contour>
      <point x="585" y="385" type="line"/>
      <point x="587" y="395" type="line"/>
      <point x="920" y="395" type="line"/>
      <point x="918" y="385" type="line"/>
    </contour>
    <contour>
      <point x="638" y="695" type="line"/>
      <point x="649" y="695" type="line"/>
      <point x="527" y="5" type="line"/>
      <point x="516" y="5" type="line"/>
    </contour>
    <contour>
      <point x="873" y="10" type="line"/>
      <point x="871" y="0" type="line"/>
      <point x="390" y="0" type="line" smooth="yes"/>
      <point x="187" y="0"/>
      <point x="65" y="141"/>
      <point x="102" y="350" type="curve" smooth="yes"/>
      <point x="139" y="559"/>
      <point x="309" y="700"/>
      <point x="513" y="700" type="curve" smooth="yes"/>
      <point x="993" y="700" type="line"/>
      <point x="992" y="690" type="line"/>
      <point x="645" y="690" type="line"/>
      <point x="628" y="690" type="line"/>
      <point x="512" y="690" type="line" smooth="yes"/>
      <point x="319" y="690"/>
      <point x="147" y="548"/>
      <point x="112" y="350" type="curve" smooth="yes"/>
      <point x="77" y="152"/>
      <point x="200" y="10"/>
      <point x="392" y="10" type="curve" smooth="yes"/>
      <point x="505" y="10" type="line"/>
      <point x="529" y="10" type="line"/>
    </contour>
  </outline>
</glyph>
<glyph name="oe" format="1">
  <advance width="871"/>
  <unicode hex="0153"/>
  <outline>
    <contour>
      <point x="849" y="250" type="line"/>
      <point x="882" y="343"/>
      <point x="846" y="457"/>
      <point x="733" y="458" type="curve" smooth="yes"/>
      <point x="602" y="459"/>
      <point x="506" y="341"/>
      <point x="455" y="234" type="curve"/>
      <point x="457" y="233" type="line"/>
      <point x="427" y="131"/>
      <point x="439" y="3"/>
      <point x="573" y="1" type="curve" smooth="yes"/>
      <point x="662" y="0"/>
      <point x="737" y="53"/>
      <point x="799" y="111" type="curve"/>
      <point x="805" y="104" type="line"/>
      <point x="740" y="46"/>
      <point x="663" y="-11"/>
      <point x="572" y="-9" type="curve" smooth="yes"/>
      <point x="440" y="-6"/>
      <point x="415" y="125"/>
      <point x="449" y="230" type="curve" smooth="yes"/>
      <point x="454" y="247"/>
      <point x="461" y="263"/>
      <point x="469" y="279" type="curve" smooth="yes"/>
      <point x="518" y="375"/>
      <point x="618" y="470"/>
      <point x="733" y="469" type="curve" smooth="yes"/>
      <point x="850" y="468"/>
      <point x="895" y="352"/>
      <point x="861" y="253" type="curve" smooth="yes"/>
      <point x="858" y="245"/>
      <point x="854" y="237"/>
      <point x="850" y="229" type="curve"/>
      <point x="840" y="230" type="line"/>
    </contour>
    <contour>
      <point x="452" y="228" type="line"/>
      <point x="455" y="238" type="line"/>
      <point x="854" y="238" type="line"/>
      <point x="851" y="228" type="line"/>
    </contour>
    <contour>
      <point x="66" y="230" type="curve" smooth="yes"/>
      <point x="105" y="345"/>
      <point x="212" y="471"/>
      <point x="343" y="469" type="curve" smooth="yes"/>
      <point x="471" y="467"/>
      <point x="489" y="327"/>
      <point x="456" y="230" type="curve" smooth="yes"/>
      <point x="418" y="117"/>
      <point x="311" y="-9"/>
      <point x="182" y="-9" type="curve" smooth="yes"/>
      <point x="50" y="-9"/>
      <point x="32" y="130"/>
    </contour>
    <contour>
      <point x="76" y="230" type="curve" smooth="yes"/>
      <point x="43" y="134"/>
      <point x="58" y="1"/>
      <point x="185" y="1" type="curve" smooth="yes"/>
      <point x="307" y="1"/>
      <point x="412" y="123"/>
      <point x="449" y="230" type="curve" smooth="yes"/>
      <point x="480" y="321"/>
      <point x="466" y="456"/>
      <point x="345" y="459" type="curve" smooth="yes"/>
      <point x="218" y="462"/>
      <point x="114" y="340"/>
    </contour>
  </outline>
</glyph>
<glyph name="uni0157" format="1">
  <advance width="272"/>
  <unicode hex="0157"/>
  <outline>
    <contour>
      <point x="194" y="459" type="line"/>
      <point x="34" y="0" type="line"/>
      <point x="24" y="0" type="line"/>
      <point x="184" y="459" type="line"/>
    </contour>
    <contour>
      <point x="351" y="440" type="line"/>
      <point x="336" y="449"/>
      <point x="322" y="458"/>
      <point x="304" y="459" type="curve" smooth="yes"/>
      <point x="213" y="464"/>
      <point x="159" y="349"/>
      <point x="129" y="281" type="curve"/>
      <point x="124" y="281" type="line"/>
      <point x="155" y="354"/>
      <point x="208" y="476"/>
      <point x="305" y="469" type="curve" smooth="yes"/>
      <point x="325" y="468"/>
      <point x="341" y="457"/>
      <point x="358" y="447" type="curve"/>
    </contour>
    <contour>
      <point x="18" y="-62" type="line"/>
      <point x="27" y="-67" type="line"/>
      <point x="-165" y="-313" type="line"/>
      <point x="-171" y="-311" type="line"/>
    </contour>
  </outline>
</glyph>
<glyph name="Scircumflex" format="1">
  <advance width="459"/>
  <unicode hex="015C"/>
  <outline>
    <contour>
      <point x="60" y="197" type="line"/>
      <point x="59" y="110"/>
      <point x="77" y="6"/>
      <point x="185" y="4" type="curve" smooth="yes"/>
      <point x="289" y="2"/>
      <point x="381" y="78"/>
      <point x="412" y="175" type="curve" smooth="yes"/>
      <point x="439" y="261"/>
      <point x="393" y="320"/>
      <point x="320" y="359" type="curve" smooth="yes"/>
      <point x="244" y="399"/>
      <point x="177" y="455"/>
      <point x="208" y="550" type="curve" smooth="yes"/>
      <point x="237" y="637"/>
      <point x="332" y="708"/>
      <point x="424" y="707" type="curve" smooth="yes"/>
      <point x="517" y="706"/>
      <point x="546" y="631"/>
      <point x="546" y="550" type="curve"/>
      <point x="536" y="548" type="line"/>
      <point x="536" y="623"/>
      <point x="510" y="695"/>
      <point x="423" y="696" type="curve" smooth="yes"/>
      <point x="337" y="697"/>
      <point x="247" y="631"/>
      <point x="219" y="550" type="curve" smooth="yes"/>
      <point x="187" y="459"/>
      <point x="255" y="406"/>
      <point x="327" y="368" type="curve" smooth="yes"/>
      <point x="404" y="328"/>
      <point x="451" y="265"/>
      <point x="423" y="175" type="curve" smooth="yes"/>
      <point x="391" y="73"/>
      <point x="294" y="-9"/>
      <point x="184" y="-7" type="curve" smooth="yes"/>
      <point x="71" y="-5"/>
      <point x="49" y="100"/>
      <point x="50" y="193" type="curve"/>
    </contour>
    <contour>
      <point x="493" y="902" type="line"/>
      <point x="302" y="770" type="line"/>
      <point x="297" y="777" type="line"/>
      <point x="496" y="914" type="line"/>
      <point x="600" y="775" type="line"/>
      <point x="591" y="768" type="line"/>
    </contour>
  </outline>
</glyph>
<glyph name="scedilla" format="1">
  <advance width="379"/>
  <unicode hex="015F"/>
  <outline>
    <contour>
      <point x="43" y="147" type="line"/>
      <point x="37" y="80"/>
      <point x="46" y="1"/>
      <point x="131" y="0" type="curve" smooth="yes"/>
      <point x="198" y="-1"/>
      <point x="269" y="53"/>
      <point x="289" y="117" type="curve" smooth="yes"/>
      <point x="309" y="180"/>
      <point x="262" y="210"/>
      <point x="211" y="231" type="curve" smooth="yes"/>
      <point x="152" y="256"/>
      <point x="106" y="288"/>
      <point x="131" y="359" type="curve" smooth="yes"/>
      <point x="154" y="423"/>
      <point x="223" y="468"/>
      <point x="290" y="467" type="curve" smooth="yes"/>
      <point x="353" y="466"/>
      <point x="376" y="424"/>
      <point x="383" y="368" type="curve"/>
      <point x="373" y="365" type="line"/>
      <point x="366" y="416"/>
      <point x="347" y="456"/>
      <point x="289" y="457" type="curve" smooth="yes"/>
      <point x="228" y="458"/>
      <point x="161" y="417"/>
      <point x="140" y="359" type="curve" smooth="yes"/>
      <point x="115" y="291"/>
      <point x="163" y="263"/>
      <point x="218" y="240" type="curve" smooth="yes"/>
      <point x="273" y="217"/>
      <point x="319" y="183"/>
      <point x="299" y="117" type="curve" smooth="yes"/>
      <point x="278" y="47"/>
      <point x="203" y="-10"/>
      <point x="130" y="-9" type="curve" smooth="yes"/>
      <point x="39" y="-8"/>
      <point x="26" y="70"/>
      <point x="33" y="144" type="curve"/>
    </contour>
    <contour>
      <point x="126" y="-4" type="line"/>
      <point x="138" y="-4" type="line"/>
      <point x="57" y="-78" type="line"/>
      <point x="79" y="-68"/>
      <point x="106" y="-53"/>
      <point x="131" y="-56" type="curve" smooth="yes"/>
      <point x="170" y="-60"/>
      <point x="186" y="-94"/>
      <point x="176" y="-130" type="curve" smooth="yes"/>
      <point x="162" y="-183"/>
      <point x="96" y="-223"/>
      <point x="43" y="-222" type="curve" smooth="yes"/>
      <point x="11" y="-222"/>
      <point x="-8" y="-206"/>
      <point x="-29" y="-185" type="curve"/>
      <point x="-21" y="-179" type="line"/>
      <point x="-2" y="-197"/>
      <point x="17" y="-212"/>
      <point x="45" y="-212" type="curve" smooth="yes"/>
      <point x="93" y="-212"/>
      <point x="153" y="-177"/>
      <point x="167" y="-129" type="curve" smooth="yes"/>
      <point x="176" y="-99"/>
      <point x="163" y="-70"/>
      <point x="130" y="-66" type="curve" smooth="yes"/>
      <point x="101" y="-62"/>
      <point x="69" y="-79"/>
      <point x="43" y="-90" type="curve"/>
    </contour>
  </outline>
</glyph>
<glyph name="scaron" format="1">
  <advance width="403"/>
  <unicode hex="0161"/>
  <outline>
    <contour>
      <point x="76" y="147" type="line"/>
      <point x="77" y="76"/>
      <point x="101" y="0"/>
      <point x="198" y="0" type="curve" smooth="yes"/>
      <point x="270" y="0"/>
      <point x="330" y="45"/>
      <point x="343" y="117" type="curve" smooth="yes"/>
      <point x="355" y="183"/>
      <point x="302" y="211"/>
      <point x="238" y="231" type="curve" smooth="yes"/>
      <point x="169" y="252"/>
      <point x="115" y="272"/>
      <point x="130" y="359" type="curve" smooth="yes"/>
      <point x="143" y="430"/>
      <point x="208" y="468"/>
      <point x="280" y="468" type="curve" smooth="yes"/>
      <point x="360" y="468"/>
      <point x="387" y="419"/>
      <point x="396" y="368" type="curve"/>
      <point x="385" y="365" type="line"/>
      <point x="376" y="413"/>
      <point x="350" y="458"/>
      <point x="278" y="458" type="curve" smooth="yes"/>
      <point x="213" y="458"/>
      <point x="151" y="424"/>
      <point x="140" y="359" type="curve" smooth="yes"/>
      <point x="126" y="278"/>
      <point x="179" y="260"/>
      <point x="245" y="240" type="curve" smooth="yes"/>
      <point x="308" y="221"/>
      <point x="366" y="189"/>
      <point x="353" y="117" type="curve" smooth="yes"/>
      <point x="339" y="38"/>
      <point x="275" y="-10"/>
      <point x="196" y="-10" type="curve" smooth="yes"/>
      <point x="91" y="-10"/>
      <point x="66" y="69"/>
      <point x="65" y="144" type="curve"/>
    </contour>
    <contour>
      <point x="293" y="542" type="line"/>
      <point x="469" y="678" type="line"/>
      <point x="475" y="670" type="line"/>
      <point x="290" y="530" type="line"/>
      <point x="155" y="670" type="line"/>
      <point x="165" y="678" type="line"/>
    </contour>
  </outline>
</glyph>
<glyph name="Tcaron" format="1">
  <advance width="405"/>
  <unicode hex="0164"/>
  <outline>
    <contour>
      <point x="200" y="689" type="line"/>
      <point x="203" y="700" type="line"/>
      <point x="572" y="700" type="line"/>
      <point x="568" y="689" type="line"/>
      <point x="389" y="689" type="line"/>
      <point x="153" y="0" type="line"/>
      <point x="142" y="0" type="line"/>
      <point x="378" y="689" type="line"/>
    </contour>
    <contour>
      <point x="414" y="781" type="line"/>
      <point x="605" y="914" type="line"/>
      <point x="610" y="906" type="line"/>
      <point x="411" y="769" type="line"/>
      <point x="307" y="908" type="line"/>
      <point x="317" y="916" type="line"/>
    </contour>
  </outline>
</glyph>
<glyph name="Utilde" format="1">
  <advance width="541"/>
  <unicode hex="0168"/>
  <outline>
    <contour>
      <point x="266" y="699" type="line"/>
      <point x="276" y="699" type="line"/>
      <point x="111" y="220" type="line" smooth="yes"/>
      <point x="81" y="124"/>
      <point x="90" y="3"/>
      <point x="216" y="2" type="curve" smooth="yes"/>
      <point x="342" y="1"/>
      <point x="432" y="112"/>
      <point x="472" y="220" type="curve" smooth="yes"/>
      <point x="637" y="699" type="line"/>
      <point x="648" y="699" type="line"/>
      <point x="484" y="220" type="line" smooth="yes"/>
      <point x="442" y="104"/>
      <point x="349" y="-10"/>
      <point x="215" y="-9" type="curve" smooth="yes"/>
      <point x="81" y="-8"/>
      <point x="69" y="116"/>
      <point x="101" y="220" type="curve" smooth="yes"/>
    </contour>
    <contour>
      <point x="362.929" y="769" type="line"/>
      <point x="380.929" y="796"/>
      <point x="401.929" y="825"/>
      <point x="438.929" y="825" type="curve" smooth="yes"/>
      <point x="478.929" y="825"/>
      <point x="500.929" y="778"/>
      <point x="541.929" y="780" type="curve" smooth="yes"/>
      <point x="570.929" y="781"/>
      <point x="591.929" y="807"/>
      <point x="609.929" y="826" type="curve"/>
      <point x="618.929" y="823" type="line"/>
      <point x="597.929" y="801"/>
      <point x="572.929" y="772"/>
      <point x="539.929" y="772" type="curve" smooth="yes"/>
      <point x="500.929" y="772"/>
      <point x="479.929" y="816"/>
      <point x="440.929" y="817" type="curve" smooth="yes"/>
      <point x="407.929" y="818"/>
      <point x="388.929" y="792"/>
      <point x="371.929" y="768" type="curve"/>
    </contour>
  </outline>
</glyph>
<glyph name="utilde" format="1">
  <advance width="446"/>
  <unicode hex="0169"/>
  <outline>
    <contour>
      <point x="302" y="0" type="line"/>
      <point x="461" y="459" type="line"/>
      <point x="471" y="459" type="line"/>
      <point x="312" y="0" type="line"/>
    </contour>
    <contour>
      <point x="86" y="150" type="line" smooth="yes"/>
      <point x="66" y="86"/>
      <point x="62" y="2"/>
      <point x="150" y="1" type="curve" smooth="yes"/>
      <point x="252" y="-1"/>
      <point x="325" y="96"/>
      <point x="366" y="178" type="curve"/>
      <point x="372" y="178" type="line"/>
      <point x="331" y="91"/>
      <point x="256" y="-11"/>
      <point x="148" y="-9" type="curve" smooth="yes"/>
      <point x="53" y="-8"/>
      <point x="54" y="80"/>
      <point x="76" y="150" type="curve" smooth="yes"/>
      <point x="184" y="459" type="line"/>
      <point x="194" y="459" type="line"/>
    </contour>
    <contour>
      <point x="231" y="532" type="line"/>
      <point x="250" y="559"/>
      <point x="273" y="588"/>
      <point x="310" y="588" type="curve" smooth="yes"/>
      <point x="350" y="588"/>
      <point x="370" y="541"/>
      <point x="410" y="543" type="curve" smooth="yes"/>
      <point x="439" y="544"/>
      <point x="462" y="570"/>
      <point x="481" y="589" type="curve"/>
      <point x="489" y="586" type="line"/>
      <point x="468" y="564"/>
      <point x="443" y="535"/>
      <point x="409" y="535" type="curve" smooth="yes"/>
      <point x="370" y="535"/>
      <point x="350" y="579"/>
      <point x="311" y="580" type="curve" smooth="yes"/>
      <point x="278" y="581"/>
      <point x="257" y="555"/>
      <point x="240" y="531" type="curve"/>
    </contour>
  </outline>
</glyph>
<glyph name="Ydieresis" format="1">
  <advance width="477"/>
  <unicode hex="0178"/>
  <outline>
    <contour>
      <point x="354" y="780" type="curve" smooth="yes"/>
      <point x="355" y="785"/>
      <point x="364" y="790"/>
      <point x="369" y="790" type="curve" smooth="yes"/>
      <point x="374" y="790"/>
      <point x="378" y="784"/>
      <point x="377" y="779" type="curve" smooth="yes"/>
      <point x="376" y="775"/>
      <point x="368" y="768"/>
      <point x="363" y="768" type="curve" smooth="yes"/>
      <point x="358" y="768"/>
      <point x="353" y="775"/>
    </contour>
    <contour>
      <point x="524" y="780" type="curve" smooth="yes"/>
      <point x="525" y="785"/>
      <point x="534" y="790"/>
      <point x="539" y="790" type="curve" smooth="yes"/>
      <point x="544" y="790"/>
      <point x="547" y="784"/>
      <point x="546" y="779" type="curve" smooth="yes"/>
      <point x="545" y="775"/>
      <point x="537" y="768"/>
      <point x="532" y="768" type="curve" smooth="yes"/>
      <point x="527" y="768"/>
      <point x="523" y="775"/>
    </contour>
    <contour>
      <point x="636" y="698" type="line"/>
      <point x="649" y="698" type="line"/>
      <point x="276" y="266" type="line"/>
      <point x="184" y="0" type="line"/>
      <point x="173" y="0" type="line"/>
      <point x="266" y="267" type="line"/>
      <point x="199" y="700" type="line"/>
      <point x="211" y="700" type="line"/>
      <point x="274" y="282" type="line"/>
    </contour>
  </outline>
</glyph>
<glyph name="Zacute" format="1">
  <advance width="503"/>
  <unicode hex="0179"/>
  <outline>
    <contour>
      <point x="218" y="689" type="line"/>
      <point x="222" y="700" type="line"/>
      <point x="675" y="699" type="line"/>
      <point x="-10" y="12" type="line"/>
      <point x="430" y="11" type="line"/>
      <point x="426" y="0" type="line"/>
      <point x="-37" y="0" type="line"/>
      <point x="649" y="688" type="line"/>
    </contour>
    <contour>
      <point x="664" y="923" type="line"/>
      <point x="444" y="770" type="line"/>
      <point x="442" y="775" type="line"/>
      <point x="658" y="931" type="line"/>
    </contour>
  </outline>
</glyph>
<glyph name="zacute" format="1">
  <advance width="404"/>
  <unicode hex="017A"/>
  <outline>
    <contour>
      <point x="455" y="449" type="line"/>
      <point x="137" y="450" type="line"/>
      <point x="140" y="460" type="line"/>
      <point x="480" y="459" type="line"/>
      <point x="-12" y="11" type="line"/>
      <point x="335" y="10" type="line"/>
      <point x="332" y="0" type="line"/>
      <point x="-37" y="0" type="line"/>
    </contour>
    <contour>
      <point x="526" y="685" type="line"/>
      <point x="307" y="532" type="line"/>
      <point x="304" y="537" type="line"/>
      <point x="520" y="693" type="line"/>
    </contour>
  </outline>
</glyph>
<glyph name="Zdotaccent" format="1">
  <advance width="503"/>
  <unicode hex="017B"/>
  <outline>
    <contour>
      <point x="218" y="689" type="line"/>
      <point x="222" y="700" type="line"/>
      <point x="675" y="699" type="line"/>
      <point x="-10" y="12" type="line"/>
      <point x="430" y="11" type="line"/>
      <point x="426" y="0" type="line"/>
      <point x="-37" y="0" type="line"/>
      <point x="649" y="688" type="line"/>
    </contour>
    <contour>
      <point x="465" y="779" type="curve" smooth="yes"/>
      <point x="466" y="783"/>
      <point x="473" y="790"/>
      <point x="478" y="790" type="curve" smooth="yes"/>
      <point x="483" y="790"/>
      <point x="487" y="784"/>
      <point x="486" y="779" type="curve" smooth="yes"/>
      <point x="485" y="775"/>
      <point x="477" y="768"/>
      <point x="472" y="768" type="curve" smooth="yes"/>
      <point x="467" y="768"/>
      <point x="464" y="774"/>
    </contour>
  </outline>
</glyph>
<glyph name="zcaron" format="1">
  <advance width="430"/>
  <unicode hex="017E"/>
  <outline>
    <contour>
      <point x="37" y="10" type="line"/>
      <point x="412" y="10" type="line"/>
      <point x="410" y="0" type="line"/>
      <point x="20" y="0" type="line"/>
    </contour>
    <contour>
      <point x="121" y="460" type="line"/>
      <point x="481" y="460" type="line"/>
      <point x="464" y="450" type="line"/>
      <point x="119" y="450" type="line"/>
    </contour>
    <contour>
      <point x="468" y="460" type="line"/>
      <point x="481" y="460" type="line"/>
      <point x="33" y="0" type="line"/>
      <point x="20" y="0" type="line"/>
    </contour>
    <contour>
      <point x="341" y="542" type="line"/>
      <point x="517" y="678" type="line"/>
      <point x="523" y="670" type="line"/>
      <point x="338" y="530" type="line"/>
      <point x="203" y="670" type="line"/>
      <point x="213" y="678" type="line"/>
    </contour>
  </outline>
</glyph>
<glyph name="uni0212" format="1">
  <advance width="468"/>
  <unicode hex="0212"/>
  <outline>
    <contour>
      <point x="255" y="317" type="line"/>
      <point x="267" y="317" type="line"/>
      <point x="433" y="0" type="line"/>
      <point x="419" y="0" type="line"/>
    </contour>
    <contour>
      <point x="213" y="700" type="line"/>
      <point x="224" y="700" type="line"/>
      <point x="101" y="0" type="line"/>
      <point x="90" y="0" type="line"/>
    </contour>
    <contour>
      <point x="213" y="689" type="line"/>
      <point x="215" y="700" type="line"/>
      <point x="328" y="700" type="line" smooth="yes"/>
      <point x="463" y="700"/>
      <point x="553" y="636"/>
      <point x="530" y="507" type="curve" smooth="yes"/>
      <point x="507" y="378"/>
      <point x="395" y="314"/>
      <point x="260" y="314" type="curve" smooth="yes"/>
      <point x="147" y="314" type="line"/>
      <point x="149" y="324" type="line"/>
      <point x="262" y="324" type="line" smooth="yes"/>
      <point x="394" y="324"/>
      <point x="497" y="384"/>
      <point x="519" y="507" type="curve" smooth="yes"/>
      <point x="541" y="630"/>
      <point x="457" y="689"/>
      <point x="326" y="689" type="curve" smooth="yes"/>
    </contour>
    <contour>
      <point x="235" y="768" type="curve"/>
      <point x="245" y="768" type="line"/>
      <point x="257" y="834"/>
      <point x="324" y="898"/>
      <point x="416" y="898" type="curve" smooth="yes"/>
      <point x="508" y="898"/>
      <point x="553" y="834"/>
      <point x="541" y="768" type="curve"/>
      <point x="551" y="768" type="line"/>
      <point x="563" y="837"/>
      <point x="523" y="908"/>
      <point x="418" y="908" type="curve" smooth="yes"/>
      <point x="313" y="908"/>
      <point x="247" y="837"/>
    </contour>
  </outline>
</glyph>
<glyph name="uni0213" format="1">
  <advance width="290"/>
  <unicode hex="0213"/>
  <outline>
    <contour>
      <point x="176" y="460" type="line"/>
      <point x="95" y="0" type="line"/>
      <point x="85" y="0" type="line"/>
      <point x="166" y="460" type="line"/>
    </contour>
    <contour>
      <point x="347" y="440" type="line"/>
      <point x="332" y="452"/>
      <point x="313" y="460"/>
      <point x="293" y="460" type="curve" smooth="yes"/>
      <point x="213" y="460"/>
      <point x="161" y="376"/>
      <point x="144" y="280" type="curve"/>
      <point x="139" y="280" type="line"/>
      <point x="158" y="389"/>
      <point x="210" y="470"/>
      <point x="295" y="470" type="curve" smooth="yes"/>
      <point x="318" y="470"/>
      <point x="339" y="460"/>
      <point x="354" y="448" type="curve"/>
    </contour>
    <contour>
      <point x="119" y="550" type="curve"/>
      <point x="129" y="550" type="line"/>
      <point x="141" y="616"/>
      <point x="208" y="680"/>
      <point x="300" y="680" type="curve" smooth="yes"/>
      <point x="392" y="680"/>
      <point x="437" y="616"/>
      <point x="425" y="550" type="curve"/>
      <point x="435" y="550" type="line"/>
      <point x="447" y="619"/>
      <point x="407" y="690"/>
      <point x="302" y="690" type="curve" smooth="yes"/>
      <point x="197" y="690"/>
      <point x="131" y="619"/>
    </contour>
  </outline>
</glyph>
<glyph name="uni0237" format="1">
  <advance width="169"/>
  <unicode hex="0237"/>
  <outline>
    <contour>
      <point x="-202" y="-165" type="line"/>
      <point x="-188" y="-187"/>
      <point x="-173" y="-207"/>
      <point x="-144" y="-209" type="curve" smooth="yes"/>
      <point x="-74" y="-213"/>
      <point x="-29" y="-138"/>
      <point x="-7" y="-82" type="curve" smooth="yes"/>
      <point x="179" y="459" type="line"/>
      <point x="189" y="459" type="line"/>
      <point x="3" y="-82" type="line" smooth="yes"/>
      <point x="-20" y="-143"/>
      <point x="-70" y="-224"/>
      <point x="-146" y="-219" type="curve" smooth="yes"/>
      <point x="-178" y="-217"/>
      <point x="-195" y="-197"/>
      <point x="-211" y="-172" type="curve"/>
    </contour>
  </outline>
</glyph>
<glyph name="caron" format="1">
  <advance width="451"/>
  <unicode hex="02C7"/>
  <outline>
    <contour>
      <point x="369" y="583" type="line"/>
      <point x="560" y="716" type="line"/>
      <point x="566" y="708" type="line"/>
      <point x="367" y="571" type="line"/>
      <point x="262" y="710" type="line"/>
      <point x="272" y="718" type="line"/>
    </contour>
  </outline>
</glyph>
<glyph name="breve" format="1">
  <advance width="513"/>
  <unicode hex="02D8"/>
  <outline>
    <contour>
      <point x="336" y="850" type="curve"/>
      <point x="345" y="850" type="line"/>
      <point x="336" y="779"/>
      <point x="364" y="722"/>
      <point x="443" y="721" type="curve" smooth="yes"/>
      <point x="527" y="720"/>
      <point x="588" y="780"/>
      <point x="625" y="849" type="curve"/>
      <point x="635" y="848" type="line"/>
      <point x="597" y="772"/>
      <point x="532" y="711"/>
      <point x="442" y="711" type="curve" smooth="yes"/>
      <point x="356" y="711"/>
      <point x="325" y="773"/>
    </contour>
  </outline>
</glyph>
<glyph name="dotaccent" format="1">
  <advance width="227"/>
  <unicode hex="02D9"/>
  <outline>
    <contour>
      <point x="305" y="751" type="curve" smooth="yes"/>
      <point x="306" y="755"/>
      <point x="314" y="762"/>
      <point x="319" y="762" type="curve" smooth="yes"/>
      <point x="324" y="762"/>
      <point x="327" y="756"/>
      <point x="326" y="751" type="curve" smooth="yes"/>
      <point x="325" y="747"/>
      <point x="318" y="740"/>
      <point x="313" y="740" type="curve" smooth="yes"/>
      <point x="308" y="740"/>
      <point x="304" y="746"/>
    </contour>
  </outline>
</glyph>
<glyph name="ogonek" format="1">
  <advance width="235"/>
  <unicode hex="02DB"/>
  <outline>
    <contour>
      <point x="110" y="-174" type="curve"/>
      <point x="115" y="-181" type="line"/>
      <point x="83" y="-201"/>
      <point x="50" y="-220"/>
      <point x="11" y="-219" type="curve" smooth="yes"/>
      <point x="-36" y="-218"/>
      <point x="-75" y="-190"/>
      <point x="-63" y="-139" type="curve" smooth="yes"/>
      <point x="-44" y="-60"/>
      <point x="63" y="-20"/>
      <point x="128" y="9" type="curve"/>
      <point x="132" y="0" type="line"/>
      <point x="71" y="-30"/>
      <point x="-36" y="-65"/>
      <point x="-54" y="-140" type="curve" smooth="yes"/>
      <point x="-64" y="-184"/>
      <point x="-28" y="-208"/>
      <point x="12" y="-209" type="curve" smooth="yes"/>
      <point x="48" y="-210"/>
      <point x="80" y="-192"/>
    </contour>
  </outline>
</glyph>
<glyph name="tilde" format="1">
  <advance width="530"/>
  <unicode hex="02DC"/>
  <outline>
    <contour>
      <point x="256" y="649" type="line"/>
      <point x="261" y="678"/>
      <point x="284" y="707"/>
      <point x="329" y="707" type="curve" smooth="yes"/>
      <point x="384" y="707"/>
      <point x="390" y="660"/>
      <point x="444" y="660" type="curve" smooth="yes"/>
      <point x="473" y="660"/>
      <point x="488" y="676"/>
      <point x="509" y="708" type="curve"/>
      <point x="517" y="705" type="line"/>
      <point x="494" y="668"/>
      <point x="472" y="652"/>
      <point x="442" y="652" type="curve" smooth="yes"/>
      <point x="387" y="652"/>
      <point x="374" y="699"/>
      <point x="329" y="699" type="curve" smooth="yes"/>
      <point x="288" y="699"/>
      <point x="269" y="673"/>
      <point x="265" y="648" type="curve"/>
    </contour>
  </outline>
</glyph>
<glyph name="uni0400" format="1">
  <advance width="517"/>
  <unicode hex="0400"/>
  <outline>
    <contour>
      <point x="32" y="0" type="line"/>
      <point x="35" y="10" type="line"/>
      <point x="354" y="10" type="line"/>
      <point x="351" y="0" type="line"/>
    </contour>
    <contour>
      <point x="268" y="690" type="line"/>
      <point x="271" y="700" type="line"/>
      <point x="589" y="700" type="line"/>
      <point x="586" y="690" type="line"/>
    </contour>
    <contour>
      <point x="163" y="384" type="line"/>
      <point x="167" y="394" type="line"/>
      <point x="466" y="394" type="line"/>
      <point x="463" y="384" type="line"/>
    </contour>
    <contour>
      <point x="270" y="699" type="line"/>
      <point x="281" y="699" type="line"/>
      <point x="40" y="0" type="line"/>
      <point x="29" y="0" type="line"/>
    </contour>
    <contour>
      <point x="387" y="952" type="line"/>
      <point x="397" y="959" type="line"/>
      <point x="505" y="800" type="line"/>
      <point x="499" y="796" type="line"/>
    </contour>
  </outline>
</glyph>
<glyph name="uni0403" format="1">
  <advance width="409"/>
  <unicode hex="0403"/>
  <outline>
    <contour>
      <point x="260" y="700" type="line"/>
      <point x="585" y="700" type="line"/>
      <point x="581" y="690" type="line"/>
      <point x="267" y="690" type="line"/>
      <point x="29" y="0" type="line"/>
      <point x="20" y="0" type="line"/>
    </contour>
    <contour>
      <point x="635" y="950" type="line"/>
      <point x="416" y="797" type="line"/>
      <point x="413" y="802" type="line"/>
      <point x="629" y="958" type="line"/>
    </contour>
  </outline>
</glyph>
<glyph name="uni040D" format="1">
  <advance width="682"/>
  <unicode hex="040D"/>
  <outline>
    <contour>
      <point x="779" y="704" type="line"/>
      <point x="17" y="-34" type="line"/>
      <point x="34" y="-4" type="line"/>
      <point x="796" y="734" type="line"/>
    </contour>
    <contour>
      <point x="280" y="699" type="line"/>
      <point x="34" y="-13" type="line"/>
      <point x="17" y="-34" type="line"/>
      <point x="270" y="699" type="line"/>
    </contour>
    <contour>
      <point x="796" y="734" type="line"/>
      <point x="542" y="0" type="line"/>
      <point x="532" y="0" type="line"/>
      <point x="779" y="715" type="line"/>
    </contour>
    <contour>
      <point x="440" y="927" type="line"/>
      <point x="450" y="934" type="line"/>
      <point x="557" y="775" type="line"/>
      <point x="551" y="771" type="line"/>
    </contour>
  </outline>
</glyph>
<glyph name="uni040E" format="1">
  <advance width="451"/>
  <unicode hex="040E"/>
  <outline>
    <contour>
      <point x="638" y="699" type="line"/>
      <point x="87" y="0" type="line"/>
      <point x="77" y="0" type="line"/>
      <point x="254" y="227" type="line"/>
      <point x="185" y="700" type="line"/>
      <point x="194" y="700" type="line"/>
      <point x="262" y="230" type="line"/>
      <point x="258" y="230" type="line"/>
      <point x="627" y="699" type="line"/>
    </contour>
    <contour>
      <point x="333" y="908" type="curve"/>
      <point x="343" y="908" type="line"/>
      <point x="331" y="838"/>
      <point x="357" y="780"/>
      <point x="436" y="779" type="curve" smooth="yes"/>
      <point x="520" y="778"/>
      <point x="583" y="838"/>
      <point x="622" y="906" type="curve"/>
      <point x="632" y="906" type="line"/>
      <point x="592" y="831"/>
      <point x="525" y="768"/>
      <point x="435" y="769" type="curve" smooth="yes"/>
      <point x="349" y="770"/>
      <point x="319" y="831"/>
    </contour>
  </outline>
</glyph>
<glyph name="uni0411" format="1">
  <advance width="477"/>
  <unicode hex="0411"/>
  <outline>
    <contour>
      <point x="167" y="410" type="line"/>
      <point x="171" y="420" type="line"/>
      <point x="301" y="420" type="line" smooth="yes"/>
      <point x="420" y="420"/>
      <point x="499" y="328"/>
      <point x="459" y="210" type="curve" smooth="yes"/>
      <point x="417" y="86"/>
      <point x="293" y="0"/>
      <point x="165" y="0" type="curve" smooth="yes"/>
      <point x="27" y="0" type="line"/>
      <point x="31" y="10" type="line"/>
      <point x="164" y="10" type="line" smooth="yes"/>
      <point x="286" y="10"/>
      <point x="409" y="92"/>
      <point x="449" y="210" type="curve" smooth="yes"/>
      <point x="487" y="322"/>
      <point x="416" y="410"/>
      <point x="303" y="410" type="curve" smooth="yes"/>
    </contour>
    <contour>
      <point x="260" y="700" type="line"/>
      <point x="575" y="700" type="line"/>
      <point x="572" y="690" type="line"/>
      <point x="267" y="690" type="line"/>
      <point x="29" y="0" type="line"/>
      <point x="20" y="0" type="line"/>
    </contour>
  </outline>
</glyph>
<glyph name="uni0413" format="1">
  <advance width="409"/>
  <unicode hex="0413"/>
  <outline>
    <contour>
      <point x="260" y="700" type="line"/>
      <point x="585" y="700" type="line"/>
      <point x="581" y="690" type="line"/>
      <point x="267" y="690" type="line"/>
      <point x="29" y="0" type="line"/>
      <point x="20" y="0" type="line"/>
    </contour>
  </outline>
</glyph>
<glyph name="uni0417" format="1">
  <advance width="570"/>
  <unicode hex="0417"/>
  <outline>
    <contour>
      <point x="335" y="360" type="curve"/>
      <point x="337" y="367" type="line"/>
      <point x="446" y="374"/>
      <point x="583" y="408"/>
      <point x="624" y="524" type="curve" smooth="yes"/>
      <point x="660" y="626"/>
      <point x="583" y="698"/>
      <point x="484" y="699" type="curve" smooth="yes"/>
      <point x="366" y="701"/>
      <point x="271" y="629"/>
      <point x="218" y="528" type="curve"/>
      <point x="208" y="528" type="line"/>
      <point x="262" y="635"/>
      <point x="361" y="710"/>
      <point x="485" y="709" type="curve" smooth="yes"/>
      <point x="589" y="708"/>
      <point x="671" y="630"/>
      <point x="634" y="523" type="curve" smooth="yes"/>
      <point x="591" y="400"/>
      <point x="450" y="367"/>
    </contour>
    <contour>
      <point x="238" y="-9" type="curve" smooth="yes"/>
      <point x="115" y="-9"/>
      <point x="38" y="61"/>
      <point x="66" y="185" type="curve"/>
      <point x="76" y="185" type="line"/>
      <point x="50" y="66"/>
      <point x="121" y="1"/>
      <point x="238" y="1" type="curve" smooth="yes"/>
      <point x="357" y="1"/>
      <point x="488" y="67"/>
      <point x="528" y="185" type="curve" smooth="yes"/>
      <point x="574" y="321"/>
      <point x="439" y="352"/>
      <point x="334" y="357" type="curve"/>
      <point x="336" y="363" type="line"/>
      <point x="447" y="358"/>
      <point x="584" y="327"/>
      <point x="537" y="185" type="curve" smooth="yes"/>
      <point x="496" y="61"/>
      <point x="363" y="-9"/>
    </contour>
  </outline>
</glyph>
<glyph name="uni0419" format="1">
  <advance width="682"/>
  <unicode hex="0419"/>
  <outline>
    <contour>
      <point x="779" y="704" type="line"/>
      <point x="17" y="-34" type="line"/>
      <point x="34" y="-4" type="line"/>
      <point x="796" y="734" type="line"/>
    </contour>
    <contour>
      <point x="280" y="699" type="line"/>
      <point x="34" y="-13" type="line"/>
      <point x="17" y="-34" type="line"/>
      <point x="270" y="699" type="line"/>
    </contour>
    <contour>
      <point x="796" y="734" type="line"/>
      <point x="542" y="0" type="line"/>
      <point x="532" y="0" type="line"/>
      <point x="779" y="715" type="line"/>
    </contour>
    <contour>
      <point x="405.396" y="913" type="curve"/>
      <point x="414.396" y="913" type="line"/>
      <point x="405.396" y="842"/>
      <point x="433.396" y="785"/>
      <point x="512.396" y="784" type="curve" smooth="yes"/>
      <point x="596.396" y="783"/>
      <point x="657.396" y="843"/>
      <point x="694.396" y="912" type="curve"/>
      <point x="704.396" y="911" type="line"/>
      <point x="666.396" y="835"/>
      <point x="601.396" y="774"/>
      <point x="511.396" y="774" type="curve" smooth="yes"/>
      <point x="425.396" y="774"/>
      <point x="394.396" y="836"/>
    </contour>
  </outline>
</glyph>
<glyph name="uni041C" format="1">
  <advance width="762"/>
  <unicode hex="041C"/>
  <outline>
    <contour>
      <point x="311" y="674" type="line"/>
      <point x="11" y="0" type="line"/>
      <point x="1" y="0" type="line"/>
      <point x="318" y="715" type="line"/>
      <point x="380" y="132" type="line"/>
      <point x="846" y="716" type="line"/>
      <point x="669" y="0" type="line"/>
      <point x="659" y="0" type="line"/>
      <point x="825" y="672" type="line"/>
      <point x="372" y="105" type="line"/>
    </contour>
  </outline>
</glyph>
<glyph name="uni0422" format="1">
  <advance width="437"/>
  <unicode hex="0422"/>
  <outline>
    <contour>
      <point x="200" y="689" type="line"/>
      <point x="203" y="700" type="line"/>
      <point x="572" y="700" type="line"/>
      <point x="568" y="689" type="line"/>
      <point x="389" y="689" type="line"/>
      <point x="153" y="0" type="line"/>
      <point x="142" y="0" type="line"/>
      <point x="378" y="689" type="line"/>
    </contour>
  </outline>
</glyph>
<glyph name="uni0424" format="1">
  <advance width="686"/>
  <unicode hex="0424"/>
  <outline>
    <contour>
      <point x="524" y="699" type="line"/>
      <point x="534" y="699" type="line"/>
      <point x="293" y="0" type="line"/>
      <point x="283" y="0" type="line"/>
    </contour>
    <contour>
      <point x="705" y="350" type="curve" smooth="yes"/>
      <point x="758" y="503"/>
      <point x="653" y="604"/>
      <point x="503" y="609" type="curve" smooth="yes"/>
      <point x="494" y="609" type="line" smooth="yes"/>
      <point x="331" y="605"/>
      <point x="167" y="509"/>
      <point x="112" y="350" type="curve" smooth="yes"/>
      <point x="59" y="197"/>
      <point x="164" y="94"/>
      <point x="314" y="89" type="curve" smooth="yes"/>
      <point x="323" y="89" type="line" smooth="yes"/>
      <point x="487" y="93"/>
      <point x="650" y="191"/>
    </contour>
    <contour>
      <point x="715" y="350" type="curve" smooth="yes"/>
      <point x="659" y="185"/>
      <point x="491" y="84"/>
      <point x="322" y="80" type="curve" smooth="yes"/>
      <point x="313" y="80" type="line" smooth="yes"/>
      <point x="158" y="85"/>
      <point x="48" y="191"/>
      <point x="102" y="350" type="curve" smooth="yes"/>
      <point x="158" y="515"/>
      <point x="326" y="616"/>
      <point x="495" y="620" type="curve" smooth="yes"/>
      <point x="504" y="620" type="line" smooth="yes"/>
      <point x="659" y="615"/>
      <point x="769" y="509"/>
    </contour>
  </outline>
</glyph>
<glyph name="uni0429" format="1">
  <advance width="898"/>
  <unicode hex="0429"/>
  <outline>
    <contour>
      <point x="720" y="10" type="line"/>
      <point x="957" y="699" type="line"/>
      <point x="967" y="699" type="line"/>
      <point x="730" y="10" type="line"/>
      <point x="811" y="10" type="line"/>
      <point x="768" y="-109" type="line"/>
      <point x="758" y="-109" type="line"/>
      <point x="798" y="0" type="line"/>
      <point x="20" y="0" type="line"/>
      <point x="261" y="699" type="line"/>
      <point x="271" y="699" type="line"/>
      <point x="34" y="10" type="line"/>
      <point x="372" y="10" type="line"/>
      <point x="609" y="699" type="line"/>
      <point x="619" y="699" type="line"/>
      <point x="382" y="10" type="line"/>
    </contour>
  </outline>
</glyph>
<glyph name="uni042E" format="1">
  <advance width="963"/>
  <unicode hex="042E"/>
  <outline>
    <contour>
      <point x="155" y="375" type="line"/>
      <point x="159" y="385" type="line"/>
      <point x="366" y="385" type="line"/>
      <point x="363" y="375" type="line"/>
    </contour>
    <contour>
      <point x="261" y="699" type="line"/>
      <point x="271" y="699" type="line"/>
      <point x="29" y="0" type="line"/>
      <point x="20" y="0" type="line"/>
    </contour>
    <contour>
      <point x="359" y="352" type="curve" smooth="yes"/>
      <point x="306" y="197"/>
      <point x="352" y="4"/>
      <point x="545" y="3" type="curve" smooth="yes"/>
      <point x="742" y="2"/>
      <point x="912" y="175"/>
      <point x="972" y="352" type="curve" smooth="yes"/>
      <point x="1025" y="508"/>
      <point x="978" y="698"/>
      <point x="785" y="699" type="curve" smooth="yes"/>
      <point x="588" y="700"/>
      <point x="419" y="528"/>
    </contour>
    <contour>
      <point x="348" y="352" type="curve" smooth="yes"/>
      <point x="409" y="534"/>
      <point x="584" y="711"/>
      <point x="786" y="710" type="curve" smooth="yes"/>
      <point x="984" y="709"/>
      <point x="1037" y="514"/>
      <point x="983" y="352" type="curve" smooth="yes"/>
      <point x="922" y="170"/>
      <point x="746" y="-10"/>
      <point x="543" y="-9" type="curve" smooth="yes"/>
      <point x="344" y="-8"/>
      <point x="294" y="191"/>
    </contour>
  </outline>
</glyph>
<glyph name="uni042F" format="1">
  <advance width="440"/>
  <unicode hex="042F"/>
  <outline>
    <contour>
      <point x="309" y="315" type="line"/>
      <point x="-9" y="0" type="line"/>
      <point x="-23" y="0" type="line"/>
      <point x="296" y="315" type="line"/>
    </contour>
    <contour>
      <point x="542" y="700" type="line"/>
      <point x="300" y="0" type="line"/>
      <point x="290" y="0" type="line"/>
      <point x="531" y="700" type="line"/>
    </contour>
    <contour>
      <point x="535" y="689" type="line"/>
      <point x="429" y="689" type="line" smooth="yes"/>
      <point x="311" y="685"/>
      <point x="194" y="624"/>
      <point x="154" y="507" type="curve" smooth="yes"/>
      <point x="115" y="392"/>
      <point x="195" y="324"/>
      <point x="303" y="324" type="curve" smooth="yes"/>
      <point x="410" y="324" type="line"/>
      <point x="407" y="314" type="line"/>
      <point x="301" y="314" type="line" smooth="yes"/>
      <point x="188" y="314"/>
      <point x="104" y="388"/>
      <point x="144" y="507" type="curve" smooth="yes"/>
      <point x="185" y="630"/>
      <point x="307" y="696"/>
      <point x="431" y="700" type="curve" smooth="yes"/>
      <point x="539" y="700" type="line"/>
    </contour>
  </outline>
</glyph>
<glyph name="uni0431" format="1">
  <advance width="513"/>
  <unicode hex="0431"/>
  <outline>
    <contour>
      <point x="364" y="459" type="curve"/>
      <point x="367" y="469" type="line"/>
      <point x="495" y="469"/>
      <point x="556" y="354"/>
      <point x="518" y="230" type="curve" smooth="yes"/>
      <point x="480" y="104"/>
      <point x="357" y="-9"/>
      <point x="221" y="-9" type="curve" smooth="yes"/>
      <point x="73" y="-9"/>
      <point x="71" y="123"/>
      <point x="71" y="180" type="curve"/>
      <point x="81" y="180" type="line" smooth="yes"/>
      <point x="82" y="125"/>
      <point x="83" y="1"/>
      <point x="222" y="1" type="curve" smooth="yes"/>
      <point x="351" y="1"/>
      <point x="471" y="111"/>
      <point x="508" y="230" type="curve" smooth="yes"/>
      <point x="546" y="351"/>
      <point x="487" y="459"/>
    </contour>
    <contour>
      <point x="71" y="180" type="line"/>
      <point x="72" y="307"/>
      <point x="226" y="469"/>
      <point x="367" y="469" type="curve"/>
      <point x="364" y="459" type="line"/>
      <point x="229" y="459"/>
      <point x="81" y="301"/>
      <point x="81" y="180" type="curve"/>
    </contour>
    <contour>
      <point x="71" y="180" type="line"/>
      <point x="72" y="346"/>
      <point x="240" y="593"/>
      <point x="396" y="656" type="curve" smooth="yes"/>
      <point x="466" y="684"/>
      <point x="523" y="717"/>
      <point x="568" y="779" type="curve"/>
      <point x="578" y="779" type="line"/>
      <point x="532" y="711"/>
      <point x="472" y="676"/>
      <point x="398" y="646" type="curve" smooth="yes"/>
      <point x="233" y="579"/>
      <point x="81" y="321"/>
      <point x="81" y="200" type="curve" smooth="yes"/>
      <point x="81" y="180" type="line"/>
    </contour>
  </outline>
</glyph>
<glyph name="uni0432" format="1">
  <advance width="386"/>
  <unicode hex="0432"/>
  <outline>
    <contour>
      <point x="100" y="231" type="line"/>
      <point x="224" y="231" type="line" smooth="yes"/>
      <point x="292" y="229"/>
      <point x="375" y="211"/>
      <point x="348" y="124" type="curve" smooth="yes"/>
      <point x="324" y="45"/>
      <point x="243" y="2"/>
      <point x="166" y="1" type="curve" smooth="yes"/>
      <point x="21" y="0" type="line"/>
      <point x="24" y="10" type="line"/>
      <point x="167" y="10" type="line" smooth="yes"/>
      <point x="238" y="10"/>
      <point x="316" y="52"/>
      <point x="338" y="125" type="curve" smooth="yes"/>
      <point x="362" y="206"/>
      <point x="288" y="223"/>
      <point x="224" y="225" type="curve" smooth="yes"/>
      <point x="98" y="225" type="line"/>
    </contour>
    <contour>
      <point x="99" y="229" type="line"/>
      <point x="101" y="235" type="line"/>
      <point x="216" y="235" type="line" smooth="yes"/>
      <point x="284" y="238"/>
      <point x="365" y="264"/>
      <point x="391" y="335" type="curve" smooth="yes"/>
      <point x="418" y="409"/>
      <point x="357" y="450"/>
      <point x="291" y="450" type="curve" smooth="yes"/>
      <point x="174" y="450" type="line"/>
      <point x="178" y="460" type="line"/>
      <point x="293" y="460" type="line" smooth="yes"/>
      <point x="366" y="460"/>
      <point x="429" y="414"/>
      <point x="400" y="334" type="curve" smooth="yes"/>
      <point x="373" y="257"/>
      <point x="290" y="232"/>
      <point x="216" y="229" type="curve" smooth="yes"/>
    </contour>
    <contour>
      <point x="174" y="460" type="line"/>
      <point x="184" y="460" type="line"/>
      <point x="25" y="0" type="line"/>
      <point x="15" y="0" type="line"/>
    </contour>
  </outline>
</glyph>
<glyph name="uni0433" format="1">
  <advance width="282"/>
  <unicode hex="0433"/>
  <outline>
    <contour>
      <point x="178" y="460" type="line"/>
      <point x="381" y="460" type="line"/>
      <point x="377" y="450" type="line"/>
      <point x="185" y="450" type="line"/>
      <point x="29" y="0" type="line"/>
      <point x="19" y="0" type="line"/>
    </contour>
  </outline>
</glyph>
<glyph name="uni0438" format="1">
  <advance width="446"/>
  <unicode hex="0438"/>
  <outline>
    <contour>
      <point x="473" y="464" type="line"/>
      <point x="8" y="-34" type="line"/>
      <point x="22" y="-4" type="line"/>
      <point x="488" y="494" type="line"/>
    </contour>
    <contour>
      <point x="189" y="459" type="line"/>
      <point x="24" y="-15" type="line"/>
      <point x="8" y="-34" type="line"/>
      <point x="179" y="459" type="line"/>
    </contour>
    <contour>
      <point x="488" y="494" type="line"/>
      <point x="316" y="0" type="line"/>
      <point x="306" y="0" type="line"/>
      <point x="471" y="475" type="line"/>
    </contour>
  </outline>
</glyph>
<glyph name="uni0439" format="1">
  <advance width="446"/>
  <unicode hex="0439"/>
  <outline>
    <contour>
      <point x="473" y="464" type="line"/>
      <point x="8" y="-34" type="line"/>
      <point x="22" y="-4" type="line"/>
      <point x="488" y="494" type="line"/>
    </contour>
    <contour>
      <point x="189" y="459" type="line"/>
      <point x="24" y="-15" type="line"/>
      <point x="8" y="-34" type="line"/>
      <point x="179" y="459" type="line"/>
    </contour>
    <contour>
      <point x="488" y="494" type="line"/>
      <point x="316" y="0" type="line"/>
      <point x="306" y="0" type="line"/>
      <point x="471" y="475" type="line"/>
    </contour>
    <contour>
      <point x="237.396" y="693" type="curve"/>
      <point x="246.396" y="693" type="line"/>
      <point x="237.396" y="622"/>
      <point x="265.396" y="565"/>
      <point x="344.396" y="564" type="curve" smooth="yes"/>
      <point x="428.396" y="563"/>
      <point x="489.396" y="623"/>
      <point x="526.396" y="692" type="curve"/>
      <point x="536.396" y="691" type="line"/>
      <point x="498.396" y="615"/>
      <point x="433.396" y="554"/>
      <point x="343.396" y="554" type="curve" smooth="yes"/>
      <point x="257.396" y="554"/>
      <point x="226.396" y="616"/>
    </contour>
  </outline>
</glyph>
<glyph name="uni043C" format="1">
  <advance width="571"/>
  <unicode hex="043C"/>
  <outline>
    <contour>
      <point x="500" y="0" type="line"/>
      <point x="554" y="454" type="line"/>
      <point x="570" y="495" type="line"/>
      <point x="511" y="0" type="line"/>
    </contour>
    <contour>
      <point x="230" y="8" type="line"/>
      <point x="570" y="493" type="line"/>
      <point x="555" y="453" type="line"/>
      <point x="217" y="-29" type="line"/>
    </contour>
    <contour>
      <point x="218" y="-31" type="line"/>
      <point x="222" y="456" type="line"/>
      <point x="233" y="495" type="line"/>
      <point x="231" y="7" type="line"/>
    </contour>
    <contour>
      <point x="-51" y="0" type="line"/>
      <point x="234" y="494" type="line"/>
      <point x="223" y="455" type="line"/>
      <point x="-38" y="1" type="line"/>
    </contour>
  </outline>
</glyph>
<glyph name="uni043D" format="1">
  <advance width="465"/>
  <unicode hex="043D"/>
  <outline>
    <contour>
      <point x="105" y="240" type="line"/>
      <point x="108" y="250" type="line"/>
      <point x="419" y="250" type="line"/>
      <point x="416" y="240" type="line"/>
    </contour>
    <contour>
      <point x="490" y="459" type="line"/>
      <point x="500" y="459" type="line"/>
      <point x="340" y="0" type="line"/>
      <point x="330" y="0" type="line"/>
    </contour>
    <contour>
      <point x="174" y="459" type="line"/>
      <point x="184" y="459" type="line"/>
      <point x="25" y="0" type="line"/>
      <point x="15" y="0" type="line"/>
    </contour>
  </outline>
</glyph>
<glyph name="uni043F" format="1">
  <advance width="428"/>
  <unicode hex="043F"/>
  <outline>
    <contour>
      <point x="461" y="460" type="line"/>
      <point x="302" y="0" type="line"/>
      <point x="292" y="0" type="line"/>
      <point x="448" y="450" type="line"/>
      <point x="180" y="450" type="line"/>
      <point x="25" y="0" type="line"/>
      <point x="15" y="0" type="line"/>
      <point x="174" y="460" type="line"/>
    </contour>
  </outline>
</glyph>
